<svg xmlns="http://www.w3.org/2000/svg" width="2135" height="262.186">
    <path d="M0 0h2135v262.186L0 118.813z" fill="#0081c8"/>
    <g fill="#fff" opacity=".05">
        <path d="M1738.521 60.797h-4.771v-15.6c2.454-.136 3.954-.136 4.5-.136a6.367 6.367 0 0 1 3.818 1.086 3.33 3.33 0 0 1 1.364 2.985 3.561 3.561 0 0 1-1.909 2.985 4.022 4.022 0 0 1 2.863 4.207 4.109 4.109 0 0 1-1.636 3.392 8.5 8.5 0 0 1-4.229 1.081zm-2.045-13.3v3.664h1.364c1.773 0 2.726-.679 2.726-2.036 0-1.222-.818-1.764-2.454-1.764-.409.002-.954.138-1.636.138zm0 5.834v5.157h1.364a4.322 4.322 0 0 0 2.59-.542 2.537 2.537 0 0 0 .955-2.171 2.272 2.272 0 0 0-.819-1.9 4.55 4.55 0 0 0-2.726-.542h-1.364zm12.817 7.192v4.751h-2.727V49.399h2.726v.814a3.294 3.294 0 0 1 2.455-.95c3.682 0 5.454 2.035 5.454 5.97a6.211 6.211 0 0 1-1.5 4.342 5.808 5.808 0 0 1-4.09 1.492 4.491 4.491 0 0 1-2.318-.542zm0-8.277v5.971a2.751 2.751 0 0 0 1.773.542 3.044 3.044 0 0 0 2.59-.949 3.963 3.963 0 0 0 .818-2.85 4.433 4.433 0 0 0-.819-2.85 3.629 3.629 0 0 0-2.726-.814 3.437 3.437 0 0 0-1.636.952zm20.451 3.664h-8.181a2.946 2.946 0 0 0 .955 2.171 3.216 3.216 0 0 0 2.317.814 3.343 3.343 0 0 0 2.727-.949l1.091 2.035c-.955.814-2.318 1.085-4.227 1.085a5.58 5.58 0 0 1-4.09-1.492 5.978 5.978 0 0 1-1.5-4.342 5.922 5.922 0 0 1 1.637-4.342 5.792 5.792 0 0 1 7.908-.136 5.318 5.318 0 0 1 1.5 3.8 5.619 5.619 0 0 1-.137 1.358zm-8.045-1.9h5.59a2.433 2.433 0 0 0-2.726-2.442q-2.455-.202-2.864 2.444zm24.133 6.785h-2.726c-.546-3.257-.955-5.021-.955-5.428v-.813h-.137a4.582 4.582 0 0 1-.409 1.086l-2.724 5.294h-.955l-2.045-3.937-.955-1.9a1.026 1.026 0 0 1-.136-.543h-.137a10.313 10.313 0 0 1-.136 1.9l-.682 4.206h-2.59l2.181-11.668h.955l4.227 8.141 4.09-8.141h.954zm11.453 0h-2.59V56.59h-.682c-2.045 0-3.136.814-3.408 2.577a2.059 2.059 0 0 1-2.318 1.9h-1.091v-2.17h.409c.273 0 .545-.272.682-.679a3.7 3.7 0 0 1 .818-1.628 4.74 4.74 0 0 1 1.636-.949c-1.908-.408-2.726-1.357-2.726-2.985a3.393 3.393 0 0 1 1.09-2.442c.681-.679 1.908-.95 3.545-.95.954 0 2.59 0 4.771.136v11.4zm-2.59-6.242v-3.119c-.545 0-1.228-.136-2.045-.136a2.454 2.454 0 0 0-1.5.408 1.535 1.535 0 0 0-.409 1.085 1.471 1.471 0 0 0 .545 1.222 2.918 2.918 0 0 0 1.637.408zm-51.814 31.618h-2.591v-4.343h-.681c-2.045 0-3.136.814-3.409 2.577a2.058 2.058 0 0 1-2.317 1.9h-1.091v-2.171h.409a.622.622 0 0 0 .545-.679 4.589 4.589 0 0 1 .818-1.628 4.736 4.736 0 0 1 1.636-.949c-1.908-.408-2.726-1.357-2.726-2.985a3.392 3.392 0 0 1 1.091-2.442c.682-.679 1.908-.95 3.545-.95.955 0 2.59 0 4.772.136V86.17zm-2.591-6.378v-3.12c-.545 0-1.226-.136-2.045-.136a2.454 2.454 0 0 0-1.5.408 1.532 1.532 0 0 0-.409 1.085 1.3 1.3 0 0 0 .682 1.222 2.914 2.914 0 0 0 1.636.408l1.636.135zm8.18 6.107v4.749h-2.726V74.772h2.726v.815a3.293 3.293 0 0 1 2.455-.95c3.682 0 5.453 2.035 5.453 5.97a6.214 6.214 0 0 1-1.5 4.342 5.813 5.813 0 0 1-4.09 1.492 6.445 6.445 0 0 1-2.314-.541zm0-8.413v5.971a2.755 2.755 0 0 0 1.773.542 3.045 3.045 0 0 0 2.591-.949 3.963 3.963 0 0 0 .818-2.85 4.433 4.433 0 0 0-.819-2.85 3.631 3.631 0 0 0-2.726-.814 10.288 10.288 0 0 0-1.633.949zm19.911 8.684h-1.228a2.076 2.076 0 0 1-2.317-2.036 3.111 3.111 0 0 0-3.409-2.985v4.884h-2.863v-11.4h2.59v4.342h.137q2.863 0 3.272-2.442c.136-1.357.954-1.9 2.317-1.9h1.228v2.171h-.546c-.273 0-.409.272-.545.679a3.653 3.653 0 0 1-3 2.713 4.066 4.066 0 0 1 3.136 3.257c.137.407.273.678.546.678h.545v2.036zm12.543 0h-2.726v-6.92l-6.817 7.192h-.681V74.771h2.726v6.921l6.817-7.192h.682v11.67zm10.226 0l-2.726-3.8-2.726 3.8h-3.137l4.362-5.835-4.09-5.564h3.136l2.591 3.392 2.59-3.392h3l-4.09 5.427 4.363 5.97h-3.273zm20.316 0h-2.726v-9.228h-4.5v9.091h-2.726v-11.4h9.952V86.17zm2.319-5.7a6.1 6.1 0 0 1 1.5-4.206 5.056 5.056 0 0 1 3.954-1.628 5.156 5.156 0 0 1 4.09 1.628 6.208 6.208 0 0 1 1.5 4.341 5.98 5.98 0 0 1-1.5 4.342 5.055 5.055 0 0 1-3.954 1.628 5.157 5.157 0 0 1-4.094-1.626 6.384 6.384 0 0 1-1.5-4.479zm2.726 0c0 2.578.955 3.8 2.727 3.8a2.064 2.064 0 0 0 1.908-.95 4.434 4.434 0 0 0 .682-2.85c0-2.442-.955-3.663-2.726-3.663a2.462 2.462 0 0 0-2.046.949 6.281 6.281 0 0 0-.545 2.715zm12-3.121a6.678 6.678 0 0 1 1.77-1.628 3.868 3.868 0 0 1 2.045-.542 4.628 4.628 0 0 1 3.682 1.492 5.343 5.343 0 0 1 1.363 3.936 6.342 6.342 0 0 1-1.5 4.206 5.155 5.155 0 0 1-4.09 1.628 4.838 4.838 0 0 1-4.09-1.764 7.873 7.873 0 0 1-1.5-5.02 13.216 13.216 0 0 1 .409-3.528 9.19 9.19 0 0 1 1.09-2.578 7.922 7.922 0 0 1 1.909-1.764 12.683 12.683 0 0 1 3-1.085l3.682-.68.545 2.308c-2.863.542-4.5.813-5.045.949a3.688 3.688 0 0 0-1.5.679 3.26 3.26 0 0 0-1.363 1.357c-.001.406-.273 1.085-.41 2.035zm3.682 6.921a2.458 2.458 0 0 0 2.045-.95 3.855 3.855 0 0 0 .681-2.577 4.813 4.813 0 0 0-.681-2.579 2.905 2.905 0 0 0-2.045-.949 2.548 2.548 0 0 0-2.182.949 3.78 3.78 0 0 0-.818 2.442 3.9 3.9 0 0 0 .819 2.578 2.649 2.649 0 0 0 2.178 1.086zm17.725-2.986h-8.182a2.949 2.949 0 0 0 .955 2.172 3.217 3.217 0 0 0 2.318.814 3.339 3.339 0 0 0 2.726-.95l1.091 2.036c-.955.813-2.318 1.085-4.227 1.085a5.58 5.58 0 0 1-4.09-1.492 6.8 6.8 0 0 1 .137-8.684 5.792 5.792 0 0 1 7.908-.136 5.313 5.313 0 0 1 1.5 3.8c.136.272 0 .679-.137 1.358zm-8.045-2.035h5.59a2.434 2.434 0 0 0-2.727-2.442 2.786 2.786 0 0 0-2.866 2.443zm22.224 10.856h-2.316V86.17h-8.045v3.936h-2.317V84h1.09a10.186 10.186 0 0 0 1.772-3.666 15.06 15.06 0 0 0 .682-4.207v-1.493h7.635v9.362h1.636v6.107zm-4.09-5.971v-7.192h-2.866a13.269 13.269 0 0 1-2.045 7.192zm9.135-2.036h-1.091a56.181 56.181 0 0 1-.818-7.462v-4.342h2.726v4.339a56.129 56.129 0 0 1-.82 7.466zm-.409.815a1.331 1.331 0 0 1 1.227.542 2.431 2.431 0 0 1 .545 1.221 1.321 1.321 0 0 1-.545 1.222 2.04 2.04 0 0 1-1.227.542 1.333 1.333 0 0 1-1.227-.542 1.653 1.653 0 0 1-.545-1.222 1.867 1.867 0 0 1 1.773-1.764zm-877.842 89.584h-2.743v-6.264a9.891 9.891 0 0 1-2.743.272 6.028 6.028 0 0 1-3.978-1.225 4.524 4.524 0 0 1-1.371-3.675v-4.763h2.88v4.627a2.8 2.8 0 0 0 .686 2.041 2.846 2.846 0 0 0 2.195.681 13.557 13.557 0 0 0 2.332-.273v-7.213h2.742zm9.6-1.224a2.711 2.711 0 0 1-1.371.953 4.877 4.877 0 0 1-1.92.408 3.884 3.884 0 0 1-2.881-.952 3.475 3.475 0 0 1-1.1-2.587 4.058 4.058 0 0 1 1.509-3.13 6.328 6.328 0 0 1 4.251-1.225 3.444 3.444 0 0 1 1.1.136c0-1.361-.823-2.041-2.606-2.041a5.248 5.248 0 0 0-2.605.544l-.549-2.041a8.34 8.34 0 0 1 3.291-.68 5.193 5.193 0 0 1 3.84 1.224q1.235 1.225 1.235 4.491v2.45c0 1.5.274 2.45.96 2.858a1.611 1.611 0 0 1-.686.679 2.041 2.041 0 0 1-.96.137 1.834 1.834 0 0 1-1.1-.408 2.217 2.217 0 0 1-.409-.816zm-.274-4.22a3.445 3.445 0 0 0-1.1-.136c-2.056 0-3.154.68-3.154 2.041 0 1.089.549 1.5 1.783 1.5a2.174 2.174 0 0 0 2.469-2.451zm14.674-5.171l-1.1 2.041a3.96 3.96 0 0 0-2.469-.953 3.32 3.32 0 0 0-2.469.953 4.469 4.469 0 0 0-.96 2.858c0 2.45 1.1 3.539 3.429 3.539a3.635 3.635 0 0 0 2.605-.953l.96 2.041a6.627 6.627 0 0 1-2.056.953 9.175 9.175 0 0 1-2.058.136 6.205 6.205 0 0 1-4.251-1.5c-1.1-.953-1.508-2.45-1.508-4.355a5.938 5.938 0 0 1 1.645-4.355 6.267 6.267 0 0 1 4.663-1.633 7.415 7.415 0 0 1 3.569 1.228zm17.418 10.617h-2.605v-4.356h-.687c-2.056 0-3.154.816-3.429 2.586a2.068 2.068 0 0 1-2.331 1.9h-1.1v-2.177h.412a.624.624 0 0 0 .549-.68 3.681 3.681 0 0 1 .823-1.633 4.72 4.72 0 0 1 1.645-.953c-1.92-.409-2.743-1.361-2.743-2.994a3.4 3.4 0 0 1 1.1-2.45c.686-.68 1.92-.953 3.566-.953.96 0 2.605 0 4.8.136v11.568zm-2.743-6.4v-3.131c-.549 0-1.235-.136-2.057-.136a2.471 2.471 0 0 0-1.508.408 1.537 1.537 0 0 0-.412 1.089 1.3 1.3 0 0 0 .686 1.224 2.942 2.942 0 0 0 1.647.409zm14.675-4.22l-1.1 2.041a3.958 3.958 0 0 0-2.469-.953 3.32 3.32 0 0 0-2.468.953 4.469 4.469 0 0 0-.96 2.858c0 2.45 1.1 3.539 3.429 3.539a3.635 3.635 0 0 0 2.608-.95l.961 2.041a6.64 6.64 0 0 1-2.057.953 9.17 9.17 0 0 1-2.057.136 6.21 6.21 0 0 1-4.252-1.5c-1.1-.953-1.508-2.45-1.508-4.355a5.934 5.934 0 0 1 1.646-4.355 6.263 6.263 0 0 1 4.663-1.633 7.422 7.422 0 0 1 3.564 1.228zm12.068 10.617h-1.234a2.088 2.088 0 0 1-2.332-2.042 3.126 3.126 0 0 0-3.429-2.994v4.9h-2.604v-11.427h2.605v4.355h.138q2.879 0 3.291-2.449c.138-1.361.96-1.906 2.332-1.906h1.235v2.177h-.549c-.274 0-.411.273-.549.681a3.666 3.666 0 0 1-3.017 2.722 4.087 4.087 0 0 1 3.154 3.266c.137.409.274.681.549.681h.549v2.041h-.139zm4.938-.273v4.763h-2.743v-15.92h2.743v.816a3.321 3.321 0 0 1 2.469-.953c3.7 0 5.486 2.041 5.486 5.988a6.22 6.22 0 0 1-1.508 4.355 5.848 5.848 0 0 1-4.114 1.5 11.782 11.782 0 0 1-2.333-.547zm0-8.438v5.988a2.772 2.772 0 0 0 1.783.544 3.064 3.064 0 0 0 2.605-.953 3.962 3.962 0 0 0 .823-2.858 4.443 4.443 0 0 0-.823-2.857 3.66 3.66 0 0 0-2.743-.817 10.227 10.227 0 0 0-1.645.955zm16.595 7.486a2.711 2.711 0 0 1-1.372.953 4.877 4.877 0 0 1-1.92.408 3.884 3.884 0 0 1-2.881-.952 3.475 3.475 0 0 1-1.1-2.587 4.058 4.058 0 0 1 1.509-3.13 6.328 6.328 0 0 1 4.251-1.225 3.445 3.445 0 0 1 1.1.136c0-1.361-.823-2.041-2.606-2.041a5.254 5.254 0 0 0-2.606.544l-.549-2.041a8.345 8.345 0 0 1 3.292-.68 5.193 5.193 0 0 1 3.84 1.224q1.235 1.225 1.235 4.491v2.45c0 1.5.274 2.45.96 2.858a1.611 1.611 0 0 1-.686.679 2.041 2.041 0 0 1-.96.137 1.834 1.834 0 0 1-1.1-.408c.004-.134-.268-.406-.407-.814zm-.274-4.22a3.445 3.445 0 0 0-1.1-.136c-2.056 0-3.154.68-3.154 2.041 0 1.089.549 1.5 1.783 1.5a2.174 2.174 0 0 0 2.469-2.451zm13.166-.679a2.864 2.864 0 0 1 2.194 2.856 2.9 2.9 0 0 1-1.1 2.314 6.068 6.068 0 0 1-3.429.817h-5.208v-11.426c2.194-.136 3.84-.136 5.075-.136a4.684 4.684 0 0 1 3.017.817 2.9 2.9 0 0 1 1.1 2.313 2.287 2.287 0 0 1-.412 1.361 2.41 2.41 0 0 1-1.234 1.089zm-4.937-.818h2.194c1.234 0 1.783-.408 1.783-1.36a1.23 1.23 0 0 0-.411-.953 1.683 1.683 0 0 0-1.235-.408 11.224 11.224 0 0 0-2.331.136v2.587zm0 4.764h2.331c1.371 0 2.057-.544 2.057-1.5a1.1 1.1 0 0 0-.549-1.089 2.781 2.781 0 0 0-1.507-.408h-2.332zm12.068-5.171c.687 0 1.372-.137 2.058-.137a4.981 4.981 0 0 1 3.291.953 3.5 3.5 0 0 1 1.235 2.858q0 3.675-4.526 3.675h-4.663v-11.431h2.605v4.083zm0 5.171h1.784c.823 0 1.372-.136 1.646-.544a1.809 1.809 0 0 0-.138-2.45 2.473 2.473 0 0 0-1.508-.408h-1.783v3.4zm10.973 2.177h-2.743v-11.429h2.605v11.432zm10.285 0l-2.743-3.81-2.743 3.81h-3.156l4.389-5.853-4.114-5.579h3.154l2.605 3.4 2.606-3.4h3.017l-4.114 5.443 4.389 5.988zm-82.151 25.316h-2.742v-9.118h-4.527v9.118h-2.743v-11.431h10.012v11.432zm13.3-4.9h-8.226a2.947 2.947 0 0 0 .96 2.177 3.238 3.238 0 0 0 2.332.817 3.365 3.365 0 0 0 2.743-.953l1.1 2.042c-.96.816-2.332 1.089-4.252 1.089a5.615 5.615 0 0 1-4.114-1.5 6.8 6.8 0 0 1 .138-8.709 5.834 5.834 0 0 1 7.954-.136 5.321 5.321 0 0 1 1.509 3.81 5.57 5.57 0 0 1-.141 1.363zm-8.091-1.9h5.623a2.445 2.445 0 0 0-2.743-2.45q-2.466-.208-2.88 2.446zm13.166 6.532v4.764h-2.743v-15.927h2.743v.816a3.32 3.32 0 0 1 2.469-.953c3.7 0 5.486 2.041 5.486 5.988a6.22 6.22 0 0 1-1.508 4.355 5.848 5.848 0 0 1-4.114 1.5 4.543 4.543 0 0 1-2.332-.544zm0-8.3v5.988a2.772 2.772 0 0 0 1.783.544 3.062 3.062 0 0 0 2.605-.953 3.961 3.961 0 0 0 .823-2.857 4.446 4.446 0 0 0-.823-2.858 3.66 3.66 0 0 0-2.743-.817 3.466 3.466 0 0 0-1.642.943zm16.595 7.486a2.715 2.715 0 0 1-1.371.953 4.879 4.879 0 0 1-1.92.408 3.884 3.884 0 0 1-2.881-.953 3.475 3.475 0 0 1-1.1-2.587 4.057 4.057 0 0 1 1.508-3.129 6.327 6.327 0 0 1 4.252-1.225 3.437 3.437 0 0 1 1.1.136c0-1.36-.823-2.041-2.605-2.041a5.264 5.264 0 0 0-2.606.544l-.549-2.041a8.345 8.345 0 0 1 3.292-.68 5.193 5.193 0 0 1 3.84 1.224q1.234 1.225 1.235 4.491v2.45c0 1.5.274 2.45.959 2.858a1.6 1.6 0 0 1-.686.68 2.049 2.049 0 0 1-.959.136 1.836 1.836 0 0 1-1.1-.408c.005-.142-.27-.412-.406-.822zm-.274-4.219a3.416 3.416 0 0 0-1.1-.137c-2.056 0-3.154.681-3.154 2.041 0 1.089.549 1.5 1.783 1.5a2.174 2.174 0 0 0 2.468-2.45zm19.475 5.307h-2.743c-.549-3.266-.96-5.036-.96-5.443v-.817h-.137a4.608 4.608 0 0 1-.411 1.089l-2.743 5.307h-.96l-2.057-3.946-.96-1.906c-.137-.273-.137-.408-.274-.544h.138a10.236 10.236 0 0 1-.138 1.906l-.686 4.219h-2.605l2.194-11.705h.96l4.252 8.167 4.114-8.166h.96zm1.371-5.716a6.1 6.1 0 0 1 1.508-4.219 5.094 5.094 0 0 1 3.978-1.634 5.193 5.193 0 0 1 4.114 1.634 6.215 6.215 0 0 1 1.508 4.355 5.989 5.989 0 0 1-1.508 4.355 5.094 5.094 0 0 1-3.978 1.634 5.2 5.2 0 0 1-4.114-1.633 6.179 6.179 0 0 1-1.507-4.491zm2.743 0c0 2.586.96 3.81 2.743 3.81a2.081 2.081 0 0 0 1.92-.953 4.435 4.435 0 0 0 .686-2.857c0-2.45-.96-3.675-2.743-3.675a2.475 2.475 0 0 0-2.057.953 6.789 6.789 0 0 0-.546 2.716zm18.515-3.4h-5.349v9.118h-2.742v-11.439h7.955v2.313zm5.348 5.036h-1.1a56.1 56.1 0 0 1-.823-7.486v-4.355h2.743v4.355a56.139 56.139 0 0 1-.817 7.482zm-.549.817a1.34 1.34 0 0 1 1.235.544 2.434 2.434 0 0 1 .549 1.224 1.323 1.323 0 0 1-.549 1.225 2.05 2.05 0 0 1-1.234.544 1.343 1.343 0 0 1-1.235-.544 1.66 1.66 0 0 1-.549-1.225 1.322 1.322 0 0 1 .549-1.224 2.471 2.471 0 0 1 1.235-.544zm-163.777-86.921c7.685 17.144 46.791 11.932 64.217-.686 21.405-15.634 11.251-29.624-4.254-46.355-1.1-1.235-2.607-4.526.138-8.229 7.272-10.012 12.76-23.178-12.487-30.446-11.663-3.426-46.927-3.015-51.182 6.037-1.922 4.114-.824 6.721 2.469 9.051 6.176 4.252-5.625 55.545 1.099 70.628zm35.951-34.969c7.135 0 12.9 5.211 12.9 11.52s-5.764 11.521-12.9 11.521-12.9-5.212-12.9-11.521c.001-6.451 5.764-11.52 12.9-11.52zm-4.117-32.778c4.391 0 7.82 3.154 7.82 6.994s-3.567 6.994-7.82 6.994c-4.392 0-7.821-3.154-7.821-6.994-.138-3.84 3.43-6.994 7.821-6.994zm122.053-6.744c-4.6 18.413-2.089 61.284 12.4 75.025 3.761 3.573 9.472 2.2 8.915-2.473-2.786-22.26.7-45.207 6.964-60.6 2.089-5.222 1.393-8.794-.557-10.58-3.481-3.295-24.235-13.464-27.722-1.372zm114.37 13.71a178.048 178.048 0 0 0 .947 27.318c2.572 21.415 6.228 32.123 9.612 36.1s8.664 3.295 9.882-3.706a131.235 131.235 0 0 1 4.332-19.493c2.3-6.864 7.446-8.1 11.643-7 3.384.823 9.612 1.647 10.289 5.354 1.489 8.236-2.438 19.219-1.083 23.611s10.288 4.8 17.869 2.746c6.228-1.785 7.311-9.883 7.04-19.356-.677-18.257-1.354-42.419-7.446-58.617-2.842-7.276-8.258-4.942-9.746 1.785-.948 4.393-.407 12.9-2.708 19.905-4.332 13.041-21.525 6.041-22.472-2.059-.948-7.962.676-12.218 2.03-16.748s-1.354-6.864-6.228-7.276a70.4 70.4 0 0 0-12.861.275c-9.205.825-10.695 6.591-11.1 17.161zm73.36-11.131c0 5.846-.136 13.78 7.076 12.945 7.349-.836 13.2-4.176 12.928 6.124-.408 15.729-4.763 42.314-6.532 49-.953 3.619.68 6.96 7.485 7.656a114.644 114.644 0 0 0 14.7.556c5.579-.279 7.484-2.644 8.3-9.326 1.361-11.97-.408-39.809-2.041-54.006-.409-4.176.136-6.681 2.313-7.378 3.13-1.113 11.975-3.48 16.329-5.011 5.852-2.088 4.083-8.352-1.224-9.326-5.715-1.114-43-.14-50.486.557-4.765.553-8.848 1.11-8.848 8.209zm210.74-8.188s-27.376-3.72-35.372 2.617c-7.86 6.336-13.146 26.587-14.772 40.776s.135 32.236 7.589 37.746 30.494 7.853 39.574 6.888c8.945-.965 12.468-4.684 12.6-9.368.27-4.684.677-21.628-3.525-22.179-4.2-.413-14.229 6.475-23.852 4.546s-10.57-15.153-3.253-17.082 20.058-.964 21.143-5.923c.949-5.1-5.828-7.164-12.6-9.23s-12.2-7.439-9.894-12.673c2.168-5.236 11.113-3.582 22.226 2.066 6.234 3.166 17.483-15.984.136-18.184zm70.094 6.745c13.013 13.012 23.4 42.6 26.166 68.486 1.385 12.329-26.3 16.985-27.551 9.178-.831-5.343-2.63-12.739-7.476-16.985-4.708-4.109-19.245-4.246-22.151-.41-1.8 2.466-3.324 8.218-3.6 11.232-.691 8.355-16.751 12.191-17.859 4.931-2.493-18.494 7.06-61.093 17.307-74.79 8.582-10.958 25.472-11.231 35.164-1.644zm-21.044 13.695c-4.02-.14-9.277 11.095-10.52 20.82-.554 4.52-2.077 10.547 1.938 11.232 6.092 1.1 19.937 0 19.937-6.3-.003-8.629-6.375-25.614-11.355-25.752z"/>
        <path d="M1183.281 30.293s-24.462 1.382-38.809 19.763-7.927 43.812 6.014 54.454 31.021 9.536 42.637 5.943a31.441 31.441 0 0 0 12.846-8.016l3.964 6.634c3.28 5.528 7.653 3.593 7.378-2.488l-1.231-25.014a25.4 25.4 0 0 0 .274-5.39c-1.093-10.642-22.822-8.57-31.3-7.6s-13.667 5.806-8.2 8.569c5.466 2.9 6.014 6.219 1.23 9.536s-23.912 3.452-26.372-16.315c-3.14-27.084 36.76-25.011 53.435-10.638 6.286 3.179 8.746 1.8 10.387-4.007 1.366-6.081 2.733-27.365-32.252-25.429zM969.341 36.61c7.6-9.684 30.409-3.137 25.963 11.459a9.151 9.151 0 0 1-2.008 3.41 6.255 6.255 0 0 0 1.721-4.366c0-3.819-3.73-6.956-8.177-6.956-4.59 0-8.175 3.137-8.175 6.956s3.729 6.957 8.175 6.957c-13.625 2.183-24.811-8.321-17.499-17.46zM960.588 113.906c25.595 13.645 59.264-12.97 41.471-34.856a24.315 24.315 0 0 0-1.779-1.892 10.528 10.528 0 0 1 2.874 7.161c0 6.215-5.748 11.348-12.865 11.348s-12.866-5.133-12.866-11.347c0-5.949 5.338-10.943 11.908-11.349a17.7 17.7 0 0 0-3.7.27c-24.222 2.702-41.741 31.749-25.043 40.665zM1609.306 102.817c2.592 10.273 7.095 12.191 11.46 4.657 1.5-2.6 2.592-13.149 4.638-15.888 4.366-6.027 9.823-5.2 14.325-.274s16.507 14.519 21.964 17.258c9.55 4.794 20.6 3.151 12.415-5.342-4.911-5.068-14.052-18.9-15.689-24.107-2.319-7.533 1.228-10 6.276-13.971 5.867-4.52 11.187-11.506 5.32-19.587-7.774-10.82-26.874-18.22-40.38-19.039-9.686-.685-15.963 3.287-18.964 10.41-6.139 15.067-5.184 50.679-1.365 65.883zm24.016-49.584c4.23.823 9.96 4.658 9.277 8.493s-7.5 6.163-11.869 5.341c-4.229-.822-5.32-4.519-4.638-8.355s2.866-6.3 7.231-5.479zm-596.246 50.51c2.592 10.273 7.095 12.191 11.46 4.657 1.5-2.6 2.592-13.149 4.638-15.888 4.366-6.027 9.823-5.2 14.325-.274s16.507 14.519 21.964 17.258c9.55 4.794 20.6 3.151 12.415-5.342-4.911-5.068-14.052-18.9-15.689-24.107-2.319-7.533 1.228-10 6.276-13.971 5.867-4.52 11.187-11.506 5.32-19.587-7.776-10.821-26.876-18.217-40.382-19.039-9.686-.685-15.963 3.287-18.964 10.41-6.137 14.934-5.183 50.547-1.363 65.883zm24.011-49.58c4.23.823 9.96 4.658 9.277 8.493s-7.5 6.163-11.869 5.341c-4.229-.822-5.32-4.519-4.638-8.355s2.866-6.3 7.231-5.479zm320.708-16.213c11.206 18.248 21.859 23.364 25.18 34.561 4.427 14.93.415 40.09 10.514 43.408 12.037 3.871 31.407 5.391 26.287-9.124-1.522-4.424-7.056-31.519-3.874-41.887 4.012-13.271 26.286-30 23.8-38.983-.969-3.457-3.044-5.806-7.887-7.881s-7.609-.552-9.269 4.424c-1.8 4.977-15.772 24.745-20.753 24.607-4.012 0-14.389-12.856-16.187-18.386-1.937-5.391-2.215-8.294-8.993-7.05-6.92 1.382-23.107 9.261-18.818 16.311z"/>
        <path d="M1382.712 38.07a90.006 90.006 0 0 0 6.892 9.979c4.595 4.647 10.541 8.338 17.3 9.022 13.65 1.23 22.568-11.894 22.568-11.894-1.487 1.231-2.838 2.051-3.784 2.051-3.919 0-14.054-12.713-15.81-18.18-1.893-5.332-2.162-8.2-8.784-6.971-6.758 1.23-22.568 9.022-18.379 15.993zM1417.384 115.917c11.83 3.922 31.225 5.274 26.136-8.926-1.513-4.328-7.016-30.834-3.852-40.977a33.3 33.3 0 0 1 2.339-5.139s-25.311 31.24-24.623 55.042zM1697.655 91.177c5.034 1.864 8.3 8.885 4.9 17.2s-17.686 11.177-14.148 5.015c2.856-5.015-4.354-9.028-2.857-15.906.95-5.45 7.072-8.029 12.105-6.309zm-269.56-82.361a10.7 10.7 0 1 0 9.673 11.621 10.593 10.593 0 0 0-9.673-11.621zM1411.265.421a4.526 4.526 0 0 0-5.035 4.218 4.644 4.644 0 1 0 9.252.817 4.6 4.6 0 0 0-4.217-5.035zM1724.827 131.866c-34.771 1.377-54 35.69-42.816 64.629 10.635 27.421 47.724 31.418 68.178 13.641 18.135-15.847 15.818-36.655 10.09-48.506-9.681-19.982-36.134-24.391-41.589.413-1.227 5.787 2.045 4.961 6.545 5.237s11.044 2.343 11.591 11.575c.545 9.371-10.091 18.19-23.045 13.092-14.726-5.787-12.681-27.56-6-37.9s18-13.5 23.045-15.571 5.045-8.268-6-6.616zm50.5 11.4c-8.112 21.792-3.514 73.791 30.961 73.928 31.5 0 31.636-43.722 26.094-63.584-2.028-7.173-4.732-10.9-6.761-11.448-2.974-.828-10.816 2.345-10 6.9s9.734 28.689 7.436 42.481-12.3 12.827-17.307 5.655-6.625-30.068-5.543-42.068c.811-8.69 4.6-10.758-2.7-15.861a25.912 25.912 0 0 0-9.869-4.413c-7.444-1.938-10.012 2.338-12.311 8.406zm78.969 49.759c.409-17.644 8.3-35.7 13.2-44.8 6.122-11.165-14.014-21.917-19.186-13.784-9.388 14.749-7.891 47.143-1.36 58.033 3.128 5.096 7.209 8.266 7.346.547zm-7.985 8.352a11.165 11.165 0 1 1-11.165 11.165 11.147 11.147 0 0 1 11.164-11.169zm-681.055 18.35c6.645 15.137 42.639 12.8 60.221 0 21.6-15.824 15.92-30.549.277-47.337-1.107-1.238-2.63-4.541.139-8.256 7.337-10.045 12.875-23.256-12.6-30.549-11.767-3.44-47.346-3.028-51.776 6.055-1.938 4.128-.831 6.743 2.492 9.081 6.368 4.4-5.4 55.869 1.247 71.006zm36.271-35.089c7.2 0 13.013 5.229 13.013 11.559s-5.814 11.558-13.013 11.558-13.013-5.229-13.013-11.558c-.001-6.471 5.814-11.563 13.012-11.563zm-4.153-32.888c4.429 0 7.89 3.165 7.89 7.018s-3.6 7.017-7.89 7.017c-4.43 0-7.891-3.164-7.891-7.017-.139-3.853 3.461-7.018 7.89-7.018zm49.985 61.794c2.592 10.273 7.095 12.191 11.46 4.657 1.5-2.6 2.592-13.149 4.638-15.889 4.366-6.027 9.823-5.2 14.325-.274s16.507 14.519 21.964 17.258c9.55 4.794 20.6 3.151 12.415-5.342-4.911-5.068-14.052-18.9-15.689-24.107-2.319-7.533 1.228-10 6.276-13.971 5.866-4.52 11.187-11.506 5.32-19.587-7.776-10.821-26.876-18.217-40.382-19.039-9.686-.685-15.963 3.287-18.964 10.41-6.137 14.929-5.183 50.54-1.363 65.881zm24.011-49.721c4.23.823 9.96 4.658 9.277 8.492s-7.5 6.164-11.869 5.343c-4.229-.823-5.32-4.52-4.638-8.355s2.865-6.305 7.23-5.483zm45.443-21.6c-4.523 18.269-.685 60.124 13.707 73.894 3.7 3.545 9.32 2.182 8.772-2.454-2.741-22.087-1.919-41.31 4.249-56.444 2.056-5.181 1.371-8.725-.549-10.5-3.562-3.543-22.751-16.63-26.178-4.497zm75.82-3.067s-24.462 1.383-38.811 19.764-7.927 43.812 6.014 54.454 31.021 9.536 42.637 5.943a31.442 31.442 0 0 0 12.846-8.016l3.964 6.634c3.28 5.528 7.653 3.593 7.378-2.488l-1.229-25.015a25.4 25.4 0 0 0 .274-5.39c-1.093-10.643-22.822-8.57-31.295-7.6s-13.667 5.805-8.2 8.57c5.466 2.9 6.014 6.219 1.23 9.536s-23.916 3.455-26.239-16.309c-3.143-27.088 36.762-25.015 53.434-10.642 6.286 3.178 8.746 1.8 10.386-4.008 1.23-5.943 2.6-27.365-32.388-25.429zm39.77 16.561a178.049 178.049 0 0 0 .947 27.318c2.572 21.415 6.228 32.123 9.612 36.1s8.664 3.295 9.882-3.706a131.242 131.242 0 0 1 4.332-19.493c2.3-6.864 7.446-8.1 11.643-7 3.384.823 9.612 1.647 10.289 5.354 1.489 8.236-2.438 19.219-1.083 23.611s10.288 4.8 17.869 2.746c6.227-1.785 7.311-9.883 7.04-19.356-.677-18.257-1.354-42.419-7.446-58.617-2.843-7.276-8.258-4.942-9.747 1.785-.948 4.393-.407 12.9-2.708 19.905-4.332 13.041-21.525 6.041-22.472-2.059-.948-7.962.676-12.218 2.03-16.748s-1.354-6.864-6.228-7.276a70.4 70.4 0 0 0-12.861.275c-9.203.825-10.693 6.591-11.099 17.161zm72.43-11.128c0 5.846-.136 13.78 7.076 12.945 7.349-.836 13.2-4.176 12.928 6.124-.408 15.729-4.763 42.314-6.532 49-.953 3.619.68 6.96 7.485 7.656a114.644 114.644 0 0 0 14.7.556c5.579-.279 7.484-2.644 8.3-9.326 1.361-11.97-.408-39.809-2.041-54.006-.409-4.176.136-6.681 2.313-7.378 3.13-1.113 11.975-3.48 16.329-5.011 5.852-2.088 4.083-8.212-1.224-9.326-5.715-1.114-43-.14-50.486.557-4.629.55-8.717 1.246-8.848 8.209z"/>
        <path d="M1181.287 148.265c7.125-9.684 28.5-3.137 24.335 11.459a9.275 9.275 0 0 1-1.882 3.41 6.49 6.49 0 0 0 1.613-4.366c0-3.819-3.5-6.956-7.663-6.956-4.3 0-7.664 3.137-7.664 6.956s3.5 6.957 7.664 6.957c-12.773 2.183-23.126-8.321-16.4-17.46zM1171.801 225.56c25.6 13.645 59.264-12.97 41.471-34.856a24.307 24.307 0 0 0-1.779-1.892 10.528 10.528 0 0 1 2.874 7.161c0 6.215-5.748 11.348-12.865 11.348s-12.866-5.133-12.866-11.348c0-5.945 5.338-10.943 11.908-11.349a17.7 17.7 0 0 0-3.7.27c-24.222 2.703-41.741 31.615-25.043 40.666zM1606.035 146.814c11.207 18.248 21.859 23.364 25.18 34.561 4.427 14.93.415 40.09 10.514 43.408 12.037 3.871 31.407 5.391 26.287-9.124-1.522-4.424-7.056-31.519-3.873-41.887 4.012-13.271 26.286-30 23.8-38.983-.969-3.457-3.043-5.806-7.887-7.881s-7.609-.552-9.269 4.424c-1.8 4.977-15.772 24.745-20.753 24.607-4.012 0-14.389-12.856-16.187-18.386-1.937-5.391-2.214-8.294-8.993-7.05-6.922 1.243-23.109 9.261-18.819 16.311z"/>
        <path d="M1606.952 146.934a90 90 0 0 0 6.892 9.979c4.595 4.647 10.541 8.338 17.3 9.022 13.65 1.23 22.568-11.894 22.568-11.894-1.487 1.231-2.838 2.051-3.784 2.051-3.919 0-14.054-12.713-15.81-18.18-1.893-5.332-2.162-8.2-8.783-6.971-6.758 1.093-22.568 9.022-18.379 15.993zM1641.624 223.849c11.83 3.922 31.225 5.274 26.136-8.926-1.513-4.328-7.016-30.834-3.852-40.977a33.292 33.292 0 0 1 2.339-5.139s-25.311 31.24-24.623 55.042zM1651.417 116.749a10.7 10.7 0 1 0 9.684 11.621 10.708 10.708 0 0 0-9.684-11.621zM1635.505 107.423a4.644 4.644 0 1 0 4.218 5.035 4.526 4.526 0 0 0-4.218-5.035zM1124.474 21.061a10.678 10.678 0 1 1 14.932 2.344 10.533 10.533 0 0 1-14.932-2.345zM1107.478 19.837a4.634 4.634 0 1 1 6.465 1.077 4.585 4.585 0 0 1-6.465-1.077zM1346.145 117.886a10.726 10.726 0 1 1-15 2.069 10.768 10.768 0 0 1 15-2.069zM1357.825 132.489a4.678 4.678 0 1 1-6.547.955 4.739 4.739 0 0 1 6.547-.955z"/>
    </g>
</svg>
