<?xml version="1.0" encoding="utf-8"?>
<!-- Generator: Adobe Illustrator 22.0.1, SVG Export Plug-In . SVG Version: 6.00 Build 0)  -->
<svg version="1.1" id="Layer_1" xmlns="http://www.w3.org/2000/svg" xmlns:xlink="http://www.w3.org/1999/xlink" x="0px" y="0px"
	 viewBox="0 0 323.4 101" style="enable-background:new 0 0 323.4 101;" xml:space="preserve">
<style type="text/css">
	.st0{fill:#FF723A;}
	.st1{font-family:'CenturyGothic';}
	.st2{font-size:108.3205px;}
	.st3{fill:#FF723A;stroke:#FF723A;stroke-width:0.75;stroke-miterlimit:10;}
</style>
<text transform="matrix(0.7963 0 0 1 116.584 75.5347)" class="st0 st1 st2">map</text>
<g>
	<g>
		<g>
			<path class="st3" d="M101.7,14.8h-15c1.7,1.2,3.2,2.5,4.7,3.9h10.3c1.6,0,2.9,1.4,2.9,3.1v49.3c0,1.2-0.9,2.2-2.1,2.2H91.4
				c-1.5,1.5-3,2.8-4.7,3.9h15.8c3.2,0,5.8-2.8,5.8-6.2V21.8C108.2,17.9,105.3,14.8,101.7,14.8z"/>
		</g>
	</g>
	<g>
		<g>
			<path class="st3" d="M26.8,73.4v1.9c0,1.1-0.8,2-1.8,2s-1.8-0.9-1.8-2v-1.9h-3.5c-1.2,0-2.1-1-2.1-2.2V21.8
				c0-1.7,1.3-3.1,2.9-3.1h23.3c1.5-1.5,3-2.8,4.7-3.9h-7.8v1.9c0,1.1-0.8,2-1.8,2H23.3c-1,0-1.8-0.9-1.8-2v-1.9h-1.1
				c-3.6,0-6.6,3.2-6.6,7v49.3c0,3.4,2.6,6.2,5.8,6.2h28.8c-1.7-1.2-3.2-2.5-4.7-3.9H26.8z"/>
		</g>
	</g>
	<g>
		<g>
			<path class="st3" d="M91.4,18.7c-1.5-1.5-3-2.8-4.7-3.9c-5.5-3.9-12.1-6.1-19.2-6.1s-13.7,2.3-19.2,6.1c-1.7,1.2-3.2,2.5-4.7,3.9
				C36.8,25.5,32.5,35.3,32.5,46s4.3,20.5,11.1,27.3c1.5,1.5,3,2.8,4.7,3.9c5.5,3.9,12.1,6.1,19.2,6.1s13.7-2.3,19.2-6.1
				c1.7-1.2,3.2-2.5,4.7-3.9c6.8-6.8,11.1-16.5,11.1-27.3S98.2,25.5,91.4,18.7z M67.5,79.5c-17.3,0-31.3-15-31.3-33.5
				s14-33.5,31.3-33.5s31.3,15,31.3,33.5S84.8,79.5,67.5,79.5z"/>
		</g>
	</g>
	<g>
		<g>
			<path class="st3" d="M87.8,27.8c-0.7-0.8-1.8-0.9-2.6-0.2c0,0,0,0-0.1,0.1c-0.7,0.7-0.8,1.9-0.2,2.7c3.4,4.4,5.3,9.9,5.3,15.7
				c0,13.4-10.2,24.4-22.8,24.4S44.7,59.5,44.7,46s10.2-24.4,22.8-24.4c1.5,0,3,0.2,4.5,0.5c1,0.2,1.9-0.4,2.2-1.5c0,0,0,0,0-0.1
				c0.2-1.1-0.4-2.1-1.4-2.3c-1.7-0.4-3.5-0.5-5.2-0.5C52.9,17.7,41,30.4,41,46c0,15.6,11.9,28.3,26.5,28.3S94,61.7,94,46
				C94,39.4,91.8,32.9,87.8,27.8z"/>
		</g>
	</g>
	<g>
		<g>
			<path class="st3" d="M24.9,55.4c-1,0-1.8,0.9-1.8,2v16v1.9c0,1.1,0.8,2,1.8,2c1,0,1.8-0.9,1.8-2v-1.9v-16
				C26.8,56.3,25.9,55.4,24.9,55.4z"/>
		</g>
	</g>
	<g>
		<g>
			<path class="st3" d="M36.7,5.2H25.3c-2.1,0-3.8,1.8-3.8,4.1v5.4v1.9c0,1.1,0.8,2,1.8,2h15.4c1,0,1.8-0.9,1.8-2v-1.9V9.3
				C40.5,7.1,38.8,5.2,36.7,5.2z M36.8,14.7H25.1V9.3c0-0.1,0.1-0.2,0.2-0.2h11.4c0.1,0,0.2,0.1,0.2,0.2V14.7z"/>
		</g>
	</g>
	<g>
		<g>
			<path class="st3" d="M81.9,22.3L81.9,22.3c-0.8-0.8-2-0.8-2.7,0c-0.1,0.1-0.2,0.3-0.3,0.4c-0.4,0.8-0.3,1.8,0.3,2.4l0.1,0.1
				c0.4,0.4,0.8,0.5,1.3,0.5c0.5,0,1-0.2,1.3-0.6c0.1-0.1,0.1-0.2,0.2-0.2C82.6,24,82.5,23,81.9,22.3z"/>
		</g>
	</g>
	<g>
		<g>
			<path class="st3" d="M26.7,49.1c0-0.1-0.1-0.3-0.1-0.4s-0.1-0.2-0.2-0.3c-0.1-0.1-0.1-0.2-0.2-0.3c-0.1-0.1-0.2-0.2-0.3-0.2
				c-0.1-0.1-0.2-0.1-0.3-0.2c-0.1,0-0.2-0.1-0.3-0.1c-0.2-0.1-0.5-0.1-0.7,0c-0.1,0-0.2,0.1-0.3,0.1c-0.1,0-0.2,0.1-0.3,0.2
				c-0.1,0.1-0.2,0.2-0.3,0.2c-0.1,0.1-0.2,0.2-0.2,0.3c-0.1,0.1-0.1,0.2-0.2,0.3s-0.1,0.2-0.1,0.4c0,0.1,0,0.3,0,0.4
				c0,0.1,0,0.3,0,0.4c0,0.1,0.1,0.3,0.1,0.4s0.1,0.2,0.2,0.3c0.1,0.1,0.1,0.2,0.2,0.3s0.2,0.2,0.3,0.2c0.1,0.1,0.2,0.1,0.3,0.2
				c0.1,0,0.2,0.1,0.3,0.1c0.1,0,0.2,0,0.4,0c0.1,0,0.2,0,0.4,0c0.1,0,0.2-0.1,0.3-0.1c0.1,0,0.2-0.1,0.3-0.2
				c0.1-0.1,0.2-0.2,0.3-0.2s0.2-0.2,0.2-0.3c0.1-0.1,0.1-0.2,0.2-0.3s0.1-0.2,0.1-0.4c0-0.1,0-0.3,0-0.4
				C26.8,49.4,26.7,49.2,26.7,49.1z"/>
		</g>
	</g>
</g>
</svg>
