<svg xmlns="http://www.w3.org/2000/svg" width="49.321" height="36.08" viewBox="0 0 49.321 36.08"><path d="M76.079,76.9l-5.04-.739v3.731l5.661-.683Zm0,0" transform="translate(-64.196 -68.824)" fill="#8d9ca8"/><path d="M44.965,40.219h1.752v3.819H44.965Zm0,0" transform="translate(-40.633 -36.344)" fill="#8d9ca8"/><path d="M54.059,40.219h.876v3.819h-.876Zm0,0" transform="translate(-48.851 -36.344)" fill="#7a8c98"/><path d="M23.617,121.531H22.384L20.49,145.419a.449.449,0,0,0,.891.1l3.759-23.994Zm0,0" transform="translate(-18.515 -109.824)" fill="#8d9ca8"/><path d="M28.062,121.531,24.3,145.524a.449.449,0,0,1-.443.379h-.137l3.08-24.373Zm0,0" transform="translate(-21.437 -109.823)" fill="#7a8c98"/><path d="M33.543,76.85a2.187,2.187,0,0,1-2.187-2.187v-3.9a.482.482,0,0,1,.482-.482h3.41a.482.482,0,0,1,.482.482v3.9A2.187,2.187,0,0,1,33.543,76.85Zm0,0" transform="translate(-28.335 -63.511)" fill="#0396fd"/><path d="M48.579,70.763v3.9a2.187,2.187,0,0,1-2.187,2.187,2.154,2.154,0,0,1-.817-.159,2.185,2.185,0,0,0,1.369-2.028v-3.9a.482.482,0,0,0-.482-.482H48.1a.482.482,0,0,1,.482.482Zm0,0" transform="translate(-41.184 -63.511)" fill="#0077f0"/><path d="M102.495,82.55l-2.556.341-.356-3.032,2.351.382Zm0,0" transform="translate(-89.99 -72.166)" fill="#7a8c98"/><path d="M40.352,12.932A1.635,1.635,0,1,1,38.717,11.3,1.635,1.635,0,0,1,40.352,12.932Zm0,0" transform="translate(-33.51 -10.209)" fill="#0396fd"/><path d="M41.807,13.892a1.636,1.636,0,0,1-3.116.7,1.637,1.637,0,0,0,2.052-2.23,1.637,1.637,0,0,1,1.064,1.533Zm0,0" transform="translate(-34.964 -11.169)" fill="#0077f0"/><path d="M1.813,22.215H.723a.723.723,0,0,1,0-1.446h1.09a.723.723,0,0,1,0,1.446Zm0,0" transform="translate(0 -18.769)" fill="#596c76"/><path d="M83.6,22.215h-1.09a.723.723,0,1,1,0-1.446H83.6a.723.723,0,0,1,0,1.446Zm0,0" transform="translate(-73.91 -18.769)" fill="#596c76"/><path d="M382.817,76.9l5.04-.739v3.731l-5.661-.683Zm0,0" transform="translate(-345.378 -68.824)" fill="#8d9ca8"/><path d="M382.188,82.55l2.832.341.395-3.032-2.6.382Zm0,0" transform="translate(-345.371 -72.166)" fill="#7a8c98"/><path d="M450.6,43.681h-1.752V40.219H450.6Zm0,0" transform="translate(-405.61 -36.344)" fill="#8d9ca8"/><path d="M458.817,43.681h-.876V40.219h.876Zm0,0" transform="translate(-413.827 -36.344)" fill="#7a8c98"/><path d="M444.752,121.531h1.233l1.894,23.889a.449.449,0,0,1-.891.1l-3.758-23.994Zm0,0" transform="translate(-400.534 -109.824)" fill="#8d9ca8"/><path d="M460.915,145.42a.448.448,0,0,1-.447.485.433.433,0,0,1-.173-.036.45.45,0,0,0,.273-.449l-2.913-23.888h1.366Zm0,0" transform="translate(-413.57 -109.825)" fill="#7a8c98"/><path d="M437.425,76.85a2.187,2.187,0,0,0,2.187-2.187v-3.9a.482.482,0,0,0-.482-.482h-3.41a.482.482,0,0,0-.482.482v3.9A2.187,2.187,0,0,0,437.425,76.85Zm0,0" transform="translate(-393.311 -63.511)" fill="#0396fd"/><path d="M452.462,70.763v3.9a2.187,2.187,0,0,1-2.187,2.187,2.156,2.156,0,0,1-.817-.159,2.186,2.186,0,0,0,1.369-2.028v-3.9a.482.482,0,0,0-.482-.482h1.636a.482.482,0,0,1,.482.482Zm0,0" transform="translate(-406.161 -63.511)" fill="#0077f0"/><path d="M444.236,12.932A1.635,1.635,0,1,1,442.6,11.3,1.636,1.636,0,0,1,444.236,12.932Zm0,0" transform="translate(-398.486 -10.209)" fill="#0396fd"/><path d="M445.686,13.361a1.636,1.636,0,0,1-3.116.7,1.636,1.636,0,0,0,2.052-2.23,1.636,1.636,0,0,1,1.064,1.533Zm0,0" transform="translate(-399.937 -10.689)" fill="#0077f0"/><path d="M487.489,22.215H486.4a.723.723,0,1,1,0-1.446h1.09a.723.723,0,1,1,0,1.446Zm0,0" transform="translate(-438.89 -18.769)" fill="#596c76"/><path d="M405.7,22.215h-1.09a.723.723,0,1,1,0-1.446h1.09a.723.723,0,1,1,0,1.446Zm0,0" transform="translate(-364.976 -18.769)" fill="#596c76"/><path d="M223.242,137.164h6.346v6.187h-6.346Zm0,0" transform="translate(-201.737 -123.951)" fill="#d9e7ec"/><path d="M271.957,137.164h1.653v6.187h-1.653Zm0,0" transform="translate(-245.759 -123.951)" fill="#c5d3dd"/><path d="M145.086,6.565a16.666,16.666,0,0,0-26.512,0Zm0,0" transform="translate(-107.152)" fill="#9ae7fd"/><path d="M253.639,6.568h-2.493C248.413,3,243.422.559,238.7.088A16.26,16.26,0,0,1,240.36,0a16.685,16.685,0,0,1,13.279,6.564Zm0,0" transform="translate(-215.705 -0.004)" fill="#64dcfc"/><path d="M160.606,118.485H138.827a.46.46,0,0,1-.46-.46v-3.138h22.7v3.138a.46.46,0,0,1-.46.46Zm0,0" transform="translate(-125.038 -103.819)" fill="#8d9ca8"/><path d="M354.613,113.238v3.3a.46.46,0,0,1-.459.46h-1.607a.459.459,0,0,0,.459-.46v-3.3Zm0,0" transform="translate(-318.586 -102.33)" fill="#7a8c98"/><path d="M110.278,61.344l1.133,5.215a.339.339,0,0,0,.331.267H136.91a.338.338,0,0,0,.33-.267l1.133-5.215a.338.338,0,0,0-.331-.41H110.608a.338.338,0,0,0-.331.41Zm0,0" transform="translate(-99.647 -55.064)" fill="#0396fd"/><path d="M373.342,61.347l-1.132,5.214a.339.339,0,0,1-.331.267h-1.592a.338.338,0,0,0,.331-.267l1.132-5.214a.337.337,0,0,0-.33-.41h1.593A.337.337,0,0,1,373.342,61.347Zm0,0" transform="translate(-334.616 -55.067)" fill="#0077f0"/><path d="M215.839,192.1h-9.628v-2.815a1.026,1.026,0,0,1,1.026-1.026h7.576a1.026,1.026,0,0,1,1.026,1.026V192.1Zm0,0" transform="translate(-186.346 -170.126)" fill="#596c76"/><path d="M283.419,189.284V192.1h-1.4v-2.814A1.026,1.026,0,0,0,281,188.258h1.4A1.026,1.026,0,0,1,283.419,189.284Zm0,0" transform="translate(-253.927 -170.123)" fill="#465a61"/><path d="M168.581,232.741H150.669a1.336,1.336,0,0,1-1.337-1.337V219.845a1.337,1.337,0,0,1,1.337-1.337h17.913a1.337,1.337,0,0,1,1.337,1.337V231.4A1.337,1.337,0,0,1,168.581,232.741Zm0,0" transform="translate(-134.947 -197.459)" fill="#8d9ca8"/><path d="M332.395,219.842V231.4a1.337,1.337,0,0,1-1.337,1.337h-1.929a1.337,1.337,0,0,0,1.337-1.337V219.842a1.337,1.337,0,0,0-1.337-1.337h1.929A1.337,1.337,0,0,1,332.395,219.842Zm0,0" transform="translate(-297.423 -197.456)" fill="#7a8c98"/><path d="M170.9,239.306h-1.154a1,1,0,0,1-1-1v-.076a1,1,0,0,1,1-1H170.9a1,1,0,0,1,1,1v.076A1,1,0,0,1,170.9,239.306Zm0,0" transform="translate(-152.487 -214.37)" fill="#f7c22c"/><path d="M182.54,238.223v.076a1,1,0,0,1-1,1h-1.024a1,1,0,0,0,1-1v-.076a1,1,0,0,0-1-1h1.024A1,1,0,0,1,182.54,238.223Zm0,0" transform="translate(-163.122 -214.368)" fill="#eeb900"/><path d="M216.983,251.458a4.677,4.677,0,1,1-4.677-4.677A4.677,4.677,0,0,1,216.983,251.458Zm0,0" transform="translate(-187.628 -223.009)" fill="#d9e7ec"/><path d="M233.655,256.637a4.678,4.678,0,0,1-7.577,3.67,4.678,4.678,0,0,0,5.106-7.8A4.676,4.676,0,0,1,233.655,256.637Zm0,0" transform="translate(-204.299 -228.187)" fill="#c5d3dd"/><path d="M236.933,273.789a2.3,2.3,0,1,1-2.3-2.3A2.3,2.3,0,0,1,236.933,273.789Zm0,0" transform="translate(-209.958 -245.339)" fill="#0055ca"/><path d="M239.263,276a2.3,2.3,0,0,1-4.345,1.04,2.3,2.3,0,0,0,3.062-3.1A2.3,2.3,0,0,1,239.263,276Zm0,0" transform="translate(-212.288 -247.549)" fill="#00429c"/><path d="M250.9,266.911a1.438,1.438,0,1,1-1.439-1.438A1.438,1.438,0,0,1,250.9,266.911Zm0,0" transform="translate(-224.135 -239.899)" fill="#d9e7ec"/><path d="M252.864,267.786a1.438,1.438,0,0,1-2.668.746,1.413,1.413,0,0,0,.511.094,1.439,1.439,0,0,0,1.439-1.439,1.423,1.423,0,0,0-.21-.747A1.438,1.438,0,0,1,252.864,267.786Zm0,0" transform="translate(-226.094 -240.775)" fill="#c5d3dd"/></svg>