<svg xmlns="http://www.w3.org/2000/svg" width="12.051" height="36" viewBox="0 0 12.051 36"><g transform="translate(0 -16)"><path d="M10.858,29.236A6.062,6.062,0,0,1,9.7,26.529L8.513,18.954a.742.742,0,0,0,.526-.7v-1.5A.752.752,0,0,0,8.285,16H3.766a.752.752,0,0,0-.753.75v1.5a.742.742,0,0,0,.526.7L2.355,26.529a6.063,6.063,0,0,1-1.162,2.707A5.9,5.9,0,0,0,0,32.8v18A1.2,1.2,0,0,0,1.205,52h9.641a1.2,1.2,0,0,0,1.205-1.2v-18A5.9,5.9,0,0,0,10.858,29.236Z" transform="translate(0)" fill="#753918"/><path d="M0,272v10.846a1.205,1.205,0,0,0,1.205,1.205h9.641a1.205,1.205,0,0,0,1.205-1.205V272Z" transform="translate(0 -232.051)" fill="#4f291b"/><rect width="9.038" height="13.558" transform="translate(1.506 33.923)" fill="#fff"/><path d="M0,9.038V7.532H6.026V9.038ZM0,6.026V4.519H6.026V6.026ZM1.506,1.506A1.506,1.506,0,1,1,3.013,3.013,1.506,1.506,0,0,1,1.506,1.506Z" transform="translate(3.013 35.472)" fill="#ababab"/></g></svg>