<svg xmlns="http://www.w3.org/2000/svg" width="36.273" height="36.273" viewBox="0 0 36.273 36.273"><path d="M36.273,18.136A18.136,18.136,0,1,1,18.136,0,18.136,18.136,0,0,1,36.273,18.136Zm0,0" fill="#ff8086"/><path d="M109.164,26.477A18.138,18.138,0,0,1,89.316,56.5a18.137,18.137,0,1,0,19.847-30.025Zm0,0" transform="translate(-82.989 -24.601)" fill="#e5646e"/><path d="M65.315,49.575A15.739,15.739,0,1,1,49.575,33.836,15.739,15.739,0,0,1,65.315,49.575Zm0,0" transform="translate(-31.439 -31.439)" fill="#fff"/><path d="M239.824,140.852A18.146,18.146,0,0,1,224.1,164.587a15.745,15.745,0,0,0,18-15.577,15.666,15.666,0,0,0-2.276-8.158Zm0,0" transform="translate(-208.225 -130.873)" fill="#eceaec"/><path d="M191.228,189.788a5.346,5.346,0,1,1-5.346-5.346A5.346,5.346,0,0,1,191.228,189.788Zm0,0" transform="translate(-167.745 -171.374)" fill="#ffe07e"/><path d="M115.3,109.64a6.48,6.48,0,0,0-5.6-6.419,6.482,6.482,0,0,0-3.687-8.139.05.05,0,0,0-.042.09,4.933,4.933,0,1,1-4.78,0,.05.05,0,0,0-.043-.09,6.479,6.479,0,0,0-3.626,8.3,6.481,6.481,0,0,0-4.936,8.924.05.05,0,0,0,.094-.034,4.932,4.932,0,1,1,3.38,3.38.05.05,0,0,0-.034.094,6.482,6.482,0,0,0,7.717-2.088,6.478,6.478,0,0,0,7.605,1.945.05.05,0,0,0-.034-.094,4.931,4.931,0,1,1,3.38-3.38.05.05,0,0,0,.094.034,6.444,6.444,0,0,0,.513-2.527Zm0,0" transform="translate(-85.548 -88.342)" fill="#4b3f4e"/><path d="M249.318,253.438a.552.552,0,1,1-.552-.552A.552.552,0,0,1,249.318,253.438Zm0,0" transform="translate(-230.63 -234.971)" fill="#fff"/></svg>