<svg xmlns="http://www.w3.org/2000/svg" width="40.07" height="36" viewBox="0 0 40.07 36"><g transform="translate(0 -26)"><path d="M67.266,29.667H58.72V26.313A.313.313,0,0,1,59.033,26h7.92a.313.313,0,0,1,.313.313v3.355Z" transform="translate(-54.125)" fill="#63d4db"/><path d="M137.014,26v3.667h2.419V26.313A.313.313,0,0,0,139.12,26Z" transform="translate(-126.291)" fill="#47b8c4"/><path d="M352.626,29.667H344.08V26.313a.313.313,0,0,1,.313-.313h7.92a.313.313,0,0,1,.313.313v3.355Z" transform="translate(-317.152)" fill="#63d4db"/><path d="M422.374,26v3.667h2.419V26.313A.313.313,0,0,0,424.48,26Z" transform="translate(-389.319)" fill="#47b8c4"/><rect width="34.587" height="25.381" transform="translate(2.741 34.853)" fill="#ff4747"/><rect width="2.419" height="25.381" transform="translate(34.91 34.853)" fill="#ed4242"/><path d="M39.586,64.362H.483A.484.484,0,0,1,0,63.878V57.355a.483.483,0,0,1,.483-.483h39.1a.483.483,0,0,1,.483.483v6.523A.484.484,0,0,1,39.586,64.362Z" transform="translate(0 -28.456)" fill="#e8e5d8"/><path d="M477.333,56.872h-2.419a.483.483,0,0,1,.484.483v6.524a.483.483,0,0,1-.484.483h2.419a.483.483,0,0,0,.484-.483V57.355A.483.483,0,0,0,477.333,56.872Z" transform="translate(-437.747 -28.456)" fill="#ded9c6"/><rect width="40.07" height="2.416" transform="translate(0 30.953)" fill="#ff4747"/><rect width="2.419" height="2.416" transform="translate(37.651 30.953)" fill="#ed4242"/><path d="M421.9,217.253h-4.363a.313.313,0,0,1-.313-.313v-1.79a.313.313,0,0,1,.313-.313H421.9Z" transform="translate(-384.571 -174.058)" fill="#e8e5d8"/><path d="M421.9,288.26h-4.363a.313.313,0,0,1-.313-.313v-1.79a.313.313,0,0,1,.313-.313H421.9Z" transform="translate(-384.571 -239.508)" fill="#e8e5d8"/><path d="M421.9,359.266h-4.363a.313.313,0,0,1-.313-.313v-1.79a.313.313,0,0,1,.313-.313H421.9Z" transform="translate(-384.571 -304.957)" fill="#e8e5d8"/><rect width="2.419" height="2.416" transform="translate(34.91 40.779)" fill="#ded9c6"/><rect width="2.419" height="2.416" transform="translate(34.91 46.336)" fill="#ded9c6"/><rect width="2.419" height="2.416" transform="translate(34.91 51.893)" fill="#ded9c6"/><path d="M39.39,217.253H35.027v-2.416H39.39a.313.313,0,0,1,.313.313v1.79A.313.313,0,0,1,39.39,217.253Z" transform="translate(-32.286 -174.058)" fill="#e8e5d8"/><path d="M39.39,288.26H35.027v-2.416H39.39a.313.313,0,0,1,.313.313v1.79A.313.313,0,0,1,39.39,288.26Z" transform="translate(-32.286 -239.508)" fill="#e8e5d8"/><path d="M39.39,359.266H35.027V356.85H39.39a.313.313,0,0,1,.313.313v1.79A.313.313,0,0,1,39.39,359.266Z" transform="translate(-32.286 -304.957)" fill="#e8e5d8"/><path d="M210.63,243.619a3.852,3.852,0,1,0,3.852,3.852A3.857,3.857,0,0,0,210.63,243.619Zm0,6.53a2.678,2.678,0,1,1,2.678-2.678A2.681,2.681,0,0,1,210.63,250.149Z" transform="translate(-190.595 -200.588)" fill="#ffa000"/><path d="M180.505,219.2a3.849,3.849,0,0,0-4.44-3.279,3.848,3.848,0,0,0,.326-5.035.587.587,0,0,0-.934.711,2.65,2.65,0,0,1,.545,1.62,2.678,2.678,0,1,1-5.357,0,2.65,2.65,0,0,1,.545-1.62.587.587,0,1,0-.934-.711,3.847,3.847,0,0,0,.3,5.008,3.848,3.848,0,0,0-4.248,3.3.587.587,0,1,0,1.163.157,2.651,2.651,0,0,1,.76-1.531,2.678,2.678,0,1,1,3.788,3.788,2.65,2.65,0,0,1-1.531.76.587.587,0,0,0,.078,1.169.593.593,0,0,0,.079-.005,3.846,3.846,0,0,0,2.76-1.8,3.846,3.846,0,0,0,2.76,1.8.593.593,0,0,0,.079.005.587.587,0,0,0,.078-1.169,2.65,2.65,0,0,1-1.531-.76,2.678,2.678,0,1,1,3.788-3.788,2.651,2.651,0,0,1,.76,1.531.587.587,0,0,0,1.164-.157Zm-6.563-2.18a3.845,3.845,0,0,0-.534.682,3.847,3.847,0,0,0-.51-.656,3.8,3.8,0,0,0,1.044-.026Z" transform="translate(-153.29 -170.202)" fill="#ffc71f"/><path d="M59.308,452.8H23.492a.313.313,0,0,1-.313-.313v-2.193a.313.313,0,0,1,.313-.313H59.308a.313.313,0,0,1,.313.313v2.193A.313.313,0,0,1,59.308,452.8Z" transform="translate(-21.365 -390.801)" fill="#63d4db"/><path d="M457.915,449.982V452.8h2.106a.313.313,0,0,0,.313-.313v-2.193a.313.313,0,0,0-.313-.313Z" transform="translate(-422.078 -390.801)" fill="#47b8c4"/></g></svg>