<svg xmlns="http://www.w3.org/2000/svg" width="43.926" height="36.304" viewBox="0 0 43.926 36.304"><path d="M46.406,69.421V63.144a.963.963,0,0,0-.963-.962H42.237a.963.963,0,0,0-.963.962v6.276" transform="translate(-37.733 -60.658)" fill="#e5e9ea"/><path d="M43.6,69.421V62.182H42.237a.963.963,0,0,0-.963.962v6.276" transform="translate(-37.733 -60.658)" fill="#d1d1d1"/><path d="M43.926,54.326V77.808a2.915,2.915,0,0,1-2.915,2.915H2.915A2.915,2.915,0,0,1,0,77.808V54.326A2.915,2.915,0,0,1,2.915,51.41H8.68a2.916,2.916,0,0,0,2.755-1.96L12.5,46.38a2.916,2.916,0,0,1,2.755-1.961H32.259a2.915,2.915,0,0,1,2.754,1.961l1.065,3.071a2.914,2.914,0,0,0,2.754,1.96H41.01A2.915,2.915,0,0,1,43.926,54.326Z" transform="translate(0 -44.419)" fill="#fcb65f"/><g transform="translate(0 0)"><path d="M5.2,155.223H2.915A2.915,2.915,0,0,1,0,152.308V128.825a2.915,2.915,0,0,1,2.915-2.915h2.1v.005a2.916,2.916,0,0,0-2.734,2.91v23.482A2.915,2.915,0,0,0,5.2,155.223Z" transform="translate(0 -118.919)" fill="#e29a4b"/><path d="M113.544,44.419a2.916,2.916,0,0,0-2.755,1.961l-1.064,3.071a2.916,2.916,0,0,1-2.755,1.96h-1.956v-.019a2.915,2.915,0,0,0,2.425-1.941L108.5,46.38a2.916,2.916,0,0,1,2.755-1.961Z" transform="translate(-96.005 -44.419)" fill="#e29a4b"/></g><path d="M43.926,218.384v18.464a2.915,2.915,0,0,1-2.915,2.915H2.915A2.915,2.915,0,0,1,0,236.848V218.384Z" transform="translate(0 -203.459)" fill="#53bce9"/><path d="M5.2,239.763H2.915A2.915,2.915,0,0,1,0,236.848V218.384H2.286v18.464A2.915,2.915,0,0,0,5.2,239.763Z" transform="translate(0 -203.459)" fill="#36a6ce"/><ellipse cx="12.146" cy="12.146" rx="12.146" ry="12.146" transform="translate(9.817 9.278)" fill="#e5e9ea"/><path d="M173.066,202.625a8.589,8.589,0,1,1-2.833-6.374A8.567,8.567,0,0,1,173.066,202.625Z" transform="translate(-142.515 -181.201)" fill="#566368"/><g transform="translate(13.375 12.836)"><path d="M257.287,196.555a8.566,8.566,0,0,1,2.5,6.511,8.588,8.588,0,0,1-9.014-9.014A8.564,8.564,0,0,1,257.287,196.555Z" transform="translate(-242.627 -194.04)" fill="#6f7b7f"/><path d="M162.417,291.424a8.567,8.567,0,0,1,2.5,6.511,8.586,8.586,0,0,1-9.014-9.014A8.563,8.563,0,0,1,162.417,291.424Z" transform="translate(-155.896 -280.77)" fill="#6f7b7f"/></g><g transform="translate(12.702 12.164)"><path d="M157.316,204.719a9.261,9.261,0,1,1,9.261-9.261A9.271,9.271,0,0,1,157.316,204.719Zm0-17.177a7.916,7.916,0,1,0,7.916,7.916A7.925,7.925,0,0,0,157.316,187.543Z" transform="translate(-148.055 -186.198)" fill="#435054"/><path d="M219.26,253.955a3.448,3.448,0,1,0,3.448,3.448A3.452,3.452,0,0,0,219.26,253.955Z" transform="translate(-209.999 -248.142)" fill="#435054"/></g><path d="M293.455,76.525h5.283A1.258,1.258,0,0,0,300,75.268V73.884a1.258,1.258,0,0,0-1.258-1.258h-5.283a1.258,1.258,0,0,0-1.258,1.258v1.384A1.258,1.258,0,0,0,293.455,76.525Z" transform="translate(-267.129 -70.206)" fill="#e5e9ea"/><path d="M291.573,70.034H286.29a1.932,1.932,0,0,1-1.93-1.93V66.72a1.932,1.932,0,0,1,1.93-1.93h5.283a1.932,1.932,0,0,1,1.93,1.93V68.1A1.932,1.932,0,0,1,291.573,70.034Zm-5.283-3.9a.586.586,0,0,0-.585.585V68.1a.586.586,0,0,0,.585.585h5.283a.586.586,0,0,0,.585-.585V66.72a.586.586,0,0,0-.585-.585Z" transform="translate(-259.964 -63.042)" fill="#e29a4b"/><ellipse cx="2.431" cy="2.431" rx="2.431" ry="2.431" transform="translate(5.919 28.953)" fill="#566368"/></svg>