<svg xmlns="http://www.w3.org/2000/svg" width="34.967" height="36.315" viewBox="0 0 34.967 36.315"><path d="M42.606,5.1c-.236-.3-.44-.563-.546-.714-.445-.636-1.906-.931-2.853-1.058V.533A.533.533,0,0,0,38.58.008,6.166,6.166,0,0,0,34.057,3.8a5.849,5.849,0,0,0-3.094,4.064c-.1.422-.184.886-.271,1.377-.551,3.093-1.305,7.33-8.05,10.158-4.616,1.936-6.187,6.6-5.783,10.49a6.889,6.889,0,0,1-3.869-5.4c-.5-3.2.24-5.658,2.186-7.307a8.114,8.114,0,0,1,3.215-1.625,1.68,1.68,0,0,0-.62-3.3,11.354,11.354,0,0,0-4.678,2.289C11.082,16.2,8.855,19.372,9.668,24.994a12.642,12.642,0,0,0,3.534,7.13,9.948,9.948,0,0,0,5.958,2.98,4.311,4.311,0,0,0,2.968,1.211H34.1a.533.533,0,0,0,.531-.5,3.622,3.622,0,0,0-.874-2.505,3.357,3.357,0,0,0-2.36-1,4.462,4.462,0,0,0,2.279-2.74l1.875,5.3a2.164,2.164,0,0,0,2.037,1.44H41.56a.533.533,0,0,0,.533-.533,3.12,3.12,0,0,0-1.664-2.707,5.679,5.679,0,0,0-1.155-.531V26.6a8.9,8.9,0,0,0,2.042-6.016,8.318,8.318,0,0,0-.959-3.6l-.064-.111c-.339-.588-1.24-2.148-.829-3.008a1.579,1.579,0,0,1,1.282-.7,4.045,4.045,0,0,0,3.27-2.575,6.6,6.6,0,0,0,.448-2.5C44.463,7.563,43.89,6.742,42.606,5.1Z" transform="translate(-9.496 0)" fill="#ffbb64"/><path d="M431.842,85.992a.774.774,0,1,1,.774-.774A.775.775,0,0,1,431.842,85.992Z" transform="translate(-401.125 -78.446)" fill="#6e563d"/><path d="M302.513,150.386a3.172,3.172,0,0,1-.447-1.926.533.533,0,0,0-.51-.64,11.552,11.552,0,0,1-5.79-1.529,6.422,6.422,0,0,1-1.724-1.436.533.533,0,0,0-.951.2,13.112,13.112,0,0,1-.788,2.5.533.533,0,0,0,.167.639,14.582,14.582,0,0,0,8.813,2.975c.284,0,.545-.009.78-.022a.533.533,0,0,0,.449-.763Z" transform="translate(-272.176 -134.363)" fill="#ff3d43"/><path d="M396.428,188.821a.533.533,0,0,0-.51-.64c-.5-.011-.963-.046-1.4-.1a1.1,1.1,0,0,0-.574.508c-.39.816.4,2.264.774,2.911.332.022.644.031.931.031s.546-.009.78-.022a.533.533,0,0,0,.449-.763A3.173,3.173,0,0,1,396.428,188.821Z" transform="translate(-366.537 -174.724)" fill="#d72e2e"/><path d="M481.51,97.731a7.259,7.259,0,0,0,.178-1.642,2.806,2.806,0,0,0-.636-1.359,2.332,2.332,0,0,0-.9,1.359c0,.123,0,.412.672,1.084A3.318,3.318,0,0,0,481.51,97.731Z" transform="translate(-446.721 -88.002)" fill="#f78819"/><path d="M395.748,220.316a.533.533,0,0,1-.428.262c-.234.014-.5.022-.78.022s-.6-.009-.931-.031l.056.1.064.111a8.318,8.318,0,0,1,.959,3.6,8.9,8.9,0,0,1-2.042,6.016v5.947a5.676,5.676,0,0,1,1.155.531,3.12,3.12,0,0,1,1.664,2.707.533.533,0,0,1-.533.533h2.563a.533.533,0,0,0,.533-.533,3.12,3.12,0,0,0-1.664-2.707,5.676,5.676,0,0,0-1.155-.531V230.39a8.9,8.9,0,0,0,2.042-6.016,8.317,8.317,0,0,0-.959-3.6l-.064-.111a10.339,10.339,0,0,1-.653-1.293c.055.138.118.284.194.442A.533.533,0,0,1,395.748,220.316Z" transform="translate(-365.431 -203.792)" fill="#ffad47"/><path d="M294.06,458.481a3.622,3.622,0,0,0-.874-2.505,3.357,3.357,0,0,0-2.36-1h-2.062s3.47,1.588,2.156,3.944c-.008.014.033.034.078.056h2.531A.533.533,0,0,0,294.06,458.481Z" transform="translate(-268.928 -422.663)" fill="#ffad47"/></svg>