<svg xmlns="http://www.w3.org/2000/svg" width="13.765" height="36.29" viewBox="0 0 13.765 36.29"><path d="M184.76,64h-3.754s-.425,6.174-1.251,8.134A46.761,46.761,0,0,1,177,78.18a7.2,7.2,0,0,0-1,3.339V94.033a1.251,1.251,0,0,0,1.251,1.251h11.262a1.251,1.251,0,0,0,1.251-1.251V81.519a7.2,7.2,0,0,0-1-3.339,46.759,46.759,0,0,1-2.753-6.046C185.185,70.174,184.76,64,184.76,64Zm0,0" transform="translate(-176 -58.994)" fill="#394d5c"/><path d="M240,0h3.754V2.5H240Zm0,0" transform="translate(-234.994)" fill="#d3843d"/><path d="M224,32h6.257v2.5H224Zm0,0" transform="translate(-220.246 -29.497)" fill="#f3bb59"/><path d="M237.006,226.5a2.5,2.5,0,1,1-2.5-2.5A2.5,2.5,0,0,1,237.006,226.5Zm0,0" transform="translate(-227.62 -206.481)" fill="#fff"/><path d="M176,320h13.765v7.508H176Zm0,0" transform="translate(-176 -294.972)" fill="#da1c4b"/><g transform="translate(1.877 26.905)"><path d="M224,376h6.257v1.251H224Zm0,0" transform="translate(-222.123 -373.497)" fill="#f98c96"/><path d="M200,344h1.251v1.251H200Zm0,0" transform="translate(-200 -344)" fill="#f98c96"/><path d="M232,344h5.006v1.251H232Zm0,0" transform="translate(-229.497 -344)" fill="#f98c96"/><path d="M312,344h1.251v1.251H312Zm0,0" transform="translate(-303.24 -344)" fill="#f98c96"/></g><path d="M227.482,131.754c-.1-.236-.183-.45-.257-.626a15.09,15.09,0,0,1-.714-3.128h-4.829a15.09,15.09,0,0,1-.714,3.128c-.074.176-.161.389-.257.626Zm0,0" transform="translate(-217.214 -117.989)" fill="#da1c4b"/></svg>