<svg xmlns="http://www.w3.org/2000/svg" width="19.28" height="36" viewBox="0 0 19.28 36"><path d="M80,80h3.615v7.23H80Zm0,0" transform="translate(-73.975 -74.006)" fill="#e6e6e6"/><path d="M80,80h1.808v7.23H80Zm0,0" transform="translate(-73.975 -74.006)" fill="#f2f2f2"/><path d="M128,80h3.615v7.23H128Zm0,0" transform="translate(-118.36 -74.006)" fill="#e6e6e6"/><path d="M128,80h1.808v7.23H128Zm0,0" transform="translate(-118.36 -74.006)" fill="#f2f2f2"/><path d="M176,80h3.615v7.23H176Zm0,0" transform="translate(-162.745 -74.006)" fill="#e6e6e6"/><path d="M176,80h1.808v7.23H176Zm0,0" transform="translate(-162.745 -74.006)" fill="#f2f2f2"/><path d="M32,80h3.615v7.23H32Zm0,0" transform="translate(-29.59 -74.006)" fill="#e6e6e6"/><path d="M32,80h1.808v7.23H32Zm0,0" transform="translate(-29.59 -74.006)" fill="#f2f2f2"/><path d="M80,0h3.615V6.025H80Zm0,0" transform="translate(-73.975)" fill="#b5880e"/><path d="M80,0h1.808V6.025H80Zm0,0" transform="translate(-73.975)" fill="#f2b513"/><path d="M128,0h3.615V6.025H128Zm0,0" transform="translate(-118.36)" fill="#b5880e"/><path d="M128,0h1.808V6.025H128Zm0,0" transform="translate(-118.36)" fill="#f2b513"/><path d="M176,0h3.615V6.025H176Zm0,0" transform="translate(-162.745)" fill="#b5880e"/><path d="M176,0h1.808V6.025H176Zm0,0" transform="translate(-162.745)" fill="#f2b513"/><path d="M32,0h3.615V6.025H32Zm0,0" transform="translate(-29.59)" fill="#b5880e"/><path d="M32,0h1.808V6.025H32Zm0,0" transform="translate(-29.59)" fill="#f2b513"/><path d="M19.28,154.36H0V128H2.41l3.615,3.595h7.23L16.87,128h2.41Zm0,0" transform="translate(0 -118.36)" fill="#8b6846"/><path d="M13.255,131.615H3.615L0,128v26.51H16.87V128Zm0,0" transform="translate(0 -118.51)" fill="#ba8b5d"/><path d="M0,448H19.28v2.41H0Zm0,0" transform="translate(0 -414.41)" fill="#bf393a"/><path d="M0,448H16.87v2.41H0Zm0,0" transform="translate(0 -414.41)" fill="#ff4c4d"/><path d="M0,224H19.28v13.255H0Zm0,0" transform="translate(0 -207.241)" fill="#bf393a"/><path d="M0,224H16.87v13.255H0Zm0,0" transform="translate(0 -207.241)" fill="#ff4c4d"/></svg>