<svg xmlns="http://www.w3.org/2000/svg" width="23.423" height="36.329" viewBox="0 0 23.423 36.329"><g transform="translate(0 -82.944)"><path d="M19.031,160H1.464A1.464,1.464,0,0,0,0,161.464v26.351a1.464,1.464,0,0,0,1.464,1.464H19.031a1.464,1.464,0,0,0,1.464-1.464V161.464A1.464,1.464,0,0,0,19.031,160Zm0,0" transform="translate(0 -70.005)" fill="#af4a47"/><path d="M0,161.464V183.3a13.664,13.664,0,0,0,1.83.127c9.1,0,16.469-9.012,16.469-20.129A24.547,24.547,0,0,0,18.075,160H1.464A1.464,1.464,0,0,0,0,161.464Zm0,0" transform="translate(0 -70.005)" fill="#e4725f"/><path d="M32,192H46.639v5.856H32Zm0,0" transform="translate(-29.073 -99.078)" fill="#7ecb92"/><path d="M224,192h2.928v10.247H224" transform="translate(-203.505 -99.078)" fill="#8892a0"/><path d="M224,336h2.928v4.392H224" transform="translate(-203.505 -229.902)" fill="#8892a0"/><path d="M16,7.05V0h2.928V7.05" transform="translate(-14.536 82.944)" fill="#8892a0"/><path d="M178.928,130.928V128H176v2.928" transform="translate(-159.897 -40.933)" fill="#8892a0"/><g transform="translate(2.888 95.118)"><path d="M32,416h2.928v2.928H32Zm0,0" transform="translate(-31.96 -397.701)" fill="#fff"/><path d="M95.566,416.434h2.928v2.928H95.566Zm0,0" transform="translate(-89.711 -398.095)" fill="#fff"/><path d="M159.566,416.434h2.928v2.928h-2.928Zm0,0" transform="translate(-147.855 -398.095)" fill="#fff"/><path d="M31.566,352.434h2.928v2.928H31.566Zm0,0" transform="translate(-31.566 -339.951)" fill="#fff"/><path d="M95.566,352.434h2.928v2.928H95.566Zm0,0" transform="translate(-89.711 -339.951)" fill="#fff"/><path d="M159.566,352.434h2.928v2.928h-2.928Zm0,0" transform="translate(-147.855 -339.951)" fill="#fff"/><path d="M31.566,288.434h2.928v2.928H31.566Zm0,0" transform="translate(-31.566 -281.807)" fill="#fff"/><path d="M95.566,288.434h2.928v2.928H95.566Zm0,0" transform="translate(-89.711 -281.807)" fill="#fff"/><path d="M159.566,288.434h2.928v2.928h-2.928Zm0,0" transform="translate(-147.855 -281.807)" fill="#fff"/><path d="M56,216h1.464v1.464H56Zm0,0" transform="translate(-53.764 -216)" fill="#fff"/><path d="M88,216h1.464v1.464H88Zm0,0" transform="translate(-82.837 -216)" fill="#fff"/><path d="M120,216h1.464v1.464H120Zm0,0" transform="translate(-111.909 -216)" fill="#fff"/><path d="M152,216h1.464v1.464H152Zm0,0" transform="translate(-140.981 -216)" fill="#fff"/></g></g></svg>