<svg xmlns="http://www.w3.org/2000/svg" width="36.456" height="36.456" viewBox="0 0 36.456 36.456"><path d="M76,60,88.816,92.183h18.228V64.272Zm0,0" transform="translate(-70.589 -55.728)" fill="#899ba1"/><path d="M0,64.272V92.183H18.228V60Zm0,0" transform="translate(0 -55.728)" fill="#a3bbc0"/><path d="M206.8,60l-3.772,15.024L206.8,90.047h16.092V60Zm0,0" transform="translate(-188.575 -55.728)" fill="#adf5ff"/><path d="M30,60H46.092V90.047H30Zm0,0" transform="translate(-27.864 -55.728)" fill="#fff"/><path d="M218.5,8.544V0H200.272L196,4.272l4.272,4.272Zm0,0" transform="translate(-182.044)" fill="#a3bbc0"/><path d="M362,45h2.136v2.136H362Zm0,0" transform="translate(-336.225 -41.796)" fill="#76838a"/><path d="M422,45h2.136v2.136H422Zm0,0" transform="translate(-391.953 -41.796)" fill="#ff451b"/><path d="M302,45h2.136v2.136H302Zm0,0" transform="translate(-280.497 -41.796)" fill="#76838a"/><path d="M0,4.272V8.544H18.228V0h-.181Zm0,0" fill="#bcdae0"/><path d="M18.228,0H0V4.272H16.092Zm0,0" fill="#50545b"/><path d="M243.146,316H241l1.068,12.888h1.078Zm0,0" transform="translate(-223.841 -293.5)" fill="#899ba1"/><path d="M241.141,316H242.2v12.888h-1.058Zm0,0" transform="translate(-223.971 -293.5)" fill="#a3bbc0"/><path d="M154.354,272.231h-2.136v-5.954L150,264.141V255h2.136v8.232l2.217,2.136Zm0,0" transform="translate(-139.32 -236.843)" fill="#a3bbc0"/><path d="M303,272.231h-2.136v-6.862l2.217-2.136V255h2.136v9.141L303,266.277Zm0,0" transform="translate(-279.437 -236.843)" fill="#899ba1"/><path d="M126.408,183.2a3.2,3.2,0,1,1-3.2-3.2A3.2,3.2,0,0,1,126.408,183.2Zm0,0" transform="translate(-111.456 -167.184)" fill="#10beff"/><path d="M308.408,183.2a3.2,3.2,0,1,1-3.2-3.2A3.2,3.2,0,0,1,308.408,183.2Zm0,0" transform="translate(-280.497 -167.184)" fill="#199aff"/><path d="M235.1,271l-1.6,3.2,1.6,3.2a3.2,3.2,0,1,0,0-6.408Zm0,0" transform="translate(-216.874 -251.704)" fill="#199aff"/><path d="M211,274.2a3.2,3.2,0,0,0,3.2,3.2V271A3.2,3.2,0,0,0,211,274.2Zm0,0" transform="translate(-195.976 -251.704)" fill="#10beff"/></svg>