<svg xmlns="http://www.w3.org/2000/svg" width="38.105" height="36.29" viewBox="0 0 38.105 36.29"><g transform="translate(2.403 22.984)"><path d="M65.652,328.1H37.3a5.519,5.519,0,0,1-5.519-5.519v-1.058A5.519,5.519,0,0,1,37.3,316H65.652Z" transform="translate(-31.781 -316)" fill="#ffebb7"/></g><g transform="translate(3.612 24.193)"><rect width="3.024" height="9.677" fill="#5c546a"/></g><g transform="translate(1.193 12.702)"><path d="M47.989,188.468H15.781V180H47.989a1.663,1.663,0,0,1,1.663,1.663V186.8A1.663,1.663,0,0,1,47.989,188.468Z" transform="translate(-15.781 -180)" fill="#ffebb7"/></g><g transform="translate(5.427 1.815)"><rect width="30.847" height="9.073" fill="#ffebb7"/></g><g transform="translate(1.21 21.774)"><path d="M51.081,314.516H23.258a7.258,7.258,0,0,1,0-14.516H51.081a1.21,1.21,0,0,1,0,2.419H23.258a4.839,4.839,0,1,0,0,9.677H51.081a1.21,1.21,0,1,1,0,2.419Z" transform="translate(-16 -300)" fill="#00c37a"/></g><g transform="translate(0 12.097)"><path d="M32.661,181.677H.6a.6.6,0,1,1,0-1.21H32.661a1.817,1.817,0,0,0,1.815-1.815v-3.629a1.817,1.817,0,0,0-1.815-1.815H.6A.6.6,0,1,1,.6,172H32.661a3.028,3.028,0,0,1,3.024,3.024v3.629A3.028,3.028,0,0,1,32.661,181.677Z" transform="translate(0 -172)" fill="#009bca"/></g><g transform="translate(7.846 3.629)"><path d="M132.208,61.21H104.386a.6.6,0,0,1-.6-.6h0a.6.6,0,0,1,.6-.6h27.822Z" transform="translate(-103.781 -60)" fill="#e6be94"/></g><g transform="translate(7.846 6.048)"><path d="M132.208,93.21H104.386a.6.6,0,0,1-.6-.6h0a.6.6,0,0,1,.6-.6h27.822Z" transform="translate(-103.781 -92)" fill="#e6be94"/></g><g transform="translate(7.846 8.468)"><path d="M132.208,125.21H104.386a.6.6,0,0,1-.6-.6h0a.6.6,0,0,1,.6-.6h27.822Z" transform="translate(-103.781 -124)" fill="#e6be94"/></g><g transform="translate(1.193 14.516)"><path d="M15.781,204H47.232a.6.6,0,0,1,.6.6h0a.6.6,0,0,1-.6.6H15.781Z" transform="translate(-15.781 -204)" fill="#e6be94"/></g><g transform="translate(1.193 16.935)"><path d="M15.781,236H47.232a.6.6,0,0,1,.6.6h0a.6.6,0,0,1-.6.6H15.781Z" transform="translate(-15.781 -236)" fill="#e6be94"/></g><g transform="translate(1.193 19.355)"><path d="M15.781,268H47.232a.6.6,0,0,1,.6.6h0a.6.6,0,0,1-.6.6H15.781Z" transform="translate(-15.781 -268)" fill="#e6be94"/></g><g transform="translate(4.234 0)"><path d="M88.661,24.1H59.629A3.633,3.633,0,0,1,56,20.468V15.629A3.633,3.633,0,0,1,59.629,12H88.661a1.21,1.21,0,0,1,0,2.419H59.629a1.211,1.211,0,0,0-1.21,1.21v4.839a1.211,1.211,0,0,0,1.21,1.21H88.661a1.21,1.21,0,0,1,0,2.419Z" transform="translate(-56 -12)" fill="#ff4f19"/></g><g transform="translate(7.846 32.661)"><path d="M104.386,444a.6.6,0,0,0,0,1.21h27.823V444Z" transform="translate(-103.781 -444)" fill="#e6be94"/></g><g transform="translate(7.846 30.242)"><path d="M104.386,412a.6.6,0,0,0,0,1.21h27.823V412Z" transform="translate(-103.781 -412)" fill="#e6be94"/></g><g transform="translate(7.846 27.822)"><path d="M104.386,380a.6.6,0,0,0,0,1.21h27.823V380Z" transform="translate(-103.781 -380)" fill="#e6be94"/></g><g transform="translate(7.846 25.403)"><path d="M104.386,348a.6.6,0,0,0,0,1.21h27.823V348Z" transform="translate(-103.781 -348)" fill="#e6be94"/></g></svg>