<svg xmlns="http://www.w3.org/2000/svg" width="20.903" height="36" viewBox="0 0 20.903 36"><path d="M256,192h2.323v3.484H256Zm0,0" transform="translate(-237.419 -178.065)" fill="#aab2bd"/><path d="M256,144h2.323v3.484H256Zm0,0" transform="translate(-237.419 -133.548)" fill="#aab2bd"/><path d="M256,80h2.323v4.645H256Zm0,0" transform="translate(-237.419 -74.194)" fill="#aab2bd"/><path d="M256,32h2.323v3.484H256Zm0,0" transform="translate(-237.419 -29.677)" fill="#aab2bd"/><path d="M75.484,57.742A1.742,1.742,0,1,1,73.742,56,1.739,1.739,0,0,1,75.484,57.742Zm0,0" transform="translate(-66.774 -51.935)" fill="#ccd1d9"/><path d="M75.484,80v5.806a1.742,1.742,0,0,0-3.484,0V80a1.742,1.742,0,0,0,3.484,0Zm0,0" transform="translate(-66.774 -74.194)" fill="#656d78"/><path d="M73.742,136A1.742,1.742,0,1,1,72,137.742,1.739,1.739,0,0,1,73.742,136Zm0,0" transform="translate(-66.774 -126.129)" fill="#ccd1d9"/><path d="M48.129,51.613H40V40h8.129Zm-4.065-1.161a1.739,1.739,0,0,0,1.742-1.742V42.9a1.742,1.742,0,1,0-3.484,0V48.71A1.739,1.739,0,0,0,44.065,50.452Zm0,0" transform="translate(-37.097 -37.097)" fill="#e6e9ed"/><path d="M13.935,0V17.419H0V2.323A2.329,2.329,0,0,1,2.323,0Zm-2.9,14.516V2.9H2.9V14.516Zm0,0" fill="#656d78"/><path d="M16.258,242.323v16.258H2.323A2.329,2.329,0,0,1,0,256.258V240H13.935Zm0,0" transform="translate(0 -222.581)" fill="#5d9cec"/><path d="M194.323,36V19.742L192,17.419V0h2.323a2.329,2.329,0,0,1,2.323,2.323V33.677A2.329,2.329,0,0,1,194.323,36Zm0,0" transform="translate(-178.065)" fill="#434a54"/><g transform="translate(1.739 19.161)"><path d="M24.544,265.161A.581.581,0,0,1,24.538,264h.007a.581.581,0,1,1,0,1.161Zm0,0" transform="translate(-23.961 -264)" fill="#4a89dc"/><path d="M88.544,265.161A.581.581,0,0,1,88.538,264h.007a.581.581,0,1,1,0,1.161Zm0,0" transform="translate(-83.316 -264)" fill="#4a89dc"/><path d="M56.544,297.161A.581.581,0,0,1,56.538,296h.007a.581.581,0,1,1,0,1.161Zm0,0" transform="translate(-53.638 -293.677)" fill="#4a89dc"/><path d="M24.544,329.161A.581.581,0,0,1,24.538,328h.007a.581.581,0,1,1,0,1.161Zm0,0" transform="translate(-23.961 -323.355)" fill="#4a89dc"/><path d="M152.544,265.161a.581.581,0,0,1-.007-1.161h.007a.581.581,0,1,1,0,1.161Zm0,0" transform="translate(-142.671 -264)" fill="#4a89dc"/><path d="M120.544,297.161a.581.581,0,0,1-.007-1.161h.007a.581.581,0,1,1,0,1.161Zm0,0" transform="translate(-112.993 -293.677)" fill="#4a89dc"/><path d="M88.544,329.161A.581.581,0,0,1,88.538,328h.007a.581.581,0,1,1,0,1.161Zm0,0" transform="translate(-83.316 -323.355)" fill="#4a89dc"/><path d="M56.544,361.161A.581.581,0,0,1,56.538,360h.007a.581.581,0,1,1,0,1.161Zm0,0" transform="translate(-53.638 -353.032)" fill="#4a89dc"/><path d="M24.544,393.161A.581.581,0,0,1,24.538,392h.007a.581.581,0,1,1,0,1.161Zm0,0" transform="translate(-23.961 -382.71)" fill="#4a89dc"/><path d="M184.544,297.161a.581.581,0,0,1-.007-1.161h.007a.581.581,0,0,1,0,1.161Zm0,0" transform="translate(-172.348 -293.677)" fill="#4a89dc"/><path d="M152.544,329.161a.581.581,0,0,1-.007-1.161h.007a.581.581,0,1,1,0,1.161Zm0,0" transform="translate(-142.671 -323.355)" fill="#4a89dc"/><path d="M120.544,361.161a.581.581,0,0,1-.007-1.161h.007a.581.581,0,1,1,0,1.161Zm0,0" transform="translate(-112.993 -353.032)" fill="#4a89dc"/><path d="M88.544,393.161A.581.581,0,0,1,88.538,392h.007a.581.581,0,1,1,0,1.161Zm0,0" transform="translate(-83.316 -382.71)" fill="#4a89dc"/><path d="M56.544,425.161A.581.581,0,0,1,56.538,424h.007a.581.581,0,0,1,0,1.161Zm0,0" transform="translate(-53.638 -412.387)" fill="#4a89dc"/><path d="M24.544,457.161A.581.581,0,0,1,24.538,456h.007a.581.581,0,1,1,0,1.161Zm0,0" transform="translate(-23.961 -442.065)" fill="#4a89dc"/><path d="M184.544,361.161a.581.581,0,0,1-.007-1.161h.007a.581.581,0,0,1,0,1.161Zm0,0" transform="translate(-172.348 -353.032)" fill="#4a89dc"/><path d="M152.544,393.161a.581.581,0,0,1-.007-1.161h.007a.581.581,0,1,1,0,1.161Zm0,0" transform="translate(-142.671 -382.71)" fill="#4a89dc"/><path d="M120.544,425.161a.581.581,0,0,1-.007-1.161h.007a.581.581,0,1,1,0,1.161Zm0,0" transform="translate(-112.993 -412.387)" fill="#4a89dc"/><path d="M88.544,457.161A.581.581,0,0,1,88.538,456h.007a.581.581,0,1,1,0,1.161Zm0,0" transform="translate(-83.316 -442.065)" fill="#4a89dc"/><path d="M184.544,425.161a.581.581,0,0,1-.007-1.161h.007a.581.581,0,0,1,0,1.161Zm0,0" transform="translate(-172.348 -412.387)" fill="#4a89dc"/><path d="M152.544,457.161a.581.581,0,0,1-.007-1.161h.007a.581.581,0,1,1,0,1.161Zm0,0" transform="translate(-142.671 -442.065)" fill="#4a89dc"/></g><path d="M88.783,73.161A.581.581,0,0,1,88.776,72h.006a.581.581,0,1,1,0,1.161Zm0,0" transform="translate(-81.798 -66.774)" fill="#aab2bd"/><path d="M88.783,153.161A.581.581,0,0,1,88.776,152h.006a.581.581,0,1,1,0,1.161Zm0,0" transform="translate(-81.798 -140.968)" fill="#aab2bd"/><path d="M66.323,52.645a2.323,2.323,0,1,1,2.323-2.323A2.325,2.325,0,0,1,66.323,52.645Zm0-3.484a1.161,1.161,0,1,0,1.161,1.161A1.162,1.162,0,0,0,66.323,49.161Zm0,0" transform="translate(-59.355 -44.516)" fill="#434a54"/><path d="M66.323,132.645a2.323,2.323,0,1,1,2.323-2.323A2.325,2.325,0,0,1,66.323,132.645Zm0-3.484a1.161,1.161,0,1,0,1.161,1.161A1.162,1.162,0,0,0,66.323,129.161Zm0,0" transform="translate(-59.355 -118.71)" fill="#434a54"/><path d="M112.581,78.968a.58.58,0,0,1-.581-.581V72.581a.581.581,0,0,1,1.161,0v5.806A.58.58,0,0,1,112.581,78.968Zm0,0" transform="translate(-103.871 -66.774)" fill="#434a54"/><path d="M64.581,78.968A.58.58,0,0,1,64,78.387V72.581a.581.581,0,0,1,1.161,0v5.806A.58.58,0,0,1,64.581,78.968Zm0,0" transform="translate(-59.355 -66.774)" fill="#434a54"/></svg>