<svg xmlns="http://www.w3.org/2000/svg" width="37.787" height="36.226" viewBox="0 0 37.787 36.226"><g transform="translate(0.001 -0.5)"><path d="M127.48,8.116v-2.5A5.127,5.127,0,0,1,132.6.5h8.728a5.127,5.127,0,0,1,5.121,5.121v5.4h-2.842v-5.4a2.282,2.282,0,0,0-2.279-2.279H132.6a2.282,2.282,0,0,0-2.279,2.279v5.372H127.48Zm0,0" transform="translate(-118.072)" fill="#636363"/><path d="M130.322,103.7H128.2q-.362,0-.719.026v2.851h2.842Zm0,0" transform="translate(-118.072 -95.583)" fill="#424242"/><path d="M346.016,106.6h2.842v-2.876q-.356-.025-.719-.026h-2.123Zm0,0" transform="translate(-320.48 -95.583)" fill="#424242"/><path d="M35.676,168.405H2.11A2.111,2.111,0,0,1,0,166.295v-13.5a10.12,10.12,0,0,1,10.12-10.12H27.666a10.12,10.12,0,0,1,10.12,10.12v13.5a2.111,2.111,0,0,1-2.111,2.111Zm0,0" transform="translate(0 -131.68)" fill="#eeedee"/><path d="M318.876,142.672h-4.455A10.127,10.127,0,0,1,324.549,152.8v13.409a2.2,2.2,0,0,1-2.2,2.2h4.454a2.2,2.2,0,0,0,2.2-2.2V152.8A10.127,10.127,0,0,0,318.876,142.672Zm0,0" transform="translate(-291.217 -131.679)" fill="#cccbcc"/><path d="M0,426.5a2.2,2.2,0,0,0,2.2,2.2H35.591a2.2,2.2,0,0,0,2.2-2.2v-2.8H0Zm0,0" transform="translate(-0.001 -391.966)" fill="#ef2d57"/><path d="M424.079,423.7v2.8a2.2,2.2,0,0,1-2.2,2.2h4.454a2.2,2.2,0,0,0,2.2-2.2v-2.8Zm0,0" transform="translate(-390.748 -391.966)" fill="#bf2445"/><path d="M185.16,215.208h-2.6v-2.6a1.207,1.207,0,0,0-1.207-1.206h-2.042a1.207,1.207,0,0,0-1.207,1.206v2.6h-2.6a1.207,1.207,0,0,0-1.207,1.206v2.042a1.207,1.207,0,0,0,1.207,1.206h2.6v2.6a1.207,1.207,0,0,0,1.206,1.207h2.042a1.207,1.207,0,0,0,1.207-1.207v-2.6h2.6a1.207,1.207,0,0,0,1.207-1.206v-2.042A1.207,1.207,0,0,0,185.16,215.208Zm0,0" transform="translate(-161.445 -195.341)" fill="#ef2d57"/></g></svg>