<svg xmlns="http://www.w3.org/2000/svg" width="28.77" height="36.225" viewBox="0 0 28.77 36.225"><g transform="translate(-5.96 -0.001)"><g transform="translate(7.407 0.001)"><path d="M33.392,27.618c-.792-5.98-.63-12.414-7.154-16.172a.477.477,0,0,1,.154-.887,4.6,4.6,0,0,0,1.845-.55h-.772a1.876,1.876,0,1,1,0-3.753h.492a3.308,3.308,0,0,0-1.6-.33.941.941,0,0,1-.875-.639A8.172,8.172,0,0,0,24.969,4.1l.893-.893A1.876,1.876,0,0,0,23.208.551l-.95.95a3.919,3.919,0,0,0-3.606.385.882.882,0,0,1-1.164-.238,3,3,0,0,0-.956-.928,2.077,2.077,0,0,0-1.741.3c-.253.172-.169.965-.1,1.459.094.675.5,1.505.51,2.081h0c1.36.9,3.043,2.536,2.257,4.82-.8,2.326-5.023,5.623-8.556,6.482A13.842,13.842,0,0,0,12.3,29.846c4.931,5.289,11.333,6.776,18.311,6.295a3.091,3.091,0,0,0,3.108-3.289A34.9,34.9,0,0,0,33.392,27.618Z" transform="translate(-8.275 -0.001)" fill="#c5411e"/></g><path d="M15.851,34.856a13.672,13.672,0,0,1-3.9-11.46A12.892,12.892,0,0,1,8.9,24.627,13.842,13.842,0,0,0,12.3,38.608C17.227,43.9,23.629,45.384,30.606,44.9a3.091,3.091,0,0,0,3.108-3.289c0-.146,0-.294,0-.441C26.911,41.561,20.676,40.031,15.851,34.856Z" transform="translate(-0.867 -8.763)" fill="#b02721"/><path d="M14.335,6.012a.716.716,0,0,1-.093.42,3.146,3.146,0,0,1-2.464.868,5.12,5.12,0,0,0-.626,0L8,4.139a.908.908,0,0,0-1.284,0l-.485.485a.908.908,0,0,0,0,1.284L9.45,9.132c-.013.144-.026.288-.03.45a18.035,18.035,0,0,1-.786,5.9c-.235.617-.429,1.227-.6,1.832,3.533-.859,7.755-4.156,8.556-6.482C17.378,8.548,15.7,6.912,14.335,6.012Z" transform="translate(0 -1.45)" fill="#c29ab4"/><path d="M42.214,13.753H37.836a1.876,1.876,0,0,1,0-3.753h4.378a1.876,1.876,0,0,1,0,3.753Z" transform="translate(-11.237 -3.745)" fill="#9a879a"/><circle cx="1.876" cy="1.876" r="1.876" transform="translate(29.101 6.255)" fill="#556080"/><path d="M34.527,38.388a.625.625,0,0,1-.625-.625v-1.5c-4.527-2.391-7.267-5.355-8.144-8.814a10.773,10.773,0,0,1,1.374-8.181.626.626,0,0,1,1.033.706,9.666,9.666,0,0,0-1.191,7.183c.812,3.174,3.45,5.923,7.839,8.169a.627.627,0,0,1,.34.557v1.876A.625.625,0,0,1,34.527,38.388Z" transform="translate(-7.302 -7.116)" fill="#f7b563"/><path d="M48.162,24.247l-1.273-.3.892-.956a.908.908,0,0,0-.044-1.283l-.5-.468a.908.908,0,0,0-1.283.044L44.077,23.3l-.382-.089A13.054,13.054,0,0,1,45.079,26.1l2.515.585A.908.908,0,0,0,48.685,26l.156-.668A.908.908,0,0,0,48.162,24.247Z" transform="translate(-14.134 -7.865)" fill="#ba98b1"/><path d="M39.586,45.5a.625.625,0,0,1-.348-1.146l1.876-1.251a.626.626,0,1,1,.694,1.041L39.932,45.4A.626.626,0,0,1,39.586,45.5Z" transform="translate(-12.361 -16.106)" fill="#f7b563"/><path d="M24.465,44.509h0a.625.625,0,0,1-.622-.629l.01-1.724c-2.6-3.076-2.5-7.513.269-10a.625.625,0,1,1,.836.931c-2.31,2.073-2.315,5.848-.013,8.415a.627.627,0,0,1,.16.422l-.011,1.96A.625.625,0,0,1,24.465,44.509Z" transform="translate(-5.997 -11.986)" fill="#f7b563"/><path d="M35.026,30.591a.624.624,0,0,1-.513-.268,11.59,11.59,0,0,0-3.755-3.594,3.435,3.435,0,0,0-3.814,0,.626.626,0,1,1-.716-1.026,4.655,4.655,0,0,1,5.121-.073,12.852,12.852,0,0,1,4.19,3.981.626.626,0,0,1-.512.984Z" transform="translate(-7.491 -9.326)" fill="#f7b563"/><path d="M36.585,31.629A.625.625,0,0,1,35.96,31V28.5a.626.626,0,0,1,.25-.5l2.5-1.876a.625.625,0,1,1,.75,1L37.21,28.814V31A.624.624,0,0,1,36.585,31.629Z" transform="translate(-11.237 -9.738)" fill="#f7b563"/><path d="M27.462,48.251H25.585a.625.625,0,1,1,0-1.251h1.876a.625.625,0,1,1,0,1.251Z" transform="translate(-7.117 -17.604)" fill="#f7b563"/><path d="M32.585,45a.625.625,0,0,1-.625-.625V40.625A.625.625,0,0,1,32.585,40h3.753a.625.625,0,1,1,0,1.251H33.211v3.127A.625.625,0,0,1,32.585,45Z" transform="translate(-9.739 -14.982)" fill="#f7b563"/></g></svg>