<svg xmlns="http://www.w3.org/2000/svg" width="12.308" height="36" viewBox="0 0 12.308 36"><g transform="translate(-0.001 0.001)"><path d="M54.238,347.008h4.681v9.9H54.238Zm0,0" transform="translate(-50.424 -322.61)" fill="#d5eff7"/><path d="M54.238,347.008h4.681v9.9H54.238Zm0,0" transform="translate(-50.424 -322.61)" fill="#ff5656"/><path d="M54.238,347.008h4.681v2.168H54.238Zm0,0" transform="translate(-50.424 -322.61)" fill="#e52a2a"/><path d="M32.762,22.585H39.84V5.088A5.088,5.088,0,0,0,34.752,0H33.49a.728.728,0,0,0-.728.728Zm0,0" transform="translate(-30.458 -0.001)" fill="#95c6df"/><path d="M35.214.02a.728.728,0,0,0-.556.707V22.584h-1.9V.727A.729.729,0,0,1,33.49,0h1.262c.156,0,.31.007.463.021Zm0,0" transform="translate(-30.457)" fill="#d5eff7"/><path d="M93.541,86.05h-1a.933.933,0,0,1-.933-.933V82.031a.558.558,0,0,0-.527-.566.543.543,0,0,0-.56.543V98.322a.543.543,0,1,0,1.087,0h1.93V86.05Zm0,0" transform="translate(-84.158 -75.738)" fill="#4d78a0"/><g transform="translate(0.001 12.754)"><path d="M86.361,182.492H83.344a.543.543,0,0,1,0-1.087h3.017a.543.543,0,0,1,0,1.087Zm0,0" transform="translate(-76.979 -181.406)" fill="#75a4c8"/><path d="M86.361,227H83.344a.543.543,0,0,1,0-1.087h3.017a.543.543,0,0,1,0,1.087Zm0,0" transform="translate(-76.979 -222.784)" fill="#75a4c8"/><path d="M86.361,271.508H83.344a.543.543,0,0,1,0-1.086h3.017a.543.543,0,0,1,0,1.086Zm0,0" transform="translate(-76.979 -264.163)" fill="#75a4c8"/><path d="M10.786,316.072H1.523a1.522,1.522,0,1,1,0-3.045h9.263a1.522,1.522,0,1,1,0,3.045Zm0,0" transform="translate(-0.001 -303.773)" fill="#75a4c8"/><path d="M39.006,470.225a1.524,1.524,0,0,1-1.523,1.522H32.589a1.522,1.522,0,1,1,0-3.044h4.894A1.522,1.522,0,0,1,39.006,470.225Zm0,0" transform="translate(-28.882 -448.503)" fill="#75a4c8"/></g><path d="M95.317,468.7v1.149a.543.543,0,1,1-1.086,0V468.7Zm0,0" transform="translate(-87.605 -435.745)" fill="#95c6df"/><path d="M66.45,468.7v1.149a.543.543,0,1,1-1.087,0V468.7Zm0,0" transform="translate(-60.767 -435.745)" fill="#95c6df"/><path d="M56.691,392.618a.543.543,0,0,1-.543.543H54.238v-1.087h1.909A.543.543,0,0,1,56.691,392.618Zm0,0" transform="translate(-50.424 -364.508)" fill="#e52a2a"/><path d="M88.379,419.941v1.087H86.469a.543.543,0,1,1,0-1.086h1.909Zm0,0" transform="translate(-79.884 -390.415)" fill="#e52a2a"/></g></svg>