<svg xmlns="http://www.w3.org/2000/svg" width="39.206" height="36.342" viewBox="0 0 39.206 36.342"><path d="M19.447,154.771a2.551,2.551,0,0,0,2.473-1.926A7.9,7.9,0,0,1,22,140.837V130.8a2.55,2.55,0,0,0-2.55-2.55H2.55A2.55,2.55,0,0,0,0,130.8v21.422a2.55,2.55,0,0,0,2.55,2.55" transform="translate(0 -118.43)" fill="#5b9ed6"/><path d="M19.446,128.25H17.557a2.55,2.55,0,0,1,2.55,2.55v8.751a1.682,1.682,0,0,1-.4,1.086,9.641,9.641,0,0,0-1.779,3.147,7.916,7.916,0,0,0,.005,6.193l.008.024a1.682,1.682,0,0,1-1.584,2.235H2.549A2.55,2.55,0,0,1,0,149.686v2.535a2.55,2.55,0,0,0,2.55,2.55h16.9a2.545,2.545,0,0,0,2.029-1.007l.008-.011.055-.076.014-.021c.016-.023.031-.046.046-.07l.016-.026.039-.066.018-.031c.012-.021.024-.043.035-.064l.018-.035.031-.063.017-.037.028-.064.016-.039c.009-.022.017-.044.025-.066l.014-.039c.008-.024.016-.048.023-.071l.011-.034c.01-.036.02-.071.03-.107q-.129-.112-.253-.23l-.03-.028q-.119-.114-.234-.233l-.032-.033q-.115-.121-.225-.246l-.022-.025c-.076-.088-.151-.177-.223-.268A7.9,7.9,0,0,1,22,140.837V130.8a2.549,2.549,0,0,0-2.55-2.55Zm0,0" transform="translate(0 -118.429)" fill="#4c83b3"/><path d="M64.938,97.254H76.989v2.373H64.938Zm0,0" transform="translate(-59.965 -89.807)" fill="#5a67ad"/><path d="M181.852,97.254h3.1v2.373h-3.1Zm0,0" transform="translate(-167.927 -89.807)" fill="#48538a"/><path d="M32.227,11.545V14a.958.958,0,0,0,.957.957H48.33A.957.957,0,0,0,49.287,14V9.09a.957.957,0,0,0-.957-.957H33.184a.958.958,0,0,0-.957.957Zm0,0" transform="translate(-29.759 -7.51)" fill="#5b9ed6"/><path d="M198.9,8.133v6.824h3.34A.957.957,0,0,0,203.2,14V9.09a.957.957,0,0,0-.957-.957Zm0,0" transform="translate(-183.671 -7.51)" fill="#4c83b3"/><path d="M70.485,221.665a6.614,6.614,0,1,1-6.614-6.614A6.614,6.614,0,0,1,70.485,221.665Zm0,0" transform="translate(-52.873 -198.584)" fill="#ef2d57"/><path d="M81.673,230.273a6.613,6.613,0,0,1-9.2,9.2,6.613,6.613,0,1,0,9.2-9.2Zm0,0" transform="translate(-66.927 -212.64)" fill="#d9294f"/><path d="M266.412,276.218a7.9,7.9,0,1,1-7.9-7.9A7.9,7.9,0,0,1,266.412,276.218Zm0,0" transform="translate(-231.426 -247.774)" fill="#fcda55"/><path d="M282.655,289.293a7.9,7.9,0,0,1-11.065,11.065,7.9,7.9,0,1,0,11.065-11.065Zm0,0" transform="translate(-250.793 -267.141)" fill="#d9bc4a"/><path d="M282.937,311.079a7.968,7.968,0,0,0,.965.718L294.8,300.9a7.9,7.9,0,0,0-.718-.965.609.609,0,0,0-.137.1l-10.9,10.9a.6.6,0,0,0-.1.137Zm0,0" transform="translate(-261.272 -276.97)" fill="#d9bc4a"/><path d="M357.632,139.242a6.287,6.287,0,0,0-5.034,6.008v3.8h.089a7.9,7.9,0,0,1,5.64,13.425c.124.008.248.013.374.013a6.1,6.1,0,0,0,6.1-6.1V145.25a6.1,6.1,0,0,0-5.034-6.008,8.069,8.069,0,0,0-2.137,0Zm0,0" transform="translate(-325.598 -128.507)" fill="#f084ad"/><path d="M419.7,139.241a7.28,7.28,0,0,0-2.137,0l-.065.013a6.1,6.1,0,0,1,4.97,5.995v11.138a6.1,6.1,0,0,1-3.818,5.659q-.189.223-.392.431c.124.008.248.013.374.013a6.1,6.1,0,0,0,6.1-6.1V145.249A6.1,6.1,0,0,0,419.7,139.241Zm0,0" transform="translate(-385.531 -128.507)" fill="#d47499"/><path d="M418.75,291.379a7.9,7.9,0,0,1,.663,11.659c.124.007.248.013.374.013a6.1,6.1,0,0,0,6.1-6.1v-5.569Zm0,0" transform="translate(-386.685 -269.067)" fill="#ef2d57"/><path d="M431.624,296.948a6.1,6.1,0,0,1-3.818,5.659c-.058.069-.118.137-.179.2l-.031.034c-.06.066-.121.13-.183.194.124.008.248.013.374.013a6.1,6.1,0,0,0,6.1-6.1v-5.569h-2.267Zm0,0" transform="translate(-394.685 -269.067)" fill="#cc264b"/><path d="M102.7,256.847h-2.432v-2.432a.607.607,0,1,0-1.214,0v2.432H96.622a.607.607,0,1,0,0,1.214h2.432v2.432a.607.607,0,1,0,1.214,0v-2.432H102.7a.607.607,0,1,0,0-1.214Zm0,0" transform="translate(-88.663 -234.374)" fill="#fff"/><g transform="translate(6.042 0)"><path d="M79.513,8.038a.607.607,0,0,1-.607-.607V.607a.607.607,0,0,1,1.214,0V7.431A.607.607,0,0,1,79.513,8.038Zm0,0" transform="translate(-78.906 0)" fill="#674297"/><path d="M136.428,8.038a.607.607,0,0,1-.607-.607V.607a.607.607,0,1,1,1.214,0V7.431A.607.607,0,0,1,136.428,8.038Zm0,0" transform="translate(-131.462 0)" fill="#674297"/><path d="M193.342,8.038a.607.607,0,0,1-.607-.607V.607a.607.607,0,1,1,1.214,0V7.431A.607.607,0,0,1,193.342,8.038Zm0,0" transform="translate(-184.018 0)" fill="#674297"/></g><path d="M274.2,305.408a.607.607,0,0,1-.429-1.037l10.9-10.9a.607.607,0,1,1,.859.859l-10.9,10.9A.606.606,0,0,1,274.2,305.408Zm0,0" transform="translate(-252.647 -270.833)" fill="#e69326"/></svg>