<svg xmlns="http://www.w3.org/2000/svg" width="32.547" height="36" viewBox="0 0 32.547 36"><path d="M15.125,32.2V22.1c0-2.093,2.714-3.789,6.063-3.789a9.288,9.288,0,0,1,2.234.269V0H3V35.362H17.839c-1.635-.679-2.714-1.839-2.714-3.157" transform="translate(-3)" fill="#6e8c61"/><path d="M8,15.271a8.28,8.28,0,0,1,14.04,0V8.813c-.105.01-.211.016-.319.016a3.51,3.51,0,0,1-3.51-3.51c0-.108.006-.214.016-.319H11.813c.01.105.016.211.016.319a3.51,3.51,0,0,1-3.51,3.51c-.108,0-.214-.006-.319-.016Z" transform="translate(-4.809 -1.809)" fill="#e9e8d3"/><path d="M16.934,40.071v-1.5A8.263,8.263,0,0,1,8,34.906v6.458c.105-.01.211-.016.319-.016a3.51,3.51,0,0,1,3.51,3.51c0,.108-.006.214-.016.319h5.121V40.071Z" transform="translate(-4.809 -13.006)" fill="#e9e8d3"/><path d="M27,4.6a1.6,1.6,0,1,1,1.6,1.6A1.6,1.6,0,0,1,27,4.6" transform="translate(-11.684 -1.085)" fill="#e9e8d3"/><path d="M6,4.6a1.6,1.6,0,1,1,1.6,1.6A1.6,1.6,0,0,1,6,4.6" transform="translate(-4.085 -1.085)" fill="#e9e8d3"/><path d="M6,49.6a1.6,1.6,0,1,1,1.6,1.6A1.6,1.6,0,0,1,6,49.6" transform="translate(-4.085 -17.744)" fill="#e9e8d3"/><path d="M34.125,32.829c0,2.115-2.714,3.829-6.063,3.829S22,34.944,22,32.829,24.714,29,28.063,29s6.063,1.714,6.063,3.829" transform="translate(-9.875 -10.735)" fill="#fcc62d"/><path d="M28.063,50.829C24.714,50.829,22,49.115,22,47v2.553c0,2.115,2.714,3.829,6.063,3.829s6.063-1.714,6.063-3.829V47c0,2.115-2.714,3.829-6.063,3.829" transform="translate(-9.875 -17.382)" fill="#d19d18"/><path d="M28.063,46.829C24.714,46.829,22,45.115,22,43v2.553c0,2.115,2.714,3.829,6.063,3.829s6.063-1.714,6.063-3.829V43c0,2.115-2.714,3.829-6.063,3.829" transform="translate(-9.875 -15.934)" fill="#e4af18"/><path d="M28.063,42.829C24.714,42.829,22,41.115,22,39v2.553c0,2.115,2.714,3.829,6.063,3.829s6.063-1.714,6.063-3.829V39c0,2.115-2.714,3.829-6.063,3.829" transform="translate(-9.875 -14.487)" fill="#d19d18"/><path d="M28.063,38.829C24.714,38.829,22,37.115,22,35v2.553c0,2.115,2.714,3.829,6.063,3.829s6.063-1.714,6.063-3.829V35c0,2.115-2.714,3.829-6.063,3.829" transform="translate(-9.875 -12.944)" fill="#e4af18"/><path d="M47.125,20.829c0,2.115-2.714,3.829-6.063,3.829S35,22.944,35,20.829,37.714,17,41.063,17s6.063,1.714,6.063,3.829" transform="translate(-14.578 -6.293)" fill="#fcc62d"/><path d="M18.074,26.81a5.585,5.585,0,0,0,.052-4.9c-.544-.159-2.139.317-2.322.833a3.173,3.173,0,0,0-2.145-.833c-1.037,0-1.476,1.085-1.791,1.194a1.538,1.538,0,0,1-.475.082,1.683,1.683,0,0,1-1.242-.59L7.772,19.987a8.265,8.265,0,0,0,0,10.227l2.357-2.59a1.708,1.708,0,0,1,1.524-.584,1.688,1.688,0,0,1,.239.061c.2.069,1.208,1.138,1.428,1.163.669,1.577,2.128.946,3.129.25a4.01,4.01,0,0,1,1.625-1.7" transform="translate(-4.085 -7.415)" fill="#e9e8d3"/><path d="M42.148,50.829a9.136,9.136,0,0,1-2.431-.322A3.968,3.968,0,0,1,38,52.34a8.217,8.217,0,0,0,4.148,1.042c3.349,0,6.063-1.714,6.063-3.829V47c0,2.115-2.714,3.829-6.063,3.829" transform="translate(-15.664 -17.382)" fill="#e4af18"/><path d="M43.122,46.829a9.2,9.2,0,0,1-2.234-.272v1.548a2.532,2.532,0,0,1-.2.954,9.136,9.136,0,0,0,2.431.322c3.349,0,6.063-1.714,6.063-3.829V43c0,2.115-2.714,3.829-6.063,3.829" transform="translate(-16.638 -15.934)" fill="#d19d18"/><path d="M43.234,42.829A9.2,9.2,0,0,1,41,42.557V45.11a9.2,9.2,0,0,0,2.234.272c3.349,0,6.063-1.714,6.063-3.829V39c0,2.115-2.714,3.829-6.063,3.829" transform="translate(-16.749 -14.487)" fill="#e4af18"/><path d="M43.234,38.829A9.2,9.2,0,0,1,41,38.557V41.11a9.2,9.2,0,0,0,2.234.272c3.349,0,6.063-1.714,6.063-3.829V35c0,2.115-2.714,3.829-6.063,3.829" transform="translate(-16.749 -12.944)" fill="#d19d18"/><path d="M43.234,34.829A9.2,9.2,0,0,1,41,34.557V37.11a9.2,9.2,0,0,0,2.234.272c3.349,0,6.063-1.714,6.063-3.829V31c0,2.115-2.714,3.829-6.063,3.829" transform="translate(-16.749 -11.465)" fill="#e4af18"/><path d="M42.854,30.829a8.952,8.952,0,0,1-2.9-.467,2.756,2.756,0,0,1,.669,1.743v1a9.2,9.2,0,0,0,2.234.272c3.349,0,6.063-1.714,6.063-3.829V27c0,2.115-2.714,3.829-6.063,3.829" transform="translate(-16.37 -9.985)" fill="#d19d18"/><path d="M41.063,26.829C37.714,26.829,35,25.115,35,23v2.553a2.756,2.756,0,0,0,.669,1.743,5.494,5.494,0,0,1,2.49,1.618,8.952,8.952,0,0,0,2.9.467c3.349,0,6.063-1.714,6.063-3.829V23c0,2.115-2.714,3.829-6.063,3.829" transform="translate(-14.578 -8.506)" fill="#e4af18"/><path d="M42.915,10.859V0H41V11.121a9.123,9.123,0,0,1,1.915-.262" transform="translate(-16.749)" fill="#607b53"/><path d="M39.915,11.121V0H38V11.891a7.148,7.148,0,0,1,1.915-.77" transform="translate(-15.664)" fill="#546949"/><path d="M36.915,11.891V0H35V14.679a3.394,3.394,0,0,1,1.915-2.788" transform="translate(-14.578 0)" fill="#607b53"/></svg>