<svg xmlns="http://www.w3.org/2000/svg" width="36" height="36" viewBox="0 0 36 36"><rect width="36" height="21.724" transform="translate(0 14.276)" fill="#a98258"/><path d="M47.483,41.241,45,43.724l2.483,2.483-1.241,1.241h6.828V40H46.241Z" transform="translate(-17.069 -15.172)" fill="#f4d5bd"/><path d="M11.255,3.1H4.194A.194.194,0,0,1,4,2.91V1.745A1.745,1.745,0,0,1,5.745,0H9.7a1.745,1.745,0,0,1,1.745,1.745V2.91A.194.194,0,0,1,11.255,3.1Z" transform="translate(-1.517)" fill="#f0c419"/><rect width="1.241" height="1.241" transform="translate(3.724 1.862)" fill="#aa891d"/><rect width="1.241" height="1.241" transform="translate(5.586 1.862)" fill="#aa891d"/><rect width="1.241" height="1.241" transform="translate(7.448 1.862)" fill="#aa891d"/><path d="M30.255,3.1H23.194A.194.194,0,0,1,23,2.91V1.745A1.745,1.745,0,0,1,24.745,0H28.7a1.745,1.745,0,0,1,1.745,1.745V2.91A.194.194,0,0,1,30.255,3.1Z" transform="translate(-8.724)" fill="#f0c419"/><rect width="1.241" height="1.241" transform="translate(15.517 1.862)" fill="#aa891d"/><rect width="1.241" height="1.241" transform="translate(17.379 1.862)" fill="#aa891d"/><rect width="1.241" height="1.241" transform="translate(19.241 1.862)" fill="#aa891d"/><path d="M49.255,3.1H42.194A.194.194,0,0,1,42,2.91V1.745A1.745,1.745,0,0,1,43.745,0H47.7a1.745,1.745,0,0,1,1.745,1.745V2.91A.194.194,0,0,1,49.255,3.1Z" transform="translate(-15.931)" fill="#f0c419"/><rect width="1.241" height="1.241" transform="translate(27.31 1.862)" fill="#aa891d"/><rect width="1.241" height="1.241" transform="translate(29.172 1.862)" fill="#aa891d"/><rect width="1.241" height="1.241" transform="translate(31.034 1.862)" fill="#aa891d"/><path d="M49.931,16.172V15.078a2.246,2.246,0,0,0-1.241-2.009,2.246,2.246,0,0,1-1.241-2.009V5H42.483v6.06a2.246,2.246,0,0,1-1.241,2.009A2.246,2.246,0,0,0,40,15.078v1.095Z" transform="translate(-15.172 -1.897)" fill="#6a3006"/><path d="M30.931,16.172V15.078a2.246,2.246,0,0,0-1.241-2.009,2.246,2.246,0,0,1-1.241-2.009V5H23.483v6.06a2.246,2.246,0,0,1-1.241,2.009A2.246,2.246,0,0,0,21,15.078v1.095Z" transform="translate(-7.966 -1.897)" fill="#6a3006"/><path d="M11.931,16.172V15.078a2.246,2.246,0,0,0-1.241-2.009A2.246,2.246,0,0,1,9.448,11.06V5H4.483v6.06a2.246,2.246,0,0,1-1.241,2.009A2.246,2.246,0,0,0,2,15.078v1.095Z" transform="translate(-0.759 -1.897)" fill="#6a3006"/><g transform="translate(0 27.931)"><rect width="6.207" height="1.241" transform="translate(0 5.586)" fill="#7c5f42"/><rect width="4.966" height="1.241" transform="translate(0 3.724)" fill="#7c5f42"/><rect width="3.724" height="1.241" transform="translate(0 1.862)" fill="#7c5f42"/><rect width="2.483" height="1.241" fill="#7c5f42"/></g></svg>