<svg xmlns="http://www.w3.org/2000/svg" width="45.294" height="36.456" viewBox="0 0 45.294 36.456"><path d="M424,139.878h1.551v-1.551a.776.776,0,1,1,1.551,0v1.551h1.551v-1.551a2.327,2.327,0,0,0-4.654,0Zm0,0" transform="translate(-424 -122.814)" fill="#3d4d63"/><path d="M428.654,176H424v3.1h4.654Zm0,0" transform="translate(-424 -158.936)" fill="#3d4d63"/><path d="M244.344,224.532h3.878a.776.776,0,0,0,.776-.776V216h-1.551v6.981h-2.715l-3.49-4.654-1.241.931,3.723,4.964A.775.775,0,0,0,244.344,224.532Zm0,0" transform="translate(-226.676 -195.057)" fill="#374559"/><path d="M273.551,240H272v3.1h1.551Zm0,0" transform="translate(-254.349 -216.73)" fill="#2a3845"/><path d="M11.635,176H0v3.1H11.635Zm0,0" transform="translate(33.659 -158.936)" fill="#3d4d63"/><path d="M169.939,237.186a1.939,1.939,0,0,0,1.939-1.939v-7.369L171.1,224h-2.327L168,227.878v7.369A1.939,1.939,0,0,0,169.939,237.186Zm0,0" transform="translate(-142.69 -202.282)" fill="#ffb531"/><path d="M160,173.43h2.327l1.551,1.551H177.84l1.551-1.551h6.981V168H160Zm0,0" transform="translate(-156.122 -151.711)" fill="#3d4d63"/><path d="M311.325,242.559l-2.5,10.627h-3.878l-.217-.776L304.3,250.9a7.753,7.753,0,0,1,.139-4.693,7.4,7.4,0,0,1,.582-1.288l1.241-2.164a1.9,1.9,0,0,0,.241-.915A1.827,1.827,0,0,0,304.661,240h7.268Zm0,0" transform="translate(-295.744 -216.73)" fill="#3d4d63"/><path d="M188.654,136H184v3.1h4.654Zm0,0" transform="translate(-160.996 -122.814)" fill="#374559"/><path d="M195.1,88H192v4.654h3.1Zm0,0" transform="translate(-168.219 -79.468)" fill="#3086cd"/><path d="M195.1,88H192v1.551h3.1Zm0,0" transform="translate(-168.219 -79.468)" fill="#2d7dbf"/><path d="M125.43,8.532h4.654a8.066,8.066,0,0,0,6.3-3.025l.315-.394a1.668,1.668,0,0,0-.474-2.49L131.635,0h-5.43L120,3.1a5.429,5.429,0,0,0,5.43,5.43Zm0,0" transform="translate(-103.215 0)" fill="#348fd9"/><path d="M273.551,136A1.551,1.551,0,0,0,272,137.551V139.1h3.1v-1.551A1.551,1.551,0,0,0,273.551,136Zm0,0" transform="translate(-255.891 -122.814)" fill="#3d4d63"/><path d="M123.878,160H120v6.981h3.878Zm0,0" transform="translate(-90.089 -144.487)" fill="#4c5d72"/><path d="M303.757,192H296v1.551h7.757Zm0,0" transform="translate(-286.807 -173.384)" fill="#2a3845"/><path d="M235.826,40.158V38.607a2.445,2.445,0,0,1-2.339-1.405l-.04-.1L232,37.66l.041.106a4,4,0,0,0,3.785,2.391Zm0,0" transform="translate(-212.774 -33.501)" fill="#2d7dbf"/><path d="M171.878,320H168v1.551h3.878Zm0,0" transform="translate(-142.69 -288.974)" fill="#f7a116"/><path d="M171.878,288H168v1.551h3.878Zm0,0" transform="translate(-142.69 -260.077)" fill="#f7a116"/><path d="M168,256.776l.155-.776h3.568l.155.776v.776H168Zm0,0" transform="translate(-142.69 -231.179)" fill="#f7a116"/><g transform="translate(8.264 25.596)"><path d="M339.213,265.551H336l.645-1.125a1.906,1.906,0,0,0,.172-.426h2.4Zm0,0" transform="translate(-334.386 -264)" fill="#2a3845"/><path d="M347.836,297.551H344a7.782,7.782,0,0,1,.222-.776,6.92,6.92,0,0,1,.32-.776h3.294Zm0,0" transform="translate(-343.785 -292.897)" fill="#2a3845"/><path d="M355.275,329.551h-3.158A7.8,7.8,0,0,1,352,328h3.273Zm0,0" transform="translate(-352 -321.795)" fill="#2a3845"/></g></svg>