<svg xmlns="http://www.w3.org/2000/svg" width="22.409" height="36" viewBox="0 0 22.409 36"><g transform="translate(-96.65 0)"><g transform="translate(103.326)"><path d="M202.593,4.613h-7.787a.549.549,0,0,1-.549-.534l-.085-3A1.045,1.045,0,0,1,195.216,0h6.967a1.045,1.045,0,0,1,1.044,1.074l-.085,3A.549.549,0,0,1,202.593,4.613Z" transform="translate(-194.171 0)" fill="#ffe082"/></g><path d="M203.668.3A1.086,1.086,0,0,0,202.9,0h-1.132l-.052,1.834a1.352,1.352,0,0,1-1.351,1.314h-5.385l.026.931a.549.549,0,0,0,.549.534h7.787a.549.549,0,0,0,.549-.534l.085-3A1.037,1.037,0,0,0,203.668.3Z" transform="translate(-91.599 0)" fill="#ffa000"/><circle cx="0.552" cy="0.552" r="0.552" transform="translate(105.157 1.457)" fill="#ffa000"/><circle cx="0.552" cy="0.552" r="0.552" transform="translate(106.841 1.917)" fill="#ffa000"/><circle cx="0.552" cy="0.552" r="0.552" transform="translate(109.457 1.583)" fill="#ffa000"/><g transform="translate(96.65 6.339)"><path d="M117.255,116.214h-18.8a1.8,1.8,0,0,1-1.8-1.789V94.256A2.624,2.624,0,0,1,98.3,91.819l3.534-1.435a1.653,1.653,0,0,0,1.039-1.535V87.076a.525.525,0,0,1,.527-.523h8.908a.525.525,0,0,1,.527.523v1.772a1.653,1.653,0,0,0,1.039,1.535l3.534,1.435a2.624,2.624,0,0,1,1.649,2.437v20.169A1.8,1.8,0,0,1,117.255,116.214Z" transform="translate(-96.65 -86.553)" fill="#66bb6a"/></g><path d="M149.084,227.669H133.937a.964.964,0,0,1-.937-.989V210.7a.964.964,0,0,1,.937-.989h15.146a.964.964,0,0,1,.937.989V226.68A.964.964,0,0,1,149.084,227.669Z" transform="translate(-33.688 -195.854)" fill="#ef5350"/><path d="M149.084,209.714h-1.84v11.9a4.474,4.474,0,0,1-4.35,4.588H133v.476a.964.964,0,0,0,.937.989h15.146a.964.964,0,0,0,.937-.989V210.7A.964.964,0,0,0,149.084,209.714Z" transform="translate(-33.688 -195.854)" fill="#ef5350"/><path d="M201.156,271.7l.11-1.489a4.186,4.186,0,1,0-8.346-.045l.113,1.534a.527.527,0,0,1-.229.477.813.813,0,0,0-.361.676h0a.814.814,0,0,0,.814.814h.863a.683.683,0,0,1,.677.594l.264,2.008a.4.4,0,0,0,.4.35h3.272a.4.4,0,0,0,.4-.35l.264-2.008a.683.683,0,0,1,.677-.594h.863a.814.814,0,0,0,.814-.814h0a.813.813,0,0,0-.361-.676A.527.527,0,0,1,201.156,271.7Z" transform="translate(-89.244 -247.314)" fill="#fff"/><path d="M118,151.841l-1.889-.76a2.576,2.576,0,0,1,.726,1.794v16.541a5.265,5.265,0,0,1-5.31,5.218H97.286a1.8,1.8,0,0,0,1.759,1.382h18.8a1.788,1.788,0,0,0,1.8-1.772V154.256A2.6,2.6,0,0,0,118,151.841Z" transform="translate(-0.589 -140.016)" fill="#388e3c"/><g transform="translate(101.136 3.514)"><path d="M175.8,51.9h-9.62A1.911,1.911,0,0,1,164.271,50v-.107a1.911,1.911,0,0,1,1.908-1.908h9.62a1.911,1.911,0,0,1,1.908,1.908V50A1.911,1.911,0,0,1,175.8,51.9Z" transform="translate(-164.271 -47.981)" fill="#66bb6a"/></g><path d="M175.664,47.981h-.318a2.041,2.041,0,0,1,.049.444v.107a1.848,1.848,0,0,1-1.775,1.908h-8.631a1.81,1.81,0,0,0,1.726,1.465h8.949A1.848,1.848,0,0,0,177.44,50v-.107A1.848,1.848,0,0,0,175.664,47.981Z" transform="translate(-63.334 -44.467)" fill="#388e3c"/><g transform="translate(106.666 25.464)"><path d="M241.592,364.742a.55.55,0,0,1-.513-.353.15.15,0,1,0-.245,0,.549.549,0,0,1-1.026-.393c.152-.4.565-1.068,1.148-1.068s1,.671,1.149,1.068a.55.55,0,0,1-.513.746Z" transform="translate(-239.771 -362.928)" fill="#757575"/></g><circle cx="1.046" cy="1.046" r="1.046" transform="translate(105.146 23.122)" fill="#757575"/><circle cx="1.046" cy="1.046" r="1.046" transform="translate(108.465 23.122)" fill="#757575"/><path d="M298.819,238.6a1.209,1.209,0,0,0-.613-.365.571.571,0,0,1-.428-.419,1.213,1.213,0,1,0-2.084,1.086l.048.05a.189.189,0,0,1,0,.268l-.883.883a4.186,4.186,0,0,1,.893,1.2l1.038-1.038a.191.191,0,0,1,.27,0h0a1.213,1.213,0,0,0,1.717,0A1.245,1.245,0,0,0,298.819,238.6Z" transform="translate(-184.403 -220.317)" fill="#e0e0e0"/><path d="M162.248,376.642a.191.191,0,0,1,0-.27L163.619,375a.683.683,0,0,0-.628-.415h-.863a.813.813,0,0,1-.171-.018l-.76.76a.189.189,0,0,1-.268,0l-.05-.048a1.213,1.213,0,1,0-1.086,2.084.571.571,0,0,1,.419.428,1.209,1.209,0,0,0,.365.613,1.245,1.245,0,0,0,1.67-.04,1.213,1.213,0,0,0,0-1.717Z" transform="translate(-57.878 -348.364)" fill="#e0e0e0"/><path d="M163.12,240.106l-.885-.885a.189.189,0,0,1,0-.268q.025-.024.048-.05a1.213,1.213,0,1,0-2.084-1.086.571.571,0,0,1-.428.419,1.209,1.209,0,0,0-.613.365,1.245,1.245,0,0,0,.04,1.67,1.213,1.213,0,0,0,1.717,0h0a.191.191,0,0,1,.27,0l1.035,1.035A4.2,4.2,0,0,1,163.12,240.106Z" transform="translate(-57.873 -220.315)" fill="#e0e0e0"/><path d="M292.376,375.291a1.218,1.218,0,0,0-1.636-.012l-.05.048a.189.189,0,0,1-.268,0l-.76-.76a.817.817,0,0,1-.171.018h-.863A.683.683,0,0,0,288,375l1.374,1.374a.191.191,0,0,1,0,.271h0a1.213,1.213,0,0,0,0,1.717,1.245,1.245,0,0,0,1.67.04,1.209,1.209,0,0,0,.365-.613.571.571,0,0,1,.419-.428,1.213,1.213,0,0,0,.55-2.072Z" transform="translate(-178.039 -348.366)" fill="#e0e0e0"/><g transform="translate(106.452 27.731)"><path d="M260.593,395.071a.549.549,0,0,0-.549.549v.919h1.1v-.919A.549.549,0,0,0,260.593,395.071Z" transform="translate(-258.346 -395.071)" fill="#757575"/><path d="M237.956,396.539v-.919a.549.549,0,1,0-1.1,0v.919Z" transform="translate(-236.857 -395.071)" fill="#757575"/></g><path d="M283.385,22.727a.552.552,0,0,0,.025-1.1l-.007.251a1.345,1.345,0,0,1-.281.785A.549.549,0,0,0,283.385,22.727Z" transform="translate(-173.38 -20.04)" fill="#ff8f00"/></g></svg>