<svg xmlns="http://www.w3.org/2000/svg" width="22.211" height="35.857" viewBox="0 0 22.211 35.857"><g transform="translate(-74.534)"><path d="M75.1,237.208a.561.561,0,0,1-.561-.561v-19.89H96.746v19.89a.561.561,0,0,1-.561.561Zm0,0" transform="translate(-0.001 -201.352)" fill="#42a5f5"/><path d="M99.357,216.758v13.248a5.782,5.782,0,0,1-5.782,5.782H83.382a4.752,4.752,0,0,1-2.975,1.4.568.568,0,0,0,.144.019h21.089a.561.561,0,0,0,.561-.561v-19.89Zm0,0" transform="translate(-5.454 -201.352)" fill="#1976d2"/><path d="M96.185,21.578H75.1a.561.561,0,0,0-.561.561V35.45H96.746V22.139a.561.561,0,0,0-.561-.561Zm0,0" transform="translate(0 -20.044)" fill="#cfd8dc"/><path d="M96.185,21.578H93.9v7.406a5.045,5.045,0,0,1-5.045,5.045H74.535V35.45H96.746V22.139a.561.561,0,0,0-.561-.561Zm0,0" transform="translate(-0.001 -20.044)" fill="#90a4ae"/><path d="M190.972,32.695h-3.046V21.88a.3.3,0,0,1,.3-.3h2.442a.3.3,0,0,1,.3.3Zm0,0" transform="translate(-105.332 -20.044)" fill="#cfd8dc"/><path d="M233.835,12.65h-3.046V.3a.3.3,0,0,1,.3-.3h2.442a.3.3,0,0,1,.3.3Zm0,0" transform="translate(-145.149)" fill="#cfd8dc"/><path d="M190.67,21.578h-1.119v8.311a1.384,1.384,0,0,1-1.384,1.384h-.241v1.421h3.046V21.88a.3.3,0,0,0-.3-.3Zm0,0" transform="translate(-105.332 -20.044)" fill="#90a4ae"/><path d="M233.533,0h-1.119V9.312A1.384,1.384,0,0,1,231.03,10.7h-.241V12.65h3.046V.3a.3.3,0,0,0-.3-.3Zm0,0" transform="translate(-145.149)" fill="#90a4ae"/><path d="M145.066,58.393h3.046V49.242h-2.744a.3.3,0,0,0-.3.3Zm0,0" transform="translate(-65.519 -45.742)" fill="#cfd8dc"/><path d="M167.926,143.145v2.476h1.421v-2.475Zm0,0" transform="translate(-86.754 -132.971)" fill="#90a4ae"/><path d="M102.2,58.393h3.046V49.544a.3.3,0,0,0-.3-.3h-2.442a.3.3,0,0,0-.3.3Zm0,0" transform="translate(-25.702 -45.742)" fill="#cfd8dc"/><path d="M125.066,143.145v2.476h1.421v-2.475Zm0,0" transform="translate(-46.94 -132.971)" fill="#90a4ae"/><g transform="translate(79.547)"><path d="M148.113,55.918h-3.046V49.544a.3.3,0,0,1,.3-.3h2.443a.3.3,0,0,1,.3.3Zm0,0" transform="translate(-145.067 -45.742)" fill="#ffa726"/><path d="M190.972,28.254h-3.046V21.88a.3.3,0,0,1,.3-.3h2.442a.3.3,0,0,1,.3.3Zm0,0" transform="translate(-184.88 -20.045)" fill="#ffa726"/><path d="M233.835,6.676h-3.046V.3a.3.3,0,0,1,.3-.3h2.442a.3.3,0,0,1,.3.3Zm0,0" transform="translate(-224.696)" fill="#ffa726"/></g><path d="M169.046,49.242h-1.12v6.676h1.421V49.544A.3.3,0,0,0,169.046,49.242Zm0,0" transform="translate(-86.754 -45.742)" fill="#f57c00"/><path d="M105.249,55.918H102.2V49.544a.3.3,0,0,1,.3-.3h2.442a.3.3,0,0,1,.3.3Zm0,0" transform="translate(-25.702 -45.742)" fill="#ffa726"/><path d="M126.185,49.242h-1.119v6.676h1.421V49.544A.3.3,0,0,0,126.185,49.242Zm0,0" transform="translate(-46.94 -45.742)" fill="#f57c00"/><path d="M316.512,58.393h3.046V49.544a.3.3,0,0,0-.3-.3h-2.442a.3.3,0,0,0-.3.3Zm0,0" transform="translate(-224.779 -45.742)" fill="#cfd8dc"/><path d="M339.375,143.145v2.476H340.8v-2.475Zm0,0" transform="translate(-246.017 -132.971)" fill="#90a4ae"/><path d="M273.652,58.393H276.7V49.544a.3.3,0,0,0-.3-.3h-2.442a.3.3,0,0,0-.3.3Zm0,0" transform="translate(-184.966 -45.742)" fill="#cfd8dc"/><path d="M296.512,143.145v2.476h1.421v-2.475Zm0,0" transform="translate(-206.201 -132.971)" fill="#90a4ae"/><path d="M319.558,55.918h-3.046V49.544a.3.3,0,0,1,.3-.3h2.442a.3.3,0,0,1,.3.3Zm0,0" transform="translate(-224.779 -45.742)" fill="#ffa726"/><path d="M340.494,49.242h-1.119v6.676H340.8V49.544A.3.3,0,0,0,340.494,49.242Zm0,0" transform="translate(-246.017 -45.742)" fill="#f57c00"/><path d="M276.7,55.918h-3.046V49.544a.3.3,0,0,1,.3-.3H276.4a.3.3,0,0,1,.3.3Zm0,0" transform="translate(-184.966 -45.742)" fill="#ffa726"/><path d="M297.632,49.242h-1.12v6.676h1.421V49.544A.3.3,0,0,0,297.632,49.242Zm0,0" transform="translate(-206.201 -45.742)" fill="#f57c00"/><path d="M211.908,21.578h-1.119v6.676h1.421V21.88A.3.3,0,0,0,211.908,21.578Zm0,0" transform="translate(-126.57 -20.044)" fill="#f57c00"/><path d="M254.771,0h-1.119V6.676h1.421V.3A.3.3,0,0,0,254.771,0Zm0,0" transform="translate(-166.387)" fill="#f57c00"/><path d="M74.535,216.758l11.106,11.106,11.106-11.106v5.736L85.641,233.6,74.535,222.494Zm0,0" transform="translate(-0.001 -201.352)" fill="#cfd8dc"/><path d="M347.043,219.6v5.736l2.843-2.843v-5.736Zm0,0" transform="translate(-253.14 -201.352)" fill="#b0bec5"/><path d="M117.409,119.115v.9a1.107,1.107,0,0,1-1.107,1.107H106.38a1.108,1.108,0,0,1-1.108-1.107v-.9a2.348,2.348,0,0,0-2.348-2.349h-.515a.206.206,0,0,0-.205.205v6.9h18.278v-6.9a.206.206,0,0,0-.205-.205h-.519A2.348,2.348,0,0,0,117.409,119.115Zm0,0" transform="translate(-25.702 -108.467)" fill="#fff"/><path d="M120.275,116.766h-.519a2.349,2.349,0,0,0-2.119,1.334v2.32a2.031,2.031,0,0,1-2.031,2.031H102.2v1.421h18.278v-6.9a.205.205,0,0,0-.205-.205Zm0,0" transform="translate(-25.702 -108.467)" fill="#b0bec5"/></g></svg>