<svg xmlns="http://www.w3.org/2000/svg" width="34.067" height="35.989" viewBox="0 0 34.067 35.989"><g transform="translate(-13.672 0)"><path d="M441.589,1.245,440.55.207a.707.707,0,1,0-1,1l1.038,1.038a.707.707,0,0,0,1-1Z" transform="translate(-395.751 0)" fill="#333"/><path d="M425.473,5.207a1.06,1.06,0,0,0-1.5,0l-3.364,3.364a1.06,1.06,0,0,0,1.5,1.5l3.364-3.364A1.06,1.06,0,0,0,425.473,5.207Z" transform="translate(-378.045 -4.552)" fill="#b6c7bf"/><g transform="translate(22.007 10.953)"><rect width="2.545" height="3.54" transform="translate(14.528 2.503) rotate(135)" fill="#d8e6e0"/><rect width="3.709" height="1.885" transform="translate(1.333 11.367) rotate(45)" fill="#d8e6e0"/></g><path d="M141.719,174.019l-1.277-1.277a1.679,1.679,0,0,0-2.254-.115l-4.326,3.525a1.683,1.683,0,0,0-.127,2.5l1.721,1.721a1.06,1.06,0,0,0,1.5-1.5l-1.378-1.378,3.645-2.969,1,1a1.06,1.06,0,0,0,1.5-1.5Z" transform="translate(-111.166 -160.14)" fill="#b6c7bf"/><g transform="translate(13.672 2.551)"><path d="M274.569,227.135a1.06,1.06,0,0,0-.955-.41,9.017,9.017,0,0,1-7.717-3.006,1.06,1.06,0,0,0-1.784.315l-1.208,3.1a1.06,1.06,0,0,0,.192,1.085,11.129,11.129,0,0,0,9.535,3.714,1.06,1.06,0,0,0,.875-.669l1.208-3.1A1.06,1.06,0,0,0,274.569,227.135Z" transform="translate(-245.319 -210.21)" fill="#707070"/><path d="M153.807,176.952l-2.75-2.75a1.06,1.06,0,0,0-1.5,0l-8.68,8.68a1.06,1.06,0,0,0,0,1.5L144,187.5l1.774,5.286a1.059,1.059,0,0,0,1.284.686l4.577-1.245a1.06,1.06,0,0,0,.276-1.927l-.439-.269L150.1,185l3.5-2.969a3.459,3.459,0,0,0,.208-5.082Z" transform="translate(-131.648 -164.22)" fill="#707070"/><path d="M25.079,330.23l-2.762-2.762a1.06,1.06,0,0,0-1.5,0L13.983,334.3a1.06,1.06,0,0,0,0,1.5l4.037,4.037a1.06,1.06,0,0,0,.75.311q.049,0,.1,0a1.06,1.06,0,0,0,.777-.456l5.56-8.11A1.06,1.06,0,0,0,25.079,330.23Z" transform="translate(-13.672 -306.713)" fill="#707070"/><path d="M305.812,38.891l-1.11-1.11-1.175-1.175a1.06,1.06,0,0,0-1.5,0l-7.564,7.565a1.06,1.06,0,0,0,0,1.5l1.23,1.23,2,2a1.06,1.06,0,0,0,.75.311l.066,0a1.06,1.06,0,0,0,.771-.408l6.616-8.513A1.06,1.06,0,0,0,305.812,38.891Z" transform="translate(-274.437 -36.295)" fill="#707070"/></g><g transform="translate(15.189 4.068)"><path d="M172.526,211.478a1.06,1.06,0,0,0-.5-1.054l-.439-.269-1.368-5.028,3.5-2.969a3.459,3.459,0,0,0,.208-5.082l-1.539-1.539L162.21,205.715l1.91,1.91,1.774,5.286a1.059,1.059,0,0,0,1.284.686l4.577-1.245A1.06,1.06,0,0,0,172.526,211.478Z" transform="translate(-153.286 -185.86)" fill="#333"/><path d="M39.709,359.754l5.56-8.11a1.06,1.06,0,0,0-.125-1.349l-1.556-1.556-8.334,8.334,2.831,2.831a1.06,1.06,0,0,0,.75.311q.049,0,.1,0A1.06,1.06,0,0,0,39.709,359.754Z" transform="translate(-35.254 -328.294)" fill="#333"/><path d="M319.349,68.871l6.616-8.513a1.06,1.06,0,0,0-.088-1.4L324.8,57.878l-9.064,9.064.023.023,2,2a1.06,1.06,0,0,0,.75.311l.066,0A1.061,1.061,0,0,0,319.349,68.871Z" transform="translate(-296.019 -57.878)" fill="#333"/></g><path d="M209.365,298.64a.707.707,0,0,0-1,0l-.543.543a.707.707,0,0,0,1,1l.543-.543A.707.707,0,0,0,209.365,298.64Z" transform="translate(-180.311 -277.456)" fill="#fff"/></g></svg>