<svg xmlns="http://www.w3.org/2000/svg" width="18.815" height="36.376" viewBox="0 0 18.815 36.376"><path d="M140.52,0H125.468a1.882,1.882,0,0,0-1.882,1.882V34.494a1.882,1.882,0,0,0,1.882,1.882H140.52a1.882,1.882,0,0,0,1.882-1.882V1.882A1.882,1.882,0,0,0,140.52,0ZM130.485,2.509a.627.627,0,0,1,.627-.627h3.763a.627.627,0,0,1,.627.627h0a.627.627,0,0,1-.627.627h-3.763a.627.627,0,0,1-.627-.627ZM128.6,1.882a.627.627,0,1,1-.627.627A.627.627,0,0,1,128.6,1.882Zm4.39,33.24a1.254,1.254,0,1,1,1.254-1.254A1.254,1.254,0,0,1,132.994,35.122Zm8.153-11.289v7.526H124.84V5.017h16.306V23.833Z" transform="translate(-123.586)" fill="#707384"/><path d="M141.241,89.436h5.017a.627.627,0,1,1,1.254,0h1.254a.627.627,0,1,1,1.254,0h1.254a.627.627,0,1,1,1.254,0h5.017V70.621H141.241ZM152.53,73.757a.627.627,0,0,1,.627-.627h2.509a.627.627,0,0,1,.627.627v2.509a.627.627,0,0,1-.627.627h-2.509a.627.627,0,0,1-.627-.627Zm0,5.017a.627.627,0,0,1,.627-.627h2.509a.627.627,0,0,1,.627.627v2.509a.627.627,0,0,1-.627.627h-2.509a.627.627,0,0,1-.627-.627Zm0,5.017a.627.627,0,0,1,.627-.627h2.509a.627.627,0,0,1,.627.627V86.3a.627.627,0,0,1-.627.627h-2.509a.627.627,0,0,1-.627-.627Zm-5.017-10.035a.627.627,0,0,1,.627-.627h2.509a.627.627,0,0,1,.627.627v2.509a.627.627,0,0,1-.627.627H148.14a.627.627,0,0,1-.627-.627Zm0,5.017a.627.627,0,0,1,.627-.627h2.509a.627.627,0,0,1,.627.627v2.509a.627.627,0,0,1-.627.627H148.14a.627.627,0,0,1-.627-.627Zm0,5.017a.627.627,0,0,1,.627-.627h2.509a.627.627,0,0,1,.627.627V86.3a.627.627,0,0,1-.627.627H148.14a.627.627,0,0,1-.627-.627ZM142.5,73.757a.627.627,0,0,1,.627-.627h2.509a.627.627,0,0,1,.627.627v2.509a.627.627,0,0,1-.627.627h-2.509a.627.627,0,0,1-.627-.627Zm0,5.017a.627.627,0,0,1,.627-.627h2.509a.627.627,0,0,1,.627.627v2.509a.627.627,0,0,1-.627.627h-2.509a.627.627,0,0,1-.627-.627Zm0,5.017a.627.627,0,0,1,.627-.627h2.509a.627.627,0,0,1,.627.627V86.3a.627.627,0,0,1-.627.627h-2.509a.627.627,0,0,1-.627-.627Z" transform="translate(-139.987 -65.604)" fill="#63afdb"/><path d="M151.9,336.075a.627.627,0,0,1-.627-.627H150.02a.627.627,0,0,1-1.254,0h-1.254a.627.627,0,1,1-1.254,0h-5.017v7.526h16.306v-7.526h-5.017A.627.627,0,0,1,151.9,336.075Zm-5.645,4.39a.627.627,0,0,1-.627.627h-2.509a.627.627,0,0,1-.627-.627v-2.509a.627.627,0,0,1,.627-.627h2.509a.627.627,0,0,1,.627.627Zm5.017,0a.627.627,0,0,1-.627.627h-2.509a.627.627,0,0,1-.627-.627v-2.509a.627.627,0,0,1,.627-.627h2.509a.627.627,0,0,1,.627.627Zm1.882-3.136h2.509a.627.627,0,0,1,.627.627v2.509a.627.627,0,0,1-.627.627h-2.509a.627.627,0,0,1-.627-.627v-2.509A.627.627,0,0,1,153.155,337.329Z" transform="translate(-139.985 -311.616)" fill="#468cbe"/><g transform="translate(4.39 1.881)"><path d="M221.316,27.736h3.763a.627.627,0,0,0,.627-.627h0a.627.627,0,0,0-.627-.627h-3.763a.627.627,0,0,0-.627.627h0A.627.627,0,0,0,221.316,27.736Z" transform="translate(-218.18 -26.482)" fill="#464655"/><ellipse cx="0.627" cy="0.627" rx="0.627" ry="0.627" fill="#464655"/><ellipse cx="1.254" cy="1.254" rx="1.254" ry="1.254" transform="translate(3.763 30.732)" fill="#464655"/></g><path d="M232.653,361.931h-2.509a.627.627,0,0,0-.627.627v2.509a.627.627,0,0,0,.627.627h2.509a.627.627,0,0,0,.627-.627v-2.509A.627.627,0,0,0,232.653,361.931Zm-1.254,3.136a1.254,1.254,0,1,1,1.254-1.254A1.254,1.254,0,0,1,231.4,365.067Z" transform="translate(-221.991 -336.217)" fill="#63afdb"/><path d="M300.138,365.067a.627.627,0,0,0,.627.627h2.509a.627.627,0,0,0,.627-.627v-2.509a.627.627,0,0,0-.627-.627h-2.509a.627.627,0,0,0-.627.627Z" transform="translate(-287.595 -336.217)" fill="#ff6469"/><path d="M162.032,361.931h-2.509a.627.627,0,0,0-.627.627v2.509a.627.627,0,0,0,.627.627h2.509a.627.627,0,0,0,.627-.627v-2.509A.627.627,0,0,0,162.032,361.931Z" transform="translate(-156.387 -336.217)" fill="#00dccd"/><path d="M230.144,250.935h2.509a.627.627,0,0,0,.627-.627V247.8a.627.627,0,0,0-.627-.627h-2.509a.627.627,0,0,0-.627.627v2.509A.627.627,0,0,0,230.144,250.935Z" transform="translate(-221.991 -229.611)" fill="#ffdc69"/><path d="M300.765,250.935h2.509a.627.627,0,0,0,.627-.627V247.8a.627.627,0,0,0-.627-.627h-2.509a.627.627,0,0,0-.627.627v2.509A.627.627,0,0,0,300.765,250.935Zm0-1.882a.627.627,0,0,1,.627-.627h1.254a.627.627,0,0,1,.627.627h0a.627.627,0,0,1-.627.627h-1.254a.627.627,0,0,1-.627-.627Z" transform="translate(-287.595 -229.611)" fill="#fff"/><path d="M159.523,250.935h2.509a.627.627,0,0,0,.627-.627V247.8a.627.627,0,0,0-.627-.627h-2.509a.627.627,0,0,0-.627.627v2.509A.627.627,0,0,0,159.523,250.935Zm0-1.882a.627.627,0,0,1,.627-.627H161.4a.627.627,0,0,1,.627.627h0a.627.627,0,0,1-.627.627H160.15a.627.627,0,0,1-.627-.627Z" transform="translate(-156.387 -229.611)" fill="#468cbe"/><path d="M230.144,180.314h2.509a.627.627,0,0,0,.627-.627v-2.509a.627.627,0,0,0-.627-.627h-2.509a.627.627,0,0,0-.627.627v2.509A.627.627,0,0,0,230.144,180.314Zm0-1.882a.627.627,0,0,1,.627-.627h1.254a.627.627,0,0,1,.627.627h0a.627.627,0,0,1-.627.627h-1.254a.627.627,0,0,1-.627-.627Z" transform="translate(-221.991 -164.008)" fill="#464655"/><path d="M300.765,180.314h2.509a.627.627,0,0,0,.627-.627v-2.509a.627.627,0,0,0-.627-.627h-2.509a.627.627,0,0,0-.627.627v2.509A.627.627,0,0,0,300.765,180.314Z" transform="translate(-287.595 -164.008)" fill="#ffa055"/><path d="M159.523,180.314h2.509a.627.627,0,0,0,.627-.627v-2.509a.627.627,0,0,0-.627-.627h-2.509a.627.627,0,0,0-.627.627v2.509A.627.627,0,0,0,159.523,180.314Zm1.254-3.136a1.254,1.254,0,1,1-1.254,1.254A1.254,1.254,0,0,1,160.778,177.178Z" transform="translate(-156.387 -164.008)" fill="#a0d778"/><path d="M230.144,109.694h2.509a.627.627,0,0,0,.627-.627v-2.509a.627.627,0,0,0-.627-.627h-2.509a.627.627,0,0,0-.627.627v2.509A.627.627,0,0,0,230.144,109.694Z" transform="translate(-221.991 -98.405)" fill="#ff6469"/><path d="M300.765,109.694h2.509a.627.627,0,0,0,.627-.627v-2.509a.627.627,0,0,0-.627-.627h-2.509a.627.627,0,0,0-.627.627v2.509A.627.627,0,0,0,300.765,109.694Zm1.254-3.136a1.254,1.254,0,1,1-1.254,1.254A1.254,1.254,0,0,1,302.02,106.558Z" transform="translate(-287.595 -98.405)" fill="#00dccd"/><g transform="translate(2.509 7.526)"><path d="M159.523,109.694h2.509a.627.627,0,0,0,.627-.627v-2.509a.627.627,0,0,0-.627-.627h-2.509a.627.627,0,0,0-.627.627v2.509A.627.627,0,0,0,159.523,109.694Z" transform="translate(-158.896 -105.931)" fill="#ffdc69"/><ellipse cx="1.254" cy="1.254" rx="1.254" ry="1.254" transform="translate(0.627 5.645)" fill="#ffdc69"/><ellipse cx="1.254" cy="1.254" rx="1.254" ry="1.254" transform="translate(5.645 18.815)" fill="#ffdc69"/></g><ellipse cx="1.254" cy="1.254" rx="1.254" ry="1.254" transform="translate(13.171 8.153)" fill="#ff6469"/><path d="M238.971,195.46h1.254a.627.627,0,0,0,.627-.627h0a.627.627,0,0,0-.627-.627h-1.254a.627.627,0,0,0-.627.627h0A.627.627,0,0,0,238.971,195.46Z" transform="translate(-230.191 -180.408)" fill="#468cbe"/><path d="M309.592,266.081h1.254a.627.627,0,0,0,.627-.627h0a.627.627,0,0,0-.627-.627h-1.254a.627.627,0,0,0-.627.627h0A.627.627,0,0,0,309.592,266.081Z" transform="translate(-295.794 -246.012)" fill="#ff6469"/><path d="M168.351,266.081h1.254a.627.627,0,0,0,.627-.627h0a.627.627,0,0,0-.627-.627h-1.254a.627.627,0,0,0-.627.627h0A.627.627,0,0,0,168.351,266.081Z" transform="translate(-164.588 -246.012)" fill="#fff"/><ellipse cx="0.627" cy="0.627" rx="0.627" ry="0.627" transform="translate(6.272 23.205)" fill="#464655"/><g transform="translate(8.78 23.205)"><ellipse cx="0.627" cy="0.627" rx="0.627" ry="0.627" fill="#fff"/><ellipse cx="0.627" cy="0.627" rx="0.627" ry="0.627" transform="translate(2.509)" fill="#fff"/></g></svg>