<svg xmlns="http://www.w3.org/2000/svg" width="35.999" height="36" viewBox="0 0 35.999 36"><g transform="translate(-0.004 0.001)"><path d="M198.9,0H177.8a1.242,1.242,0,0,0-1.241,1.241v9.931c6.856,0,6.207,5.558,6.207,12.414,0,6.544,1.139,11.906-5.285,12.38A1.224,1.224,0,0,0,177.8,36h21.1a1.242,1.242,0,0,0,1.241-1.241V1.241A1.242,1.242,0,0,0,198.9,0Zm0,0" transform="translate(-164.137)" fill="#90bae1"/><path d="M12.418,158.9a12.41,12.41,0,1,0,8.779,3.635,12.413,12.413,0,0,0-8.779-3.635Zm0,14.275a1.862,1.862,0,1,1,1.862-1.862A1.862,1.862,0,0,1,12.418,173.173Zm0,0" transform="translate(0 -147.726)" fill="#35495e"/><path d="M119.107,273.656a4.342,4.342,0,1,0,3.073,1.272,4.345,4.345,0,0,0-3.073-1.272Zm0,5.586A1.241,1.241,0,1,1,120.348,278,1.241,1.241,0,0,1,119.107,279.242Zm0,0" transform="translate(-106.689 -254.416)" fill="#ff5364"/><path d="M37.376,202.3a.621.621,0,0,1-.575-.853,10.616,10.616,0,0,1,5.827-5.827.621.621,0,1,1,.466,1.151,9.371,9.371,0,0,0-5.142,5.142A.62.62,0,0,1,37.376,202.3Zm0,0" transform="translate(-34.167 -181.821)" fill="#556080"/><path d="M82.3,241.425a.621.621,0,0,1-.5-.983,8.068,8.068,0,0,1,2.092-2.017.621.621,0,1,1,.687,1.034,6.837,6.837,0,0,0-1.772,1.707A.62.62,0,0,1,82.3,241.425Zm0,0" transform="translate(-75.93 -221.564)" fill="#556080"/><path d="M221.316,386.14a.621.621,0,0,1-.233-1.2,9.371,9.371,0,0,0,5.142-5.142.621.621,0,1,1,1.15.466,10.616,10.616,0,0,1-5.827,5.828A.617.617,0,0,1,221.316,386.14Zm0,0" transform="translate(-205.174 -352.725)" fill="#556080"/><path d="M226.922,391.532a.621.621,0,0,1-.344-1.138,6.843,6.843,0,0,0,1.772-1.708.621.621,0,0,1,1.008.725,8.067,8.067,0,0,1-2.092,2.017A.615.615,0,0,1,226.922,391.532Zm0,0" transform="translate(-210.385 -361.12)" fill="#556080"/><g transform="translate(20.486 5.585)"><path d="M291.934,91.381a.621.621,0,0,1-.621-.621V88.9a.621.621,0,0,1,1.241,0V90.76A.621.621,0,0,1,291.934,91.381Zm0,0" transform="translate(-291.313 -87.657)" fill="#464f5d"/><path d="M415.52,83.173a.621.621,0,0,1-.621-.621V80.07a.621.621,0,0,1,1.241,0v2.483A.621.621,0,0,1,415.52,83.173Zm0,0" transform="translate(-406.209 -79.449)" fill="#464f5d"/><path d="M336.073,158.9h8.69a.62.62,0,0,1,.621.62v1.241a.621.621,0,0,1-.621.621h-8.69a.621.621,0,0,1-.62-.621v-1.241A.62.62,0,0,1,336.073,158.9Zm0,0" transform="translate(-332.349 -153.312)" fill="#464f5d"/><path d="M337.176,469.1h-9.931a.621.621,0,1,1,0-1.241h9.931a.621.621,0,1,1,0,1.241Zm0,0" transform="translate(-324.142 -440.554)" fill="#464f5d"/><path d="M370,433.792h-7.448a.621.621,0,0,1,0-1.241H370a.621.621,0,0,1,0,1.241Zm0,0" transform="translate(-356.967 -407.724)" fill="#464f5d"/><path d="M411.035,398.483h-4.345a.621.621,0,1,1,0-1.241h4.345a.621.621,0,1,1,0,1.241Zm0,0" transform="translate(-398.001 -374.897)" fill="#464f5d"/><path d="M386.417,363.171H380.21a.621.621,0,0,1,0-1.241h6.207a.621.621,0,0,1,0,1.241Zm0,0" transform="translate(-373.383 -342.068)" fill="#464f5d"/><path d="M435.658,327.862h-2.483a.621.621,0,0,1,0-1.241h2.483a.621.621,0,0,1,0,1.241Zm0,0" transform="translate(-422.623 -309.242)" fill="#464f5d"/><path d="M386.417,292.55H380.21a.621.621,0,1,1,0-1.241h6.207a.621.621,0,1,1,0,1.241Zm0,0" transform="translate(-373.383 -276.413)" fill="#464f5d"/><path d="M402.832,257.241h-4.965a.621.621,0,0,1,0-1.241h4.965a.621.621,0,0,1,0,1.241Zm0,0" transform="translate(-389.797 -243.586)" fill="#464f5d"/><path d="M370,221.933h-7.448a.621.621,0,1,1,0-1.241H370a.621.621,0,1,1,0,1.241Zm0,0" transform="translate(-356.967 -210.761)" fill="#464f5d"/></g><path d="M203.661,33.83a.621.621,0,0,1-.476-1.018l3.1-3.724a.621.621,0,0,1,.8-.135l2.745,1.648,4.631-3.474a.622.622,0,0,1,.77.02l3.289,2.741,3.324-3.323a.621.621,0,1,1,.878.878L219,31.165a.62.62,0,0,1-.836.038l-3.347-2.79-4.573,3.43a.62.62,0,0,1-.692.036L206.9,30.29l-2.763,3.316A.62.62,0,0,1,203.661,33.83Zm0,0" transform="translate(-188.76 -24.52)" fill="#ff5364"/><path d="M222.28,33.932h-18.62a.621.621,0,0,1-.62-.621V27.1a.621.621,0,0,1,1.241,0v5.586h18a.621.621,0,0,1,0,1.241Zm0,0" transform="translate(-188.759 -24.623)" fill="#464f5d"/></g></svg>