<svg xmlns="http://www.w3.org/2000/svg" width="25.473" height="36.355" viewBox="0 0 25.473 36.355"><path d="M133.3,5.164V0h-6.351V5.164" transform="translate(-117.939)" fill="#49bd90"/><path d="M129.472,5.164V0h-2.519V5.164" transform="translate(-117.939)" fill="#218f68"/><path d="M66.961,70.448l-4.529,1.608-12.8-1.608a10.143,10.143,0,0,1,17.332,0Zm0,0" transform="translate(-46.105 -60.922)" fill="#ccc"/><path d="M126.671,73.816H113.9a10.158,10.158,0,0,1,6.385-4.613A10.16,10.16,0,0,1,126.671,73.816Zm0,0" transform="translate(-105.814 -64.289)" fill="#e6e6e6"/><path d="M49.121,150.547l-20.285,1.3v21.9l20.285,1.172Zm0,0" transform="translate(-26.788 -139.857)" fill="#49bd90"/><path d="M28.836,168.84H34.2v21.9H28.836Zm0,0" transform="translate(-26.788 -156.851)" fill="#218f68"/><path d="M24.38,478.555a1.231,1.231,0,0,1-1.231,1.231H1.231a1.231,1.231,0,0,1,0-2.462H23.149a1.231,1.231,0,0,1,1.231,1.231Zm0,0" transform="translate(0 -443.431)" fill="#b3b3b3"/><path d="M24.38,135.388a1.231,1.231,0,0,1-1.231,1.231H1.231a1.232,1.232,0,0,1,0-2.463H23.149a1.232,1.232,0,0,1,1.231,1.232Zm0,0" transform="translate(0 -124.63)" fill="#b3b3b3"/><path d="M99.135,478.555a1.231,1.231,0,0,1-1.231,1.231H81.7a1.231,1.231,0,1,1,0-2.462H97.9a1.231,1.231,0,0,1,1.231,1.231Zm0,0" transform="translate(-74.755 -443.431)" fill="#ccc"/><path d="M99.135,135.388a1.231,1.231,0,0,1-1.231,1.231H81.7a1.232,1.232,0,0,1,0-2.463H97.9a1.232,1.232,0,0,1,1.231,1.232Zm0,0" transform="translate(-74.755 -124.63)" fill="#ccc"/><path d="M154.3,221.4a7.346,7.346,0,1,1,0-10.945" transform="translate(-131.968 -193.771)" fill="#e6e6e6"/><path d="M193.519,3.5a1.749,1.749,0,0,1,0-3.5" transform="translate(-178.153)" fill="#e6e6e6"/><path d="M268.382,3.216a.557.557,0,0,1-.158-1.09L273.567.547a.556.556,0,1,1,.315,1.067l-5.343,1.578A.558.558,0,0,1,268.382,3.216Zm0,0" transform="translate(-248.808 -0.487)" fill="#ffd061"/><path d="M273.725,54.575a.556.556,0,0,1-.158-.023l-5.343-1.578a.556.556,0,1,1,.315-1.067l5.343,1.578a.557.557,0,0,1-.157,1.09Zm0,0" transform="translate(-248.808 -48.2)" fill="#ffd061"/></svg>