<svg xmlns="http://www.w3.org/2000/svg" width="36.064" height="36.064" viewBox="0 0 36.064 36.064"><path d="M34.1,16.805H1.964A1.964,1.964,0,0,1,0,14.841V38.356a1.456,1.456,0,0,0,1.456,1.456H34.609a1.455,1.455,0,0,0,1.455-1.456V14.841A1.964,1.964,0,0,1,34.1,16.805Z" transform="translate(0 -5.613)" fill="#5e5d58"/><path d="M4.877,56.865H3.611A.611.611,0,0,1,3,56.255V55H5.487v1.255A.611.611,0,0,1,4.877,56.865Z" transform="translate(-1.135 -20.801)" fill="#3f3e3a"/><path d="M52.877,56.865H51.611A.611.611,0,0,1,51,56.255V55h2.487v1.255A.611.611,0,0,1,52.877,56.865Z" transform="translate(-19.288 -20.801)" fill="#3f3e3a"/><rect width="5.596" height="23.007" transform="translate(6.84 11.192)" fill="#686763"/><rect width="5.596" height="23.007" transform="translate(23.628 11.192)" fill="#686763"/><path d="M34.1,6H23.628V9.731H21.141V6H14.923V9.731H12.436V6H1.964A1.964,1.964,0,0,0,0,7.964V11.5a1.964,1.964,0,0,0,1.964,1.964H34.1A1.964,1.964,0,0,0,36.064,11.5V7.964A1.964,1.964,0,0,0,34.1,6ZM8.083,10.974H3.109V8.487H8.083Z" transform="translate(0 -2.269)" fill="#3f3e3a"/><rect width="3.109" height="1.244" transform="translate(32.955 6.84)" fill="#5e5d58"/><rect width="4.974" height="2.487" transform="translate(3.109 6.218)" fill="#ffd16c"/><rect width="19.898" height="1.244" transform="translate(8.083 6.84)" fill="#5e5d58"/><rect width="3.109" height="1.244" transform="translate(0 6.84)" fill="#5e5d58"/><rect width="1.244" height="2.487" transform="translate(4.353 6.218)" fill="#b19046"/><rect width="4.974" height="2.487" transform="translate(27.981 6.218)" fill="#ffd16c"/><rect width="1.244" height="2.487" transform="translate(30.468 6.218)" fill="#b19046"/><path d="M20,2.092V8.083h2.487v-5.2a.393.393,0,0,1,.394-.394h5.431a.393.393,0,0,1,.394.394v5.2h2.487V2.092A2.092,2.092,0,0,0,29.1,0H22.092A2.092,2.092,0,0,0,20,2.092Z" transform="translate(-7.564)" fill="#b19046"/></svg>