<svg xmlns="http://www.w3.org/2000/svg" width="49.442" height="36" viewBox="0 0 49.442 36"><g transform="translate(0 -38.45)"><path d="M60,422.07v5.259a.965.965,0,0,1-.966.965H14.049a.965.965,0,0,1-.966-.965V422.07Z" transform="translate(-11.82 -353.844)" fill="#80c1b4"/><rect width="46.915" height="3.621" transform="translate(1.263 68.226)" fill="#59aa97"/><path d="M49.442,122.315v28.843a1.125,1.125,0,0,1-1.13,1.119H1.13A1.125,1.125,0,0,1,0,151.158V122.315A1.125,1.125,0,0,1,1.13,121.2H48.312A1.125,1.125,0,0,1,49.442,122.315Z" transform="translate(0 -81.723)" fill="#fe9700"/><g transform="translate(0 39.473)"><path d="M107.227,136.218v3.245a2.114,2.114,0,0,1-2.112,2.112H98.969a2.115,2.115,0,0,1-2.112-2.112v-3.245a2.114,2.114,0,0,1,1.458-2.008V121.2h7.491v13.028A2.114,2.114,0,0,1,107.227,136.218Z" transform="translate(-87.504 -121.196)" fill="#f26200"/><path d="M318.125,136.218v3.245a2.115,2.115,0,0,1-2.112,2.112h-6.146a2.114,2.114,0,0,1-2.112-2.112v-3.245a2.114,2.114,0,0,1,1.458-2.008V121.2H316.7v13.028A2.114,2.114,0,0,1,318.125,136.218Z" transform="translate(-278.036 -121.196)" fill="#f26200"/><path d="M8.739,121.2A8.749,8.749,0,0,1,0,129.934v-7.609a1.131,1.131,0,0,1,1.13-1.13H8.739Z" transform="translate(0 -121.195)" fill="#f26200"/><path d="M429.624,122.326v7.608h-.066a8.749,8.749,0,0,1-8.739-8.739h7.675A1.13,1.13,0,0,1,429.624,122.326Z" transform="translate(-380.182 -121.196)" fill="#f26200"/><path d="M8.739,364.414H1.13A1.131,1.131,0,0,1,0,363.284v-7.609A8.749,8.749,0,0,1,8.739,364.414Z" transform="translate(0 -333.333)" fill="#f26200"/><path d="M429.624,355.677v7.608a1.13,1.13,0,0,1-1.13,1.13h-7.675a8.749,8.749,0,0,1,8.739-8.739Z" transform="translate(-380.182 -333.333)" fill="#f26200"/></g><g transform="translate(0 39.472)"><path d="M7.446,121.2A7.445,7.445,0,0,1,0,128.641v-6.316a1.131,1.131,0,0,1,1.13-1.13Z" transform="translate(0 -121.195)" fill="#80c1b4"/><path d="M441.722,122.324v6.315h-.066a7.445,7.445,0,0,1-7.446-7.446h6.382A1.13,1.13,0,0,1,441.722,122.324Z" transform="translate(-392.28 -121.194)" fill="#80c1b4"/><path d="M7.446,376.514H1.13A1.131,1.131,0,0,1,0,375.384v-6.316A7.445,7.445,0,0,1,7.446,376.514Z" transform="translate(0 -345.432)" fill="#80c1b4"/><path d="M441.722,369.069v6.315a1.13,1.13,0,0,1-1.13,1.13H434.21a7.445,7.445,0,0,1,7.446-7.446Z" transform="translate(-392.28 -345.432)" fill="#80c1b4"/></g><path d="M130.256,111.165v15.817a.56.56,0,0,1-.56.56h-3.783a.56.56,0,0,1-.561-.56V111.165a.56.56,0,0,1,.561-.56H129.7A.56.56,0,0,1,130.256,111.165Z" transform="translate(-113.247 -72.155)" fill="#b5e5dc"/><path d="M130.256,254.882v2.445a.56.56,0,0,1-.56.56h-3.783a.56.56,0,0,1-.561-.56v-2.445Z" transform="translate(-113.247 -202.626)" fill="#80c1b4"/><path d="M143.573,239.021a.746.746,0,0,1-.746-.746V235.92a.746.746,0,1,1,1.492,0v2.355A.746.746,0,0,1,143.573,239.021Z" transform="translate(-129.035 -184.806)" fill="#e4f4f0"/><path d="M117.218,273.154h-6.146a.819.819,0,0,1-.819-.819V269.09a.819.819,0,0,1,.819-.819h6.146a.819.819,0,0,1,.819.819v3.246A.819.819,0,0,1,117.218,273.154Z" transform="translate(-99.606 -214.741)" fill="#fec007"/><path d="M341.155,111.165v15.817a.56.56,0,0,1-.561.56h-3.783a.56.56,0,0,1-.56-.56V111.165a.56.56,0,0,1,.56-.56h3.783A.56.56,0,0,1,341.155,111.165Z" transform="translate(-303.781 -72.155)" fill="#b5e5dc"/><path d="M341.155,254.882v2.445a.56.56,0,0,1-.561.56h-3.783a.56.56,0,0,1-.56-.56v-2.445Z" transform="translate(-303.781 -202.626)" fill="#80c1b4"/><path d="M354.467,239.021a.746.746,0,0,1-.746-.746V235.92a.746.746,0,1,1,1.492,0v2.355A.746.746,0,0,1,354.467,239.021Z" transform="translate(-319.564 -184.806)" fill="#e4f4f0"/><path d="M328.112,273.154h-6.146a.819.819,0,0,1-.819-.819V269.09a.819.819,0,0,1,.819-.819h6.146a.819.819,0,0,1,.819.819v3.246A.819.819,0,0,1,328.112,273.154Z" transform="translate(-290.135 -214.741)" fill="#fec007"/></g></svg>