<svg xmlns="http://www.w3.org/2000/svg" width="36.358" height="36.273" viewBox="0 0 36.358 36.273"><g transform="translate(0 -0.235)"><path d="M217.263,15.9l-1.691-6.765a.627.627,0,0,1,.22-.644l7.917-6.264a.464.464,0,0,0,.1-.618l-.318-.487A.464.464,0,0,1,223.857.4l3.47-.165a.464.464,0,0,1,.433.68L226.136,4a.464.464,0,0,1-.8.033h0a.465.465,0,0,0-.7-.1l-5.747,5a.627.627,0,0,0-.2.614l1,4.346a.628.628,0,0,0,1.055.3l7.371-7.371a.464.464,0,0,0,0-.657h0a.464.464,0,0,1,.206-.776l3.365-.918a.464.464,0,0,1,.57.57l-.918,3.365a.464.464,0,0,1-.776.206h0a.464.464,0,0,0-.657,0L222.527,16a.628.628,0,0,0,.3,1.054l4.444,1.075a.628.628,0,0,0,.621-.2l5-5.743a.465.465,0,0,0-.1-.7h0a.464.464,0,0,1,.033-.8l3.087-1.625a.464.464,0,0,1,.68.433l-.165,3.482a.465.465,0,0,1-.713.37l-.42-.267a.464.464,0,0,0-.61.1l-6.34,7.854a.628.628,0,0,1-.646.214l-6.852-1.773Zm0,0" transform="translate(-200.23 0)" fill="#f0c419"/><path d="M44.711,256.322l14.1-14.1,1.79,1.789-14.1,14.1Zm0,0" transform="translate(-41.533 -224.782)" fill="#f29c1f"/><path d="M6.327,424.664A3.164,3.164,0,1,1,3.164,421.5,3.164,3.164,0,0,1,6.327,424.664Zm0,0" transform="translate(0 -391.319)" fill="#f0c419"/><path d="M29.234,449.465a1.265,1.265,0,1,1-1.265-1.266A1.265,1.265,0,0,1,29.234,449.465Zm0,0" transform="translate(-24.805 -416.121)" fill="#f3d55b"/><path d="M219.617,220.547l3.579,3.579-1.346,1.346a.628.628,0,0,1-.887,0l-2.692-2.692a.628.628,0,0,1,0-.887Zm0,0" transform="translate(-202.585 -204.651)" fill="#e57e25"/></g></svg>