<?xml version="1.0" encoding="utf-8"?>
<!-- Generator: Adobe Illustrator 22.0.0, SVG Export Plug-In . SVG Version: 6.00 Build 0)  -->
<svg version="1.1" id="Слой_1" xmlns="http://www.w3.org/2000/svg" xmlns:xlink="http://www.w3.org/1999/xlink" x="0px" y="0px"
	 viewBox="0 0 386.4 201.7" style="enable-background:new 0 0 386.4 201.7;" xml:space="preserve">
<style type="text/css">
	.st0{fill:#FFFFFF;}
	.st1{enable-background:new    ;}
</style>
<g>
	<path class="st0" d="M105.7,54.3c18.7,3.3,89,18.3,89,18.3l-49-41L105.7,54.3z"/>
	<polygon class="st0" points="73,62.7 152,19 89.7,19 	"/>
	<polygon class="st0" points="54.3,88.7 87,2.3 38.7,45.5 	"/>
	<polygon class="st0" points="55.7,120.3 26.7,31.7 16.3,96.3 	"/>
	<polygon class="st0" points="78.7,145 1.7,96.7 33,151.7 	"/>
	<polygon class="st0" points="110.3,148 22,161.7 81.7,184 	"/>
	<polygon class="st0" points="138.3,131 138.3,176.3 78.7,198.7 	"/>
</g>
<g class="st1">
	<path class="st0" d="M125.7,99.9c0,0.9,0,2.1-0.1,3.4s-0.3,2.7-0.6,4.2s-0.7,2.9-1.3,4.4c-0.6,1.4-1.3,2.7-2.2,3.9
		s-2.1,2.1-3.4,2.8c-1.4,0.7-3,1.1-4.9,1.1c-1.9,0-3.6-0.4-4.9-1.1c-1.4-0.7-2.5-1.7-3.4-2.9s-1.7-2.5-2.2-4c-0.5-1.5-1-2.9-1.2-4.4
		c-0.3-1.5-0.5-2.9-0.5-4.2c-0.1-1.3-0.1-2.4-0.1-3.3c0-1,0-2.1,0.1-3.5c0.1-1.4,0.3-2.8,0.6-4.3s0.7-2.9,1.3-4.4s1.3-2.7,2.2-3.9
		c0.9-1.1,2.1-2.1,3.4-2.8c1.3-0.7,3-1.1,4.8-1.1s3.5,0.4,4.9,1.1c1.4,0.7,2.5,1.7,3.4,2.8c0.9,1.2,1.7,2.5,2.2,3.9
		c0.6,1.5,1,2.9,1.3,4.4c0.3,1.5,0.5,2.9,0.6,4.2C125.7,97.8,125.7,99,125.7,99.9z M113.1,82.9c-1.2,0-2.2,0.3-3,0.8
		c-0.8,0.6-1.5,1.3-2.1,2.2c-0.6,0.9-1,2-1.4,3.2c-0.4,1.2-0.6,2.4-0.8,3.7c-0.2,1.3-0.3,2.5-0.4,3.7c-0.1,1.2-0.1,2.4-0.1,3.4
		c0,0.9,0,1.9,0.1,3c0.1,1.2,0.2,2.4,0.3,3.7s0.4,2.5,0.8,3.7c0.3,1.2,0.8,2.3,1.4,3.3c0.6,1,1.3,1.8,2.2,2.4s1.9,0.9,3.1,0.9
		c1.2,0,2.2-0.3,3-0.9c0.8-0.5,1.6-1.3,2.1-2.2c0.6-0.9,1.1-1.9,1.4-3.1c0.4-1.2,0.6-2.4,0.8-3.6c0.2-1.2,0.3-2.5,0.4-3.7
		c0.1-1.2,0.1-2.4,0.1-3.5c0-0.9,0-1.9-0.1-3.1c0-1.2-0.2-2.4-0.3-3.7c-0.2-1.3-0.4-2.5-0.8-3.7c-0.3-1.2-0.8-2.3-1.4-3.3
		c-0.6-1-1.3-1.8-2.2-2.4C115.4,83.2,114.4,82.9,113.1,82.9z"/>
	<path class="st0" d="M132,117.2V83.1c0-0.9,0.2-1.7,0.7-2.2c0.5-0.5,1.1-0.8,1.8-0.8c0.6,0,1.1,0.2,1.6,0.5c0.5,0.3,0.9,1,1.3,1.8
		l13.4,29.1h0.2V83.2c0-1.1,0.2-1.9,0.5-2.4c0.3-0.5,0.7-0.8,1.2-0.8c0.4,0,0.8,0.2,1.1,0.6c0.3,0.4,0.5,1,0.5,1.9v33.9
		c0,1-0.2,1.8-0.7,2.4c-0.5,0.6-1,0.8-1.7,0.8c-1.3,0-2.3-0.7-3-2.2l-13.4-29.2h-0.2v28.3c0,1.1-0.2,1.9-0.5,2.4
		c-0.3,0.5-0.7,0.8-1.2,0.8s-0.8-0.2-1.1-0.6C132.1,118.7,132,118.1,132,117.2z"/>
	<path class="st0" d="M179,89.8c-0.8,0-1.4-0.3-1.8-0.8c-0.4-0.6-0.6-1.5-0.6-2.8V83h-9.7v14.7h8.6c0.4,0,0.6,0.2,0.8,0.5
		c0.2,0.3,0.3,0.7,0.3,1.1c0,0.2,0,0.4-0.1,0.5c-0.1,0.2-0.2,0.3-0.3,0.5c-0.1,0.1-0.2,0.3-0.4,0.4c-0.1,0.1-0.3,0.1-0.4,0.1h-8.6
		v16h10.3v-3.1c0-1.3,0.2-2.3,0.6-2.8c0.4-0.6,1-0.8,1.8-0.8c0.6,0,1,0.2,1.3,0.7s0.4,1.1,0.4,2.1v4.9c0,0.8-0.2,1.4-0.6,1.7
		c-0.4,0.3-1,0.4-1.9,0.4h-14.6c-1.3,0-1.9-0.9-1.9-2.8V82.8c0-1.9,0.6-2.8,1.9-2.8h13.9c0.9,0,1.5,0.1,1.9,0.4
		c0.4,0.3,0.6,0.8,0.6,1.7V87c0,1-0.1,1.7-0.4,2.1C180.1,89.6,179.6,89.8,179,89.8z"/>
</g>
<g class="st1">
	<path class="st0" d="M211.7,119.7H199c-0.8,0-1.2-0.4-1.2-1.3c0-0.5,0.1-0.9,0.3-1.2c0.2-0.3,0.7-0.4,1.3-0.4h3.7V83h-3.7
		c-0.6,0-1.1-0.1-1.3-0.4c-0.2-0.3-0.3-0.7-0.3-1.2c0-0.9,0.4-1.3,1.2-1.3h12.6c0.8,0,1.2,0.4,1.2,1.3c0,1.1-0.5,1.6-1.6,1.6h-3.7
		v33.8h3.7c1.1,0,1.6,0.5,1.6,1.6C212.9,119.3,212.5,119.7,211.7,119.7z"/>
	<path class="st0" d="M243.9,119.7c-0.8,0-1.5-0.4-1.9-1.1c-0.4-0.7-0.6-1.8-0.6-3.2V88.3h-0.3l-8.4,29.4c-0.4,1.4-1,2.1-1.7,2.1
		c-0.4,0-0.7-0.2-1-0.5c-0.3-0.3-0.6-0.9-0.7-1.6l-7.9-29.4h-0.3v28.3c0,0.6-0.1,1.1-0.2,1.5c-0.1,0.4-0.2,0.7-0.4,1
		c-0.2,0.2-0.3,0.4-0.5,0.5c-0.2,0.1-0.4,0.2-0.6,0.2c-0.4,0-0.8-0.2-1.1-0.6s-0.5-1-0.5-1.9V83c0-0.5,0.1-0.9,0.2-1.3
		c0.2-0.4,0.4-0.7,0.6-0.9s0.5-0.4,0.8-0.6c0.3-0.1,0.6-0.2,1-0.2c0.3,0,0.5,0,0.8,0.1c0.3,0.1,0.6,0.2,0.9,0.5
		c0.3,0.2,0.6,0.5,0.8,0.8c0.2,0.3,0.4,0.8,0.6,1.3l7.9,29.7h0.2l8.5-29.4c0.2-0.6,0.4-1,0.6-1.4c0.2-0.4,0.5-0.7,0.8-0.9
		c0.3-0.2,0.6-0.4,0.9-0.5c0.3-0.1,0.7-0.2,1-0.2c0.7,0,1.3,0.2,1.6,0.7c0.3,0.5,0.5,1.2,0.5,2.3v33.9c0,1-0.1,1.8-0.4,2.2
		C245,119.5,244.6,119.7,243.9,119.7z"/>
	<path class="st0" d="M257.2,109.1l-2.1,7.6c-0.3,1.2-0.7,2-1.1,2.4s-0.9,0.6-1.4,0.6c-0.4,0-0.7-0.1-0.8-0.4
		c-0.2-0.3-0.3-0.7-0.3-1.1c0-0.4,0.1-0.8,0.2-1.3l9.7-35.5c0.1-0.4,0.4-0.8,0.8-1c0.4-0.2,0.9-0.3,1.5-0.3c0.6,0,1.1,0.1,1.6,0.4
		c0.5,0.3,0.8,0.6,0.9,1.1l9.4,35.5c0.1,0.3,0.1,0.6,0.1,0.8c0,0.5-0.1,1-0.4,1.3s-0.7,0.5-1.2,0.5c-1.5,0-2.5-1-3.1-3l-2.2-7.6
		H257.2z M268.1,106.2l-5-19.5h-0.3l-5,19.5H268.1z"/>
	<path class="st0" d="M299.4,90.1c-0.8,0-1.4-0.3-1.8-0.8c-0.4-0.6-0.6-1.5-0.6-2.8v-3.1c-0.9-0.3-2-0.5-3.3-0.5
		c-1.4,0-2.6,0.4-3.8,1.1c-1.1,0.8-2.1,1.9-3,3.3c-0.8,1.5-1.5,3.3-2,5.5c-0.5,2.2-0.7,4.7-0.7,7.5c0,3.2,0.2,5.8,0.6,7.9
		c0.4,2.1,1,3.8,1.8,5.1c0.8,1.3,1.7,2.2,2.8,2.7c1.1,0.5,2.4,0.8,3.8,0.8c1.9,0,3.6-0.4,4.9-1.1v-12.1h-4.6c-0.3,0-0.6-0.2-0.8-0.5
		c-0.2-0.3-0.3-0.7-0.3-1.1c0-0.4,0.1-0.8,0.3-1.1c0.2-0.3,0.5-0.5,0.9-0.5h7c0.7,0,1.2,0.2,1.4,0.5c0.2,0.4,0.4,0.9,0.4,1.7v11.6
		c0,0.5,0,1-0.1,1.3c-0.1,0.4-0.1,0.7-0.2,0.9c-0.1,0.2-0.2,0.4-0.4,0.6c-0.2,0.2-0.4,0.3-0.6,0.4c-2.6,1.4-5.5,2.1-8.7,2.1
		c-2.3,0-4.2-0.5-5.8-1.4s-2.9-2.2-4-3.9c-1-1.7-1.8-3.7-2.3-6.2c-0.5-2.4-0.7-5.1-0.7-8.2c0-3.4,0.4-6.4,1.1-9
		c0.7-2.5,1.7-4.6,2.9-6.3c1.2-1.6,2.7-2.9,4.3-3.7c1.6-0.8,3.4-1.2,5.3-1.2c0.6,0,1.4,0,2.1,0.1c0.8,0.1,1.5,0.2,2.3,0.4
		c0.7,0.2,1.4,0.4,2,0.7c0.6,0.3,1,0.6,1.2,1c0.2,0.4,0.3,0.9,0.3,1.8v3.3C301.1,89.2,300.5,90.1,299.4,90.1z"/>
	<path class="st0" d="M326,89.8c-0.8,0-1.4-0.3-1.8-0.8c-0.4-0.6-0.6-1.5-0.6-2.8V83h-9.7v14.7h8.6c0.4,0,0.6,0.2,0.8,0.5
		c0.2,0.3,0.3,0.7,0.3,1.1c0,0.2,0,0.4-0.1,0.5c-0.1,0.2-0.2,0.3-0.3,0.5c-0.1,0.1-0.2,0.3-0.4,0.4c-0.1,0.1-0.3,0.1-0.4,0.1h-8.6
		v16h10.3v-3.1c0-1.3,0.2-2.3,0.6-2.8s1-0.8,1.8-0.8c0.6,0,1,0.2,1.3,0.7c0.3,0.4,0.4,1.1,0.4,2.1v4.9c0,0.8-0.2,1.4-0.6,1.7
		c-0.4,0.3-1,0.4-1.9,0.4h-14.6c-1.3,0-1.9-0.9-1.9-2.8V82.8c0-1.9,0.6-2.8,1.9-2.8h13.9c0.9,0,1.5,0.1,1.9,0.4
		c0.4,0.3,0.6,0.8,0.6,1.7V87c0,1-0.1,1.7-0.4,2.1C327,89.6,326.6,89.8,326,89.8z"/>
</g>
<g class="st1">
	<path class="st0" d="M154.8,128v7.4h0c0.4-0.6,0.9-1,1.5-1.3c0.6-0.3,1.2-0.4,1.9-0.4c3.2,0,4.8,2.4,4.8,7.1c0,2.5-0.5,4.4-1.5,5.7
		c-1,1.3-2.3,2-4,2c-1.1,0-2-0.3-2.7-1v5.7c0,0.7-0.1,1.2-0.4,1.5c-0.3,0.3-0.7,0.4-1.2,0.4c-0.6,0-0.9-0.1-1.1-0.3
		c-0.2-0.2-0.3-0.6-0.3-1.1v-6.4c-0.8,0.9-1.9,1.3-3.4,1.3c-1.5,0-2.7-0.6-3.6-1.8c-0.8-1.2-1.3-3-1.3-5.5c0-1.1,0.1-2.1,0.3-3
		c0.2-0.9,0.5-1.6,0.8-2.2s0.7-1,1.1-1.4s0.9-0.6,1.3-0.8c0.4-0.2,0.9-0.2,1.4-0.2c0.7,0,1.4,0.1,1.9,0.3c0.5,0.2,1,0.6,1.3,1.2h0
		v-7.8c0-0.5,0.1-0.8,0.3-1.1c0.2-0.2,0.6-0.3,1.1-0.3c0.6,0,1,0.1,1.3,0.4C154.7,126.7,154.8,127.2,154.8,128z M151.8,144.9v-7
		c0-1.5-0.8-2.2-2.3-2.2c-1,0-1.7,0.5-2.2,1.4c-0.5,0.9-0.7,2.3-0.7,4.2c0,2.1,0.2,3.6,0.6,4.5c0.4,0.9,1.1,1.4,2.2,1.4
		c0.6,0,1.1-0.2,1.6-0.7C151.5,145.9,151.8,145.4,151.8,144.9z M154.8,138.1v6.8c0,0.7,0.2,1.2,0.6,1.6c0.4,0.4,1,0.6,1.6,0.6
		c1,0,1.8-0.5,2.2-1.5s0.7-2.5,0.7-4.6c0-1.8-0.2-3.2-0.6-4c-0.4-0.9-1.1-1.3-2.1-1.3c-0.7,0-1.3,0.2-1.8,0.6
		C155,136.6,154.8,137.3,154.8,138.1z"/>
	<path class="st0" d="M172.7,148.5c-1.1,0-2-0.2-2.8-0.5c-0.8-0.3-1.5-0.8-2.1-1.4c-0.6-0.6-1-1.4-1.3-2.3c-0.3-0.9-0.5-2-0.5-3.3
		c0-1.3,0.2-2.3,0.5-3.3c0.3-0.9,0.8-1.7,1.3-2.3c0.6-0.6,1.3-1.1,2.1-1.4c0.8-0.3,1.8-0.5,2.8-0.5c1,0,2,0.2,2.8,0.5
		c0.8,0.3,1.5,0.8,2.1,1.4c0.6,0.6,1,1.4,1.3,2.3c0.3,0.9,0.5,2,0.5,3.3c0,1.2-0.1,2.3-0.4,3.3c-0.3,0.9-0.7,1.7-1.3,2.3
		c-0.6,0.6-1.3,1.1-2.1,1.4C174.7,148.3,173.8,148.5,172.7,148.5z M172.7,147.3c0.5,0,1-0.1,1.4-0.3c0.4-0.2,0.8-0.5,1.1-1
		c0.3-0.5,0.6-1.1,0.7-1.9c0.2-0.8,0.3-1.8,0.3-3.1c0-1.2-0.1-2.2-0.3-3c-0.2-0.8-0.4-1.4-0.7-1.9c-0.3-0.5-0.7-0.8-1.1-1
		c-0.4-0.2-0.9-0.3-1.4-0.3c-0.5,0-1,0.1-1.4,0.3c-0.4,0.2-0.8,0.5-1.1,1c-0.3,0.5-0.6,1.1-0.8,1.9c-0.2,0.8-0.3,1.8-0.3,3
		c0,1.2,0.1,2.2,0.2,3c0.2,0.8,0.4,1.4,0.7,1.9c0.3,0.5,0.7,0.8,1.1,1S172.2,147.3,172.7,147.3z"/>
	<path class="st0" d="M192.4,135h-2.7v11.5c0,0.8-0.1,1.3-0.4,1.6c-0.3,0.2-0.7,0.4-1.3,0.4c-0.5,0-0.9-0.1-1.1-0.3
		c-0.2-0.2-0.3-0.6-0.3-1.1V135H184v4.9c0,3.5-0.1,5.8-0.3,6.9c-0.2,1.1-0.7,1.6-1.3,1.6c-0.4,0-0.7-0.3-0.8-1
		c-0.2-0.7-0.2-1.7-0.2-3.2v-7.5c0-2.1,0.3-3.1,0.9-3.1h11.9c0.6,0,0.9,1,0.9,3.1v7.5c0,1.4-0.1,2.5-0.2,3.2c-0.2,0.7-0.4,1-0.9,1
		c-0.6,0-1-0.5-1.3-1.6c-0.2-1.1-0.3-3.4-0.3-6.9V135z"/>
	<path class="st0" d="M203.6,148.5c-1.1,0-2-0.2-2.8-0.5c-0.8-0.3-1.5-0.8-2.1-1.4s-1-1.4-1.3-2.3c-0.3-0.9-0.5-2-0.5-3.3
		c0-1.3,0.2-2.3,0.5-3.3c0.3-0.9,0.8-1.7,1.3-2.3c0.6-0.6,1.3-1.1,2.1-1.4c0.8-0.3,1.8-0.5,2.8-0.5c1,0,2,0.2,2.8,0.5
		c0.8,0.3,1.5,0.8,2.1,1.4c0.6,0.6,1,1.4,1.3,2.3s0.5,2,0.5,3.3c0,1.2-0.1,2.3-0.4,3.3c-0.3,0.9-0.7,1.7-1.3,2.3
		c-0.6,0.6-1.3,1.1-2.1,1.4C205.7,148.3,204.7,148.5,203.6,148.5z M203.6,147.3c0.5,0,1-0.1,1.4-0.3c0.4-0.2,0.8-0.5,1.1-1
		c0.3-0.5,0.6-1.1,0.7-1.9c0.2-0.8,0.3-1.8,0.3-3.1c0-1.2-0.1-2.2-0.3-3c-0.2-0.8-0.4-1.4-0.7-1.9s-0.7-0.8-1.1-1
		c-0.4-0.2-0.9-0.3-1.4-0.3c-0.5,0-1,0.1-1.4,0.3c-0.4,0.2-0.8,0.5-1.1,1s-0.6,1.1-0.8,1.9c-0.2,0.8-0.3,1.8-0.3,3
		c0,1.2,0.1,2.2,0.2,3c0.2,0.8,0.4,1.4,0.7,1.9c0.3,0.5,0.7,0.8,1.1,1C202.6,147.2,203.1,147.3,203.6,147.3z"/>
	<path class="st0" d="M233.4,136.3c0-1.9-0.3-2.9-0.9-2.9h-8.2c-0.4,0-0.8,0.1-0.9,0.3c-0.2,0.2-0.3,0.6-0.3,1v12.1
		c0,0.5,0.1,0.8,0.3,1c0.2,0.2,0.5,0.3,0.9,0.3c0.7,0,1.2-0.1,1.5-0.4s0.4-0.8,0.4-1.7v-11.4h4.5v1.7
		C233.4,136.3,232.3,136.3,233.4,136.3"/>
	<path class="st0" d="M241.8,148.5c-1.1,0-2-0.2-2.8-0.5c-0.8-0.3-1.5-0.8-2.1-1.4s-1-1.4-1.3-2.3c-0.3-0.9-0.5-2-0.5-3.3
		c0-1.3,0.2-2.3,0.5-3.3c0.3-0.9,0.8-1.7,1.3-2.3c0.6-0.6,1.3-1.1,2.1-1.4c0.8-0.3,1.8-0.5,2.8-0.5c1,0,2,0.2,2.8,0.5
		c0.8,0.3,1.5,0.8,2.1,1.4c0.6,0.6,1,1.4,1.3,2.3s0.5,2,0.5,3.3c0,1.2-0.1,2.3-0.4,3.3c-0.3,0.9-0.7,1.7-1.3,2.3
		c-0.6,0.6-1.3,1.1-2.1,1.4C243.8,148.3,242.9,148.5,241.8,148.5z M241.8,147.3c0.5,0,1-0.1,1.4-0.3c0.4-0.2,0.8-0.5,1.1-1
		c0.3-0.5,0.6-1.1,0.7-1.9c0.2-0.8,0.3-1.8,0.3-3.1c0-1.2-0.1-2.2-0.3-3c-0.2-0.8-0.4-1.4-0.7-1.9s-0.7-0.8-1.1-1
		c-0.4-0.2-0.9-0.3-1.4-0.3c-0.5,0-1,0.1-1.4,0.3c-0.4,0.2-0.8,0.5-1.1,1s-0.6,1.1-0.8,1.9c-0.2,0.8-0.3,1.8-0.3,3
		c0,1.2,0.1,2.2,0.2,3c0.2,0.8,0.4,1.4,0.7,1.9c0.3,0.5,0.7,0.8,1.1,1C240.8,147.2,241.3,147.3,241.8,147.3z"/>
	<path class="st0" d="M252.4,153.6v-18.7c0-0.8,0.4-1.3,1.1-1.3c0.6,0,1.1,0.2,1.4,0.6c0.3,0.4,0.4,1,0.5,1.9v0.2h0
		c0.3-0.4,0.5-0.8,0.9-1.2c0.3-0.3,0.7-0.6,1-0.9c0.4-0.2,0.8-0.4,1.2-0.5s1-0.2,1.5-0.2c3.4,0,5,2.2,5,6.7c0,1.4-0.2,2.5-0.5,3.6
		c-0.3,1-0.8,1.9-1.4,2.5c-0.6,0.7-1.3,1.2-2.2,1.5c-0.9,0.3-1.8,0.5-2.9,0.5c-1,0-1.9-0.2-2.7-0.6v5c0,0.4,0,0.8-0.1,1
		s-0.2,0.5-0.3,0.6c-0.1,0.2-0.3,0.3-0.6,0.3c-0.2,0.1-0.5,0.1-0.9,0.1c-0.5,0-0.8-0.1-0.9-0.3C252.4,154.4,252.4,154.1,252.4,153.6
		z M261.9,140.5c0-1-0.1-1.8-0.2-2.4c-0.1-0.6-0.4-1.1-0.6-1.5c-0.3-0.4-0.6-0.6-1-0.8c-0.4-0.1-0.8-0.2-1.2-0.2
		c-0.4,0-0.8,0.1-1.2,0.3c-0.4,0.2-0.8,0.5-1.1,0.8c-0.3,0.3-0.6,0.7-0.8,1.1s-0.3,0.8-0.3,1.3v6.4c0,0.2,0.1,0.4,0.2,0.7
		c0.1,0.2,0.3,0.4,0.5,0.6c0.2,0.2,0.5,0.3,0.9,0.4c0.3,0.1,0.7,0.2,1.1,0.2c0.6,0,1.1-0.1,1.6-0.3c0.5-0.2,0.9-0.6,1.2-1.1
		s0.6-1.2,0.8-2.1S261.9,141.8,261.9,140.5z"/>
	<path class="st0" d="M274.8,148.5c-1.1,0-2-0.2-2.8-0.5c-0.8-0.3-1.5-0.8-2.1-1.4c-0.6-0.6-1-1.4-1.3-2.3c-0.3-0.9-0.5-2-0.5-3.3
		c0-1.3,0.2-2.3,0.5-3.3c0.3-0.9,0.8-1.7,1.3-2.3c0.6-0.6,1.3-1.1,2.1-1.4c0.8-0.3,1.8-0.5,2.8-0.5c1,0,2,0.2,2.8,0.5
		c0.8,0.3,1.5,0.8,2.1,1.4c0.6,0.6,1,1.4,1.3,2.3s0.5,2,0.5,3.3c0,1.2-0.1,2.3-0.4,3.3c-0.3,0.9-0.7,1.7-1.3,2.3
		c-0.6,0.6-1.3,1.1-2.1,1.4C276.8,148.3,275.9,148.5,274.8,148.5z M274.8,147.3c0.5,0,1-0.1,1.4-0.3c0.4-0.2,0.8-0.5,1.1-1
		c0.3-0.5,0.6-1.1,0.7-1.9c0.2-0.8,0.3-1.8,0.3-3.1c0-1.2-0.1-2.2-0.3-3c-0.2-0.8-0.4-1.4-0.7-1.9c-0.3-0.5-0.7-0.8-1.1-1
		c-0.4-0.2-0.9-0.3-1.4-0.3c-0.5,0-1,0.1-1.4,0.3c-0.4,0.2-0.8,0.5-1.1,1s-0.6,1.1-0.8,1.9c-0.2,0.8-0.3,1.8-0.3,3
		c0,1.2,0.1,2.2,0.2,3c0.2,0.8,0.4,1.4,0.7,1.9c0.3,0.5,0.7,0.8,1.1,1S274.3,147.3,274.8,147.3z"/>
	<path class="st0" d="M283.9,147.1h0.8c0.7-0.9,1.2-2,1.5-3.4c0.3-1.4,0.5-3.3,0.5-5.7V135c0-0.5,0.1-0.8,0.3-1.1
		c0.2-0.2,0.5-0.3,0.9-0.3h7.3c0.4,0,0.8,0.1,0.9,0.3c0.2,0.2,0.3,0.6,0.3,1v12.1h1.3c0.6,0,0.9,0.3,0.9,0.9v2.8
		c0,0.4-0.1,0.7-0.2,0.9c-0.2,0.2-0.4,0.3-0.8,0.3c-0.6,0-1-0.1-1.3-0.4c-0.2-0.2-0.3-0.8-0.3-1.5v-1.6h-10.3v1.6
		c0,0.8-0.1,1.3-0.3,1.5c-0.2,0.2-0.6,0.4-1.3,0.4c-0.4,0-0.7-0.1-0.9-0.3s-0.2-0.5-0.2-0.9V148C283,147.4,283.3,147.1,283.9,147.1z
		 M286.9,147.1h6.4V135h-4.7v2.9c0,2.2-0.1,4-0.4,5.4C288,144.7,287.6,146,286.9,147.1z"/>
	<path class="st0" d="M307.3,148.5c-1.1,0-2-0.2-2.8-0.5c-0.8-0.3-1.5-0.8-2.1-1.4s-1-1.4-1.3-2.3c-0.3-0.9-0.5-2-0.5-3.3
		c0-1.3,0.2-2.3,0.5-3.3c0.3-0.9,0.8-1.7,1.3-2.3c0.6-0.6,1.3-1.1,2.1-1.4c0.8-0.3,1.8-0.5,2.8-0.5c1,0,2,0.2,2.8,0.5
		c0.8,0.3,1.5,0.8,2.1,1.4c0.6,0.6,1,1.4,1.3,2.3c0.3,0.9,0.5,2,0.5,3.3c0,1.2-0.1,2.3-0.4,3.3c-0.3,0.9-0.7,1.7-1.3,2.3
		s-1.3,1.1-2.1,1.4C309.3,148.3,308.3,148.5,307.3,148.5z M307.3,147.3c0.5,0,1-0.1,1.4-0.3c0.4-0.2,0.8-0.5,1.1-1
		c0.3-0.5,0.6-1.1,0.7-1.9c0.2-0.8,0.3-1.8,0.3-3.1c0-1.2-0.1-2.2-0.3-3c-0.2-0.8-0.4-1.4-0.7-1.9c-0.3-0.5-0.7-0.8-1.1-1
		c-0.4-0.2-0.9-0.3-1.4-0.3c-0.5,0-1,0.1-1.4,0.3c-0.4,0.2-0.8,0.5-1.1,1s-0.6,1.1-0.8,1.9c-0.2,0.8-0.3,1.8-0.3,3
		c0,1.2,0.1,2.2,0.2,3c0.2,0.8,0.4,1.4,0.7,1.9c0.3,0.5,0.7,0.8,1.1,1C306.2,147.2,306.7,147.3,307.3,147.3z"/>
	<path class="st0" d="M317.8,135c0-0.5,0.1-0.8,0.3-1c0.2-0.2,0.5-0.3,0.9-0.3h5c0.5,0,1,0,1.5,0.1s0.9,0.2,1.4,0.4
		c0.4,0.2,0.8,0.4,1.2,0.7c0.3,0.3,0.6,0.6,0.8,1c0.2,0.4,0.3,0.9,0.3,1.4c0,0.9-0.3,1.6-0.8,2.2s-1.3,1-2.2,1.2v0.2
		c1.1,0,2,0.3,2.7,1c0.7,0.6,1,1.4,1,2.3c0,0.7-0.1,1.3-0.4,1.8c-0.3,0.5-0.6,1-1,1.3c-0.4,0.3-0.9,0.6-1.4,0.8s-1.1,0.3-1.6,0.4
		c-0.5,0.1-1,0.1-1.6,0.1H319c-0.4,0-0.8-0.1-0.9-0.3s-0.3-0.6-0.3-1V135z M320.8,140.2h2.5c0.8,0,1.4-0.2,1.9-0.7
		c0.5-0.4,0.8-1.1,0.8-2.1c0-0.8-0.2-1.4-0.7-1.8c-0.5-0.4-1.2-0.7-2-0.7h-2.4V140.2z M320.8,141.4v5.7h2.5c0.6,0,1.1-0.1,1.5-0.3
		c0.4-0.2,0.8-0.4,1-0.7c0.2-0.3,0.4-0.6,0.5-0.9c0.1-0.3,0.2-0.7,0.2-1c0-0.9-0.3-1.6-0.8-2.1c-0.5-0.5-1.4-0.7-2.4-0.7H320.8z"/>
</g>
</svg>
